<svg height="512pt" viewBox="0 -64 512 512" width="512pt" xmlns="http://www.w3.org/2000/svg"><path d="m275.394531 40.660156-275.394531 158.996094v44.832031l240.863281 139.0625 271.136719-156.542969v-44.832031zm0 0" fill="#b2260b"/><path d="m512 182.175781-236.605469-141.515625-275.394531 158.996094 240.863281 139.0625zm0 0" fill="#ff7e27"/><path d="m240.863281 338.71875v44.832031l271.136719-156.542969v-44.832031zm0 0" fill="#ef5f26"/><g fill="#249155"><path d="m250.472656 270.925781-6.90625-81.988281c-.429687-3.660156-5.746094-3.65625-6.167968.007812l-6.964844 83.628907h.003906c-.261719 1.539062.523438 3.042969 2.40625 4.132812 3.640625 2.101563 9.996094 1.835938 14.203125-.589843 2.5625-1.480469 3.726563-3.421876 3.425781-5.191407zm0 0"/><path d="m240.238281 186.636719s-11.511719-10.640625-31.914062-3.316407c-20.398438 7.324219-29.472657 39.003907-29.472657 39.003907s7.011719-1.898438 15.261719-1.164063c7.699219.6875 16.300781 4.191406 25.898438-.523437 19.878906-9.765625 20.226562-34 20.226562-34zm0 0"/><path d="m240.238281 186.636719s1.785157-20.613281 13.613281-29.125c21.085938-15.171875 45.195313-4.585938 45.195313-4.585938s-7.421875 2.050781-10.550781 11.734375c-3.183594 9.851563-14.953125 30.175782-48.257813 21.976563zm0 0"/></g><path d="m240.238281 186.636719s-17.792969-.375-30.695312 8.695312c-12.902344 9.066407-20.921875 19.027344-20.921875 19.027344s13.710937-12.183594 27.464844-19.269531c13.753906-7.082032 24.152343-8.453125 24.152343-8.453125zm0 0" fill="#1b6d40"/><path d="m240.238281 186.636719s10.722657-17.136719 23.148438-23.9375c12.421875-6.800781 24.457031-8.632813 24.457031-8.632813s-16.304688 4.753906-27.203125 13.734375-20.402344 18.835938-20.402344 18.835938zm0 0" fill="#1b6d40"/><path d="m397.316406 185.359375-6.90625-81.992187c-.429687-3.660157-5.746094-3.652344-6.167968.007812l-6.964844 83.628906h.003906c-.261719 1.539063.523438 3.046875 2.40625 4.132813 3.640625 2.101562 10 1.839843 14.203125-.589844 2.5625-1.476563 3.730469-3.421875 3.425781-5.1875zm0 0" fill="#249155"/><path d="m387.082031 101.066406s-11.507812-10.640625-31.910156-3.316406-29.476563 39.003906-29.476563 39.003906 7.015626-1.898437 15.265626-1.164062c7.699218.6875 16.300781 4.191406 25.894531-.519532 19.878906-9.765624 20.226562-34.003906 20.226562-34.003906zm0 0" fill="#249155"/><path d="m387.082031 101.066406s1.789063-20.613281 13.617188-29.125c21.085937-15.167968 45.195312-4.582031 45.195312-4.582031s-7.421875 2.046875-10.550781 11.730469c-3.183594 9.855468-14.953125 30.175781-48.261719 21.976562zm0 0" fill="#249155"/><path d="m387.082031 101.066406s-17.792969-.371094-30.691406 8.695313c-12.902344 9.066406-20.921875 19.027343-20.921875 19.027343s13.710938-12.183593 27.464844-19.265624c13.75-7.085938 24.148437-8.457032 24.148437-8.457032zm0 0" fill="#1b6d40"/><path d="m387.082031 101.066406s10.726563-17.132812 23.148438-23.9375c12.425781-6.800781 24.457031-8.628906 24.457031-8.628906s-16.304688 4.75-27.203125 13.730469-20.402344 18.835937-20.402344 18.835937zm0 0" fill="#1b6d40"/><path d="m140.042969 207.160156-6.90625-81.988281c-.429688-3.660156-5.742188-3.65625-6.164063.003906l-6.964844 83.632813h.003907c-.261719 1.535156.519531 3.042968 2.402343 4.132812 3.640626 2.101563 10 1.835938 14.203126-.589844 2.5625-1.480468 3.730468-3.425781 3.425781-5.191406zm0 0" fill="#249155"/><path d="m129.8125 122.871094s-11.511719-10.640625-31.914062-3.316406c-20.402344 7.324218-29.476563 39.003906-29.476563 39.003906s7.015625-1.898438 15.265625-1.164063c7.699219.683594 16.300781 4.1875 25.894531-.523437 19.878907-9.765625 20.230469-34 20.230469-34zm0 0" fill="#249155"/><path d="m129.8125 122.871094s1.785156-20.617188 13.613281-29.125c21.085938-15.171875 45.195313-4.585938 45.195313-4.585938s-7.421875 2.046875-10.550782 11.734375c-3.183593 9.851563-14.953124 30.175781-48.257812 21.976563zm0 0" fill="#249155"/><path d="m129.8125 122.871094s-17.792969-.375-30.695312 8.695312c-12.902344 9.066406-20.921876 19.027344-20.921876 19.027344s13.710938-12.183594 27.464844-19.269531c13.753906-7.082031 24.152344-8.453125 24.152344-8.453125zm0 0" fill="#1b6d40"/><path d="m129.8125 122.871094s10.722656-17.136719 23.148438-23.9375c12.425781-6.800782 24.457031-8.632813 24.457031-8.632813s-16.304688 4.753907-27.203125 13.734375c-10.902344 8.980469-20.402344 18.835938-20.402344 18.835938zm0 0" fill="#1b6d40"/><path d="m286.890625 121.589844-6.90625-81.988282c-.429687-3.660156-5.746094-3.652343-6.167969.007813l-6.964844 83.628906h.003907c-.261719 1.539063.523437 3.046875 2.40625 4.132813 3.640625 2.101562 10 1.839844 14.203125-.589844 2.5625-1.480469 3.730468-3.421875 3.425781-5.191406zm0 0" fill="#249155"/><path d="m276.65625 37.300781s-11.507812-10.636719-31.910156-3.3125-29.476563 39-29.476563 39 7.015625-1.898437 15.265625-1.160156c7.695313.683594 16.300782 4.1875 25.894532-.523437 19.878906-9.765626 20.226562-34.003907 20.226562-34.003907zm0 0" fill="#249155"/><path d="m276.65625 37.300781s1.785156-20.613281 13.613281-29.125c21.089844-15.167969 45.195313-4.582031 45.195313-4.582031s-7.421875 2.046875-10.550782 11.734375c-3.179687 9.851563-14.949218 30.171875-48.257812 21.972656zm0 0" fill="#249155"/><path d="m276.65625 37.300781s-17.792969-.371093-30.695312 8.695313c-12.898438 9.070312-20.921876 19.03125-20.921876 19.03125s13.710938-12.1875 27.464844-19.269532c13.753906-7.085937 24.152344-8.457031 24.152344-8.457031zm0 0" fill="#1b6d40"/><path d="m276.65625 37.300781s10.722656-17.132812 23.148438-23.933593c12.425781-6.800782 24.457031-8.632813 24.457031-8.632813s-16.304688 4.75-27.203125 13.730469c-10.898438 8.980468-20.402344 18.835937-20.402344 18.835937zm0 0" fill="#1b6d40"/></svg>