<svg height="512pt" viewBox="-57 0 512 512" width="512pt" xmlns="http://www.w3.org/2000/svg"><path d="m214.371094 245.085938-214.371094 123.769531v34.894531l187.492188 108.25 211.0625-121.855469v-34.898437zm0 0" fill="#b2260b"/><path d="m398.554688 355.246094-184.183594-110.160156-214.371094 123.769531 187.492188 108.246093zm0 0" fill="#ff7e27"/><path d="m187.492188 477.101562v34.898438l211.0625-121.855469v-34.898437zm0 0" fill="#ef5f26"/><path d="m312.859375 325.117188s14.382813-60.625 22.316406-85.058594c7.9375-24.433594 15.511719-51.5 15.511719-51.5s-17.671875 26.199218-27.675781 54.613281c-10.007813 28.414063-18.640625 67.332031-18.640625 67.332031zm0 0" fill="#e5b120"/><path d="m332.425781 118.960938c-.21875 0-.445312-.039063-.660156-.121094-.976563-.367188-1.46875-1.453125-1.101563-2.425782 2.25-5.996093 3.394532-12.285156 3.394532-18.691406v-28.628906c0-1.039062.84375-1.882812 1.882812-1.882812 1.042969 0 1.886719.84375 1.886719 1.882812v28.628906c0 6.859375-1.226563 13.59375-3.636719 20.015625-.285156.753907-1.003906 1.222657-1.765625 1.222657zm0 0" fill="#e5b120"/><path d="m307.675781 96.273438c-1.039062 0-1.886719-.84375-1.886719-1.882813v-36.363281c0-1.039063.847657-1.882813 1.886719-1.882813 1.039063 0 1.882813.84375 1.882813 1.882813v36.363281c0 1.039063-.84375 1.882813-1.882813 1.882813zm0 0" fill="#ffe14d"/><path d="m313.003906 131.386719h-.003906c-.007812-.835938-.519531-1.628907-1.550781-2.226563-2.296875-1.324218-6.3125-1.15625-8.964844.375-1.460937.84375-2.207031 1.925782-2.195313 2.949219v224.183594c.011719.835937.519532 1.628906 1.550782 2.226562 2.296875 1.324219 6.3125 1.160157 8.96875-.375 1.441406-.832031 2.183594-1.894531 2.191406-2.90625h.003906zm0 0" fill="#e8c725"/><path d="m335.941406 104.519531c2.070313 9.144531.070313 21.789063-6.015625 33.414063-6.082031 11.625-14.699219 19.265625-22.453125 20.984375-2.070312-9.148438-.070312-21.789063 6.011719-33.414063 6.085937-11.625 14.703125-19.269531 22.457031-20.984375zm0 0" fill="#e5b120"/><path d="m335.941406 155.152344c2.070313 9.148437.8125 23.695312-5.273437 35.320312-6.082031 11.625-15.441407 17.363282-23.195313 19.078125-2.070312-9.144531-.070312-21.789062 6.011719-33.414062 6.085937-11.625 14.703125-19.265625 22.457031-20.984375zm0 0" fill="#e5b120"/><path d="m277.871094 186.90625c-2.070313 11.535156 1.46875 22.753906 7.550781 27.355469 6.085937 4.597656 14.699219 2.292969 22.457031-4.945313 2.070313-11.535156.070313-21.867187-6.015625-26.46875-6.082031-4.597656-16.234375-3.179687-23.992187 4.058594zm0 0" fill="#e8c725"/><path d="m306.957031 86.378906c-6.949219 9.371094-11.625 22.082032-11.625 33.550782 0 11.472656 4.675781 18.78125 11.625 20.132812 6.945313-9.371094 11.625-22.082031 11.625-33.554688 0-11.472656-4.679687-18.78125-11.625-20.128906zm0 0" fill="#ffe14d"/><path d="m304.285156 137.601562c-3.648437-6.234374-10.417968-12.117187-19.953125-9.015624 0-.082032-.011719-.164063-.011719-.246094v-33.949219c0-1.042969-.84375-1.886719-1.882812-1.886719s-1.882812.84375-1.882812 1.886719v33.949219c0 1.605468.277343 3.1875.789062 4.6875-1.960938 9.21875.539062 20.820312 5.875 24.855468 6.082031 4.597657 12.90625 10.296876 20.660156 3.058594 2.070313-11.535156.257813-16.757812-3.59375-23.339844zm0 0" fill="#e8c725"/><path d="m350.941406 88.050781c-1.015625-.238281-2.027344.394531-2.261718 1.40625l-9.503907 40.828125c-8.226562 2.308594-18.949219 7.960938-24.914062 19.285156-6.570313 12.472657-8.703125 26.054688-6.421875 35.890626 8.421875-1.820313 15.796875-7.453126 24.585937-18.476563 6.871094-8.613281 10.441407-22.972656 9.769531-33.046875l10.152344-43.625c.234375-1.015625-.394531-2.027344-1.40625-2.261719zm0 0" fill="#e8c725"/><path d="m298.753906 162.144531c-6.757812-4.515625-15.066406-6.347656-23.148437-1.199219-.546875-.726562-.976563-1.546874-1.253907-2.421874l-8.894531-28.128907c-.316406-.992187-1.375-1.542969-2.363281-1.226562-.992188.3125-1.542969 1.371093-1.230469 2.363281l8.898438 28.128906c.523437 1.660156 1.421875 3.179688 2.59375 4.453125-1.3125 10.746094 1.582031 20.378907 8.527343 25.019531 7.316407 4.894532 17.257813 3 25.957032-3.867187 1.863281-11.4375-1.769532-18.230469-9.085938-23.121094zm0 0" fill="#ffe14d"/><path d="m350.941406 133.574219c-1.015625-.234375-2.027344.394531-2.261718 1.410156l-9.503907 40.824219c-8.226562 2.308594-18.949219 7.964844-24.914062 19.289062-6.570313 12.472656-8.703125 26.054688-6.421875 35.890625 8.421875-1.820312 15.796875-7.457031 24.585937-18.476562 6.871094-8.617188 10.441407-22.976563 9.769531-33.046875l10.152344-43.628906c.234375-1.011719-.394531-2.023438-1.40625-2.261719zm0 0" fill="#e8c725"/><path d="m273.59375 207.898438c-1.859375 11.4375.972656 21.867187 8.289062 26.761718 7.316407 4.894532 17.257813 3 25.957032-3.867187 1.859375-11.4375-1.769532-18.230469-9.085938-23.121094-7.320312-4.894531-16.457031-6.640625-25.160156.226563zm0 0" fill="#ffe14d"/><path d="m312.859375 340.140625s-7.691406-31.574219-15.621094-55.242187c-12.910156-38.535157-39.5-60.71875-39.5-60.71875s19 27.667968 27.855469 63.3125c4.625 18.621093 14.695312 52.949218 14.695312 52.949218s.054688 1.53125 1.550782 2.226563c3.675781 1.707031 9.585937.894531 11.019531-2.527344zm0 0" fill="#ffe14d"/><path d="m222.957031 268.972656s14.378907-60.625 22.316407-85.058594c7.9375-24.433593 15.511718-51.5 15.511718-51.5s-17.671875 26.199219-27.679687 54.613282c-10.007813 28.414062-18.636719 67.332031-18.636719 67.332031zm0 0" fill="#e5b120"/><path d="m242.523438 62.816406c-.222657 0-.445313-.039062-.664063-.121094-.972656-.367187-1.464844-1.453124-1.101563-2.425781 2.253907-5.996093 3.398438-12.285156 3.398438-18.691406v-28.628906c0-1.039063.84375-1.882813 1.882812-1.882813 1.039063 0 1.882813.84375 1.882813 1.882813v28.628906c0 6.859375-1.222656 13.59375-3.636719 20.015625-.28125.757812-1 1.222656-1.761718 1.222656zm0 0" fill="#e5b120"/><path d="m217.769531 40.128906c-1.039062 0-1.882812-.84375-1.882812-1.882812v-36.363282c0-1.039062.84375-1.882812 1.882812-1.882812 1.042969 0 1.886719.84375 1.886719 1.882812v36.363282c0 1.039062-.84375 1.882812-1.886719 1.882812zm0 0" fill="#ffe14d"/><path d="m223.097656 75.242188c-.011718-.835938-.519531-1.628907-1.550781-2.222657-2.296875-1.328125-6.3125-1.160156-8.96875.371094-1.460937.84375-2.203125 1.925781-2.191406 2.949219v224.183594c.007812.835937.515625 1.628906 1.550781 2.226562 2.296875 1.324219 6.3125 1.160156 8.964844-.371094 1.441406-.835937 2.183594-1.898437 2.195312-2.910156zm0 0" fill="#e8c725"/><path d="m246.039062 48.375c2.070313 9.144531.066407 21.789062-6.015624 33.414062-6.085938 11.625-14.699219 19.265626-22.457032 20.984376-2.070312-9.144532-.070312-21.789063 6.015625-33.414063 6.085938-11.625 14.699219-19.265625 22.457031-20.984375zm0 0" fill="#e5b120"/><path d="m246.039062 99.007812c2.070313 9.148438.808594 23.695313-5.277343 35.320313-6.082031 11.625-15.441407 17.363281-23.195313 19.078125-2.070312-9.144531-.070312-21.789062 6.015625-33.414062 6.085938-11.625 14.699219-19.265626 22.457031-20.984376zm0 0" fill="#e5b120"/><path d="m187.96875 130.761719c-2.070312 11.539062 1.464844 22.757812 7.550781 27.355469 6.082031 4.601562 14.699219 2.292968 22.457031-4.941407 2.070313-11.539062.066407-21.871093-6.015624-26.46875-6.085938-4.601562-16.238282-3.183593-23.992188 4.054688zm0 0" fill="#e8c725"/><path d="m217.050781 30.234375c-6.945312 9.371094-11.625 22.082031-11.625 33.550781 0 11.472656 4.679688 18.78125 11.625 20.132813 6.949219-9.371094 11.625-22.082031 11.625-33.554688 0-11.472656-4.675781-18.78125-11.625-20.128906zm0 0" fill="#ffe14d"/><path d="m214.378906 81.457031c-3.648437-6.230469-10.417968-12.113281-19.949218-9.015625-.003907-.082031-.011719-.164062-.011719-.246094v-33.949218c0-1.042969-.84375-1.882813-1.886719-1.882813-1.039062 0-1.882812.84375-1.882812 1.882813v33.949218c0 1.609376.277343 3.191407.789062 4.691407-1.960938 9.21875.539062 20.820312 5.875 24.851562 6.082031 4.601563 12.90625 10.296875 20.664062 3.0625 2.066407-11.539062.257813-16.761719-3.597656-23.34375zm0 0" fill="#e8c725"/><path d="m261.035156 31.90625c-1.011718-.234375-2.023437.394531-2.261718 1.40625l-9.5 40.828125c-8.226563 2.308594-18.949219 7.964844-24.917969 19.289063-6.570313 12.46875-8.699219 26.050781-6.417969 35.886718 8.417969-1.820312 15.796875-7.453125 24.585938-18.472656 6.871093-8.617188 10.4375-22.976562 9.765624-33.046875l10.15625-43.628906c.234376-1.015625-.394531-2.027344-1.410156-2.261719zm0 0" fill="#e8c725"/><path d="m208.847656 106c-6.753906-4.515625-15.066406-6.34375-23.148437-1.195312-.546875-.730469-.972657-1.550782-1.25-2.425782l-8.898438-28.125c-.3125-.992187-1.371093-1.542968-2.363281-1.230468-.992188.316406-1.542969 1.371093-1.226562 2.363281l8.894531 28.128906c.527343 1.660156 1.425781 3.179687 2.59375 4.453125-1.308594 10.746094 1.585937 20.378906 8.53125 25.019531 7.316406 4.894531 17.257812 3 25.957031-3.867187 1.859375-11.4375-1.769531-18.226563-9.089844-23.121094zm0 0" fill="#ffe14d"/><path d="m261.035156 77.429688c-1.011718-.234376-2.023437.394531-2.261718 1.410156l-9.5 40.824218c-8.226563 2.308594-18.949219 7.964844-24.917969 19.289063-6.570313 12.472656-8.699219 26.054687-6.417969 35.890625 8.417969-1.820312 15.796875-7.453125 24.585938-18.476562 6.871093-8.613282 10.4375-22.976563 9.765624-33.046876l10.15625-43.628906c.234376-1.011718-.394531-2.023437-1.410156-2.261718zm0 0" fill="#e8c725"/><path d="m183.691406 151.753906c-1.859375 11.4375.96875 21.867188 8.289063 26.761719 7.316406 4.894531 17.257812 3 25.957031-3.867187 1.859375-11.4375-1.769531-18.230469-9.085938-23.121094-7.320312-4.894532-16.460937-6.640625-25.160156.226562zm0 0" fill="#ffe14d"/><path d="m222.957031 283.996094s-7.695312-31.574219-15.625-55.242188c-12.90625-38.53125-39.496093-60.71875-39.496093-60.71875s19 27.667969 27.851562 63.3125c4.628906 18.625 14.699219 52.949219 14.699219 52.949219s.054687 1.53125 1.550781 2.226563c3.671875 1.707031 9.585938.894531 11.019531-2.527344zm0 0" fill="#ffe14d"/><path d="m95.199219 344.34375s14.378906-60.625 22.316406-85.058594c7.933594-24.433594 15.507813-51.5 15.507813-51.5s-17.667969 26.199219-27.675782 54.613282c-10.007812 28.410156-18.636718 67.332031-18.636718 67.332031zm0 0" fill="#e5b120"/><path d="m114.761719 138.1875c-.21875 0-.441407-.039062-.660157-.121094-.972656-.367187-1.46875-1.453125-1.101562-2.425781 2.253906-5.996094 3.394531-12.285156 3.394531-18.691406v-28.628907c0-1.039062.84375-1.882812 1.886719-1.882812 1.039062 0 1.882812.84375 1.882812 1.882812v28.628907c0 6.859375-1.222656 13.59375-3.636718 20.015625-.285156.753906-1.003906 1.222656-1.765625 1.222656zm0 0" fill="#e5b120"/><path d="m90.011719 115.5c-1.039063 0-1.882813-.84375-1.882813-1.882812v-36.363282c0-1.039062.84375-1.882812 1.882813-1.882812 1.039062 0 1.882812.84375 1.882812 1.882812v36.363282c0 1.039062-.84375 1.882812-1.882812 1.882812zm0 0" fill="#ffe14d"/><path d="m95.339844 150.613281c-.011719-.835937-.519532-1.628906-1.550782-2.226562-2.300781-1.324219-6.3125-1.160157-8.96875.375-1.460937.84375-2.203124 1.925781-2.191406 2.949219v224.183593c.007813.832031.515625 1.628907 1.550782 2.222657 2.296874 1.328124 6.3125 1.160156 8.964843-.371094 1.441407-.832032 2.183594-1.894532 2.195313-2.90625zm0 0" fill="#e8c725"/><path d="m118.277344 123.746094c2.070312 9.144531.070312 21.789062-6.011719 33.414062-6.085937 11.625-14.703125 19.265625-22.457031 20.984375-2.070313-9.148437-.070313-21.789062 6.015625-33.414062 6.082031-11.625 14.699219-19.265625 22.453125-20.984375zm0 0" fill="#e5b120"/><path d="m118.277344 174.378906c2.070312 9.148438.8125 23.695313-5.273438 35.320313-6.082031 11.625-15.441406 17.363281-23.195312 19.078125-2.070313-9.144532-.070313-21.789063 6.015625-33.414063 6.082031-11.625 14.699219-19.265625 22.453125-20.984375zm0 0" fill="#e5b120"/><path d="m60.210938 206.132812c-2.070313 11.535157 1.464843 22.753907 7.550781 27.355469 6.082031 4.601563 14.699219 2.292969 22.453125-4.945312 2.070312-11.535157.070312-21.867188-6.015625-26.46875-6.082031-4.597657-16.234375-3.179688-23.988281 4.058593zm0 0" fill="#e8c725"/><path d="m89.292969 105.605469c-6.945313 9.371093-11.625 22.082031-11.625 33.550781 0 11.476562 4.679687 18.78125 11.625 20.132812 6.945312-9.371093 11.625-22.082031 11.625-33.554687s-4.679688-18.78125-11.625-20.128906zm0 0" fill="#ffe14d"/><path d="m86.621094 156.828125c-3.648438-6.230469-10.417969-12.113281-19.953125-9.015625 0-.082031-.011719-.164062-.011719-.246094v-33.949218c0-1.042969-.84375-1.886719-1.882812-1.886719-1.039063 0-1.882813.84375-1.882813 1.886719v33.949218c0 1.609375.277344 3.1875.789063 4.691406-1.960938 9.21875.539062 20.816407 5.875 24.851563 6.082031 4.597656 12.90625 10.296875 20.660156 3.058594 2.070312-11.535157.261718-16.757813-3.59375-23.339844zm0 0" fill="#e8c725"/><path d="m133.277344 107.277344c-1.015625-.238282-2.027344.394531-2.261719 1.40625l-9.503906 40.828125c-8.226563 2.308593-18.949219 7.964843-24.914063 19.289062-6.570312 12.46875-8.703125 26.050781-6.421875 35.886719 8.421875-1.820312 15.796875-7.453125 24.585938-18.472656 6.871093-8.617188 10.441406-22.976563 9.769531-33.050782l10.152344-43.625c.238281-1.015624-.394532-2.027343-1.40625-2.261718zm0 0" fill="#e8c725"/><path d="m81.089844 181.371094c-6.757813-4.515625-15.066406-6.347656-23.148438-1.199219-.546875-.726563-.972656-1.546875-1.25-2.421875l-8.898437-28.128906c-.3125-.992188-1.371094-1.542969-2.363281-1.226563-.992188.3125-1.542969 1.371094-1.230469 2.363281l8.898437 28.128907c.523438 1.660156 1.421875 3.179687 2.59375 4.453125-1.308594 10.746094 1.585938 20.378906 8.527344 25.019531 7.320312 4.894531 17.261719 3 25.960938-3.867187 1.859374-11.4375-1.773438-18.226563-9.089844-23.121094zm0 0" fill="#ffe14d"/><path d="m133.277344 152.800781c-1.015625-.234375-2.027344.394531-2.261719 1.410157l-9.503906 40.824218c-8.226563 2.308594-18.949219 7.964844-24.914063 19.289063-6.570312 12.472656-8.703125 26.054687-6.421875 35.890625 8.421875-1.820313 15.796875-7.457032 24.585938-18.476563 6.871093-8.617187 10.441406-22.976562 9.769531-33.046875l10.152344-43.628906c.238281-1.011719-.394532-2.027344-1.40625-2.261719zm0 0" fill="#e8c725"/><path d="m55.929688 227.125c-1.859376 11.4375.972656 21.867188 8.289062 26.761719s17.257812 3 25.960938-3.867188c1.859374-11.4375-1.773438-18.230469-9.089844-23.121093-7.316406-4.894532-16.457032-6.640626-25.160156.226562zm0 0" fill="#ffe14d"/><path d="m95.199219 359.367188s-7.695313-31.574219-15.625-55.242188c-12.910157-38.53125-39.5-60.71875-39.5-60.71875s19 27.667969 27.855469 63.3125c4.625 18.625 14.699218 52.949219 14.699218 52.949219s.054688 1.53125 1.550782 2.226562c3.671874 1.707031 9.582031.894531 11.019531-2.527343zm0 0" fill="#ffe14d"/><path d="m185.824219 401.363281s14.382812-60.625 22.316406-85.058593c7.9375-24.433594 15.511719-51.5 15.511719-51.5s-17.671875 26.203124-27.675782 54.613281c-10.007812 28.414062-18.640624 67.335937-18.640624 67.335937zm0 0" fill="#e5b120"/><path d="m205.390625 195.207031c-.21875 0-.445313-.039062-.660156-.121093-.976563-.363282-1.46875-1.449219-1.101563-2.425782 2.253906-5.996094 3.394532-12.28125 3.394532-18.6875v-28.628906c0-1.042969.84375-1.886719 1.882812-1.886719 1.042969 0 1.886719.84375 1.886719 1.886719v28.628906c0 6.859375-1.222657 13.59375-3.636719 20.011719-.285156.757813-1.003906 1.222656-1.765625 1.222656zm0 0" fill="#e5b120"/><path d="m180.640625 172.523438c-1.039063 0-1.882813-.84375-1.882813-1.886719v-36.359375c0-1.042969.84375-1.882813 1.882813-1.882813s1.882813.839844 1.882813 1.882813v36.359375c0 1.042969-.84375 1.886719-1.882813 1.886719zm0 0" fill="#ffe14d"/><path d="m185.96875 207.636719h-.003906c-.007813-.835938-.519532-1.628907-1.550782-2.226563-2.296874-1.324218-6.3125-1.160156-8.964843.371094-1.460938.847656-2.207031 1.929688-2.195313 2.953125v224.179687c.011719.835938.519532 1.632813 1.550782 2.226563 2.296874 1.328125 6.3125 1.164063 8.96875-.371094 1.441406-.832031 2.183593-1.898437 2.191406-2.910156h.003906zm0 0" fill="#e8c725"/><path d="m208.90625 180.765625c2.070312 9.148437.070312 21.789063-6.015625 33.414063-6.082031 11.625-14.699219 19.269531-22.453125 20.984374-2.070312-9.144531-.070312-21.785156 6.011719-33.410156 6.085937-11.625 14.703125-19.269531 22.457031-20.988281zm0 0" fill="#e5b120"/><path d="m208.90625 231.402344c2.070312 9.144531.8125 23.695312-5.273438 35.320312-6.082031 11.625-15.441406 17.359375-23.195312 19.078125-2.070312-9.144531-.070312-21.789062 6.015625-33.414062 6.082031-11.625 14.699219-19.265625 22.453125-20.984375zm0 0" fill="#e5b120"/><path d="m150.835938 263.15625c-2.070313 11.535156 1.46875 22.753906 7.550781 27.355469 6.085937 4.597656 14.703125 2.292969 22.457031-4.945313 2.070312-11.535156.070312-21.867187-6.015625-26.46875-6.085937-4.601562-16.234375-3.179687-23.992187 4.058594zm0 0" fill="#e8c725"/><path d="m179.921875 162.625c-6.949219 9.371094-11.625 22.082031-11.625 33.554688 0 11.472656 4.675781 18.78125 11.625 20.132812 6.945313-9.375 11.625-22.082031 11.625-33.554688 0-11.472656-4.679687-18.78125-11.625-20.132812zm0 0" fill="#ffe14d"/><path d="m177.25 213.851562c-3.648438-6.234374-10.417969-12.117187-19.953125-9.015624 0-.082032-.011719-.164063-.011719-.246094v-33.953125c0-1.039063-.84375-1.882813-1.882812-1.882813-1.039063 0-1.882813.84375-1.882813 1.882813v33.953125c0 1.605468.277344 3.1875.789063 4.6875-1.960938 9.21875.539062 20.820312 5.875 24.851562 6.082031 4.601563 12.90625 10.300782 20.660156 3.0625 2.070312-11.535156.257812-16.757812-3.59375-23.339844zm0 0" fill="#e8c725"/><path d="m223.90625 164.296875c-1.015625-.234375-2.027344.394531-2.261719 1.410156l-9.503906 40.824219c-8.226563 2.308594-18.949219 7.964844-24.914063 19.289062-6.570312 12.472657-8.703124 26.054688-6.421874 35.890626 8.421874-1.820313 15.796874-7.453126 24.585937-18.476563 6.871094-8.617187 10.441406-22.976563 9.769531-33.046875l10.152344-43.628906c.234375-1.011719-.394531-2.023438-1.40625-2.261719zm0 0" fill="#e8c725"/><path d="m171.71875 238.394531c-6.757812-4.519531-15.066406-6.347656-23.148438-1.199219-.546874-.730468-.976562-1.546874-1.253906-2.421874l-8.894531-28.128907c-.316406-.992187-1.375-1.542969-2.363281-1.230469-.992188.316407-1.542969 1.375-1.230469 2.367188l8.898437 28.125c.523438 1.660156 1.421876 3.183594 2.59375 4.457031-1.3125 10.746094 1.582032 20.375 8.527344 25.019531 7.316406 4.890626 17.257813 3 25.957032-3.867187 1.863281-11.4375-1.769532-18.230469-9.085938-23.121094zm0 0" fill="#ffe14d"/><path d="m223.90625 209.824219c-1.015625-.234375-2.027344.394531-2.261719 1.40625l-9.503906 40.828125c-8.226563 2.308594-18.949219 7.964844-24.914063 19.289062-6.570312 12.46875-8.703124 26.050782-6.421874 35.886719 8.421874-1.820313 15.796874-7.453125 24.585937-18.472656 6.871094-8.617188 10.441406-22.976563 9.769531-33.046875l10.152344-43.628906c.234375-1.015626-.394531-2.027344-1.40625-2.261719zm0 0" fill="#e8c725"/><g fill="#ffe14d"><path d="m146.558594 284.144531c-1.859375 11.441407.972656 21.871094 8.289062 26.765625 7.316406 4.890625 17.257813 2.996094 25.957032-3.867187 1.863281-11.441407-1.769532-18.230469-9.085938-23.125-7.320312-4.890625-16.457031-6.636719-25.160156.226562zm0 0"/><path d="m185.824219 416.386719s-7.691407-31.570313-15.621094-55.242188c-12.910156-38.53125-39.5-60.714843-39.5-60.714843s19 27.667968 27.855469 63.3125c4.625 18.621093 14.699218 52.949218 14.699218 52.949218s.050782 1.53125 1.546876 2.226563c3.675781 1.703125 9.585937.894531 11.019531-2.53125zm0 0"/></g></svg>