<svg height="511pt" viewBox="-13 0 511 511.99909" width="511pt" xmlns="http://www.w3.org/2000/svg"><path d="m261.507812 187.019531-261.007812 150.695313v42.484375l228.28125 131.800781 256.972656-148.363281v-42.492188zm0 0" fill="#b2260b"/><path d="m485.753906 321.148438-224.246094-134.128907-261.007812 150.695313 228.28125 131.796875zm0 0" fill="#ff7e27"/><path d="m228.78125 469.511719v42.488281l256.972656-148.363281v-42.488281zm0 0" fill="#ef5f26"/><path d="m128.089844 235.027344c-4.773438 2.871094-8.25 7.117187-10.753906 11.417968v-58.183593c-.015626-1.269531-.792969-2.480469-2.363282-3.386719-3.5-2.023438-9.617187-1.769531-13.660156.566406-2.226562 1.285156-3.359375 2.9375-3.34375 4.496094v95.695312c-2.085938-5.980468-5.886719-12.101562-12.726562-16.285156-14.921876-9.132812-32.945313-4.707031-32.945313-4.707031s2.757813 51.734375 45.671875 40.757813v39.355468c.015625 1.269532.789062 2.484375 2.363281 3.390625 3.5 2.023438 9.617188 1.765625 13.660157-.566406 2.199218-1.269531 3.328124-2.890625 3.34375-4.429687v-75.597657c4.648437 2.640625 12.097656 4.546875 22.597656.429688 19.511718-7.648438 23.457031-39.621094 23.457031-39.621094s-18.96875-3.148437-35.300781 6.667969zm0 0" fill="#249155"/><path d="m97.96875 297.578125c-3.078125-5.066406-8.34375-11.871094-16.84375-17.9375-12.957031-9.242187-25.003906-12.648437-25.003906-12.648437s16.375 9.871093 26.082031 18.257812c6.5625 5.667969 12.5625 13.578125 15.765625 18.109375zm0 0" fill="#1b6d40"/><path d="m128.335938 245.667969c-4.667969 3.515625-8.316407 6.777343-11 9.398437v4.453125c4.199218-4.152343 10.417968-9.746093 17.59375-14.441406 13.261718-8.679687 23.265624-13.089844 23.265624-13.089844s-18.53125 5.148438-29.859374 13.679688zm0 0" fill="#1b6d40"/><path d="m165.660156 149.316406c.128906-7.6875-9.296875-8.710937-21.054687-2.28125-1.539063.839844-3.039063 1.769532-4.488281 2.761719 1.273437-1.671875 2.554687-3.453125 3.820312-5.351563 9.671875-14.511718 14.878906-29.828124 11.628906-34.214843s-13.726562 3.820312-23.402344 18.332031c-1.261718 1.894531-2.449218 3.804688-3.550781 5.707031.621094-2.113281 1.191407-4.292969 1.703125-6.523437 3.890625-17.046875 2.675782-30.386719-2.71875-29.792969-5.390625.59375-12.914062 14.894531-16.804687 31.941406-.507813 2.222657-.925781 4.386719-1.261719 6.460938-.273438-1.746094-.625-3.484375-1.066406-5.191407-3.375-13.074218-10.550782-19.339843-16.019532-13.992187-5.472656 5.34375-7.171874 20.277344-3.792968 33.351563.441406 1.707031.945312 3.296874 1.507812 4.761718-1.0625-.714844-2.203125-1.355468-3.425781-1.894531-9.355469-4.105469-19.746094-.902344-23.207031 7.152344-3.464844 8.058593 1.3125 17.917969 10.667968 22.023437 1.222657.539063 2.464844.941406 3.703126 1.234375-1.441407.589844-2.9375 1.300781-4.476563 2.140625-11.757813 6.429688-21.398437 17.875-21.53125 25.566406-.128906 7.6875 9.296875 8.710938 21.058594 2.28125 1.535156-.839843 3.035156-1.769531 4.484375-2.761718-1.273438 1.671875-2.554688 3.453125-3.820313 5.351562-9.671875 14.511719-14.878906 29.828125-11.625 34.214844 3.25 4.386719 13.726563-3.820312 23.398438-18.332031 1.265625-1.894531 2.449219-3.804688 3.550781-5.703125-.617188 2.109375-1.191406 4.289062-1.699219 6.519531-3.894531 17.050781-2.675781 30.386719 2.714844 29.792969s12.914063-14.894532 16.804687-31.941406c.507813-2.222657.925782-4.382813 1.265626-6.460938.269531 1.746094.621093 3.484375 1.0625 5.191406 3.375 13.074219 10.550781 19.339844 16.023437 13.996094 5.472656-5.347656 7.167969-20.277344 3.792969-33.351562-.441406-1.710938-.949219-3.300782-1.507813-4.765626 1.058594.71875 2.199219 1.355469 3.421875 1.894532 9.355469 4.105468 19.746094.90625 23.210938-7.152344 3.460937-8.058594-1.316406-17.917969-10.667969-22.023438-1.226563-.535156-2.464844-.941406-3.707031-1.234374 1.441406-.589844 2.9375-1.296876 4.476562-2.140626 11.757813-6.429687 21.398438-17.875 21.53125-25.566406zm0 0" fill="#e8c725"/><path d="m150.828125 160.578125c-1.460937.207031-2.910156.53125-4.328125.945313 1.421875-1.222657 2.871094-2.574219 4.332031-4.050782 11.183594-11.304687 18.824219-25.515625 17.058594-31.742187-1.765625-6.222657-12.265625-2.105469-23.453125 9.199219-1.464844 1.480468-2.863281 3.007812-4.191406 4.558593.972656-2 1.921875-4.097656 2.824218-6.28125 6.914063-16.679687 8.773438-31.667969 4.152344-33.476562-4.625-1.808594-13.972656 10.246093-20.886718 26.925781-.90625 2.183594-1.71875 4.332031-2.445313 6.429688.148437-2.015626.230469-4.0625.230469-6.113282 0-15.683594-4.628906-25.722656-10.34375-22.425781-5.710938 3.296875-10.34375 18.683594-10.34375 34.371094 0 2.046875.082031 4 .234375 5.839843-.730469-1.257812-1.542969-2.46875-2.449219-3.605468-6.914062-8.699219-16.261719-9.957032-20.886719-2.8125-4.621093 7.144531-2.761719 19.988281 4.152344 28.683594.902344 1.136718 1.851563 2.140624 2.824219 3.023437-1.328125-.019531-2.730469.066406-4.195313.277344-11.1875 1.613281-21.6875 9.617187-23.449219 17.882812-1.765624 8.261719 5.871094 13.652344 17.058594 12.042969 1.460938-.210938 2.910156-.535156 4.328125-.949219-1.421875 1.222657-2.871093 2.574219-4.332031 4.050781-11.183594 11.308594-18.824219 25.519532-17.058594 31.742188 1.765625 6.226562 12.265625 2.105469 23.453125-9.199219 1.460938-1.476562 2.863281-3.007812 4.191407-4.558593-.972657 2-1.921876 4.097656-2.824219 6.28125-6.914063 16.679687-8.773438 31.667968-4.152344 33.476562s13.972656-10.246094 20.886719-26.925781c.90625-2.183594 1.71875-4.332031 2.445312-6.429688-.148437 2.015625-.230468 4.0625-.230468 6.113281 0 15.683594 4.628906 25.722657 10.34375 22.425782 5.710937-3.296875 10.339843-18.683594 10.339843-34.371094 0-2.050781-.078125-4-.230469-5.839844.730469 1.257813 1.542969 2.46875 2.445313 3.605469 6.914063 8.699219 16.265625 9.957031 20.886719 2.8125s2.765625-19.988281-4.148438-28.683594c-.90625-1.140625-1.851562-2.140625-2.824218-3.023437 1.328124.019531 2.730468-.066406 4.191406-.277344 11.1875-1.613281 21.6875-9.621094 23.453125-17.882812 1.765625-8.261719-5.871094-13.652344-17.058594-12.039063zm0 0" fill="#ffe14d"/><path d="m144.136719 165.300781c0 20.144531-12.25 43.550781-27.355469 52.273438-15.109375 8.722656-27.359375-.535157-27.359375-20.683594 0-20.144531 12.25-43.546875 27.359375-52.273437 15.105469-8.722657 27.355469.539062 27.355469 20.683593zm0 0" fill="#ff7e27"/><path d="m139.792969 170.695312c0 13.265626-8.0625 28.675782-18.011719 34.417969-9.949219 5.746094-18.015625-.351562-18.015625-13.617187s8.066406-28.675782 18.015625-34.417969c9.949219-5.746094 18.011719.351563 18.011719 13.617187zm0 0" fill="#b2260b"/><path d="m295.308594 137.09375c-4.777344 2.871094-8.25 7.117188-10.753906 11.417969v-58.183594h-.003907c-.011719-1.269531-.789062-2.480469-2.359375-3.390625-3.5-2.019531-9.617187-1.765625-13.660156.566406-2.230469 1.289063-3.359375 2.9375-3.34375 4.496094v95.699219c-2.085938-5.980469-5.886719-12.101563-12.726562-16.289063-14.921876-9.128906-32.945313-4.703125-32.945313-4.703125s2.757813 51.730469 45.671875 40.757813v39.351562c.015625 1.273438.789062 2.484375 2.363281 3.394532 3.5 2.019531 9.617188 1.765624 13.660157-.566407 2.195312-1.269531 3.328124-2.890625 3.339843-4.433593h.003907v-75.59375c4.648437 2.636718 12.097656 4.542968 22.597656.429687 19.511718-7.648437 23.457031-39.621094 23.457031-39.621094s-18.96875-3.152343-35.300781 6.667969zm0 0" fill="#249155"/><path d="m265.1875 199.644531c-3.078125-5.066406-8.34375-11.871093-16.847656-17.9375-12.957032-9.246093-25.003906-12.648437-25.003906-12.648437s16.375 9.871094 26.082031 18.253906c6.566406 5.671875 12.566406 13.582031 15.765625 18.113281v-5.78125zm0 0" fill="#1b6d40"/><path d="m295.554688 147.730469c-4.667969 3.519531-8.316407 6.78125-11 9.402343v4.453126c4.199218-4.152344 10.414062-9.746094 17.59375-14.441407 13.261718-8.679687 23.261718-13.089843 23.261718-13.089843s-18.53125 5.144531-29.855468 13.675781zm0 0" fill="#1b6d40"/><path d="m332.875 51.382812c.132812-7.691406-9.292969-8.710937-21.054688-2.28125-1.539062.839844-3.035156 1.765626-4.484374 2.757813 1.273437-1.667969 2.550781-3.449219 3.820312-5.347656 9.671875-14.511719 14.878906-29.828125 11.625-34.214844-3.25-4.386719-13.726562 3.820313-23.398438 18.332031-1.265624 1.894532-2.449218 3.804688-3.550781 5.707032.617188-2.113282 1.191407-4.292969 1.699219-6.523438 3.890625-17.046875 2.675781-30.386719-2.714844-29.7929688-5.390625.5937498-12.914062 14.8945308-16.804687 31.9414068-.507813 2.226562-.929688 4.386718-1.265625 6.460937-.269532-1.746094-.621094-3.484375-1.0625-5.191406-3.378906-13.074219-10.550782-19.339844-16.023438-13.996094-5.472656 5.347656-7.167968 20.28125-3.792968 33.355469.441406 1.707031.949218 3.296875 1.507812 4.761718-1.058594-.714843-2.199219-1.359374-3.421875-1.894531-9.355469-4.105469-19.746094-.902343-23.210937 7.152344-3.460938 8.058594 1.3125 17.917969 10.667968 22.023437 1.222656.539063 2.464844.941407 3.707032 1.234376-1.441407.589843-2.941407 1.300781-4.476563 2.140624-11.761719 6.429688-21.402344 17.875-21.53125 25.566407-.132813 7.6875 9.296875 8.710937 21.054687 2.28125 1.539063-.839844 3.039063-1.769531 4.488282-2.761719-1.277344 1.671875-2.554688 3.453125-3.820313 5.351562-9.671875 14.511719-14.878906 29.828126-11.628906 34.214844 3.25 4.386719 13.726563-3.820312 23.402344-18.332031 1.261719-1.894531 2.445312-3.808594 3.550781-5.707031-.621094 2.113281-1.195312 4.292968-1.703125 6.523437-3.890625 17.046875-2.675781 30.386719 2.714844 29.792969s12.917969-14.894531 16.808593-31.941406c.507813-2.226563.925782-4.386719 1.261719-6.460938.269531 1.742188.625 3.484375 1.0625 5.191406 3.378907 13.074219 10.554688 19.339844 16.023438 13.992188 5.472656-5.34375 7.171875-20.277344 3.792969-33.351562-.441407-1.707032-.949219-3.296876-1.507813-4.761719 1.058594.714843 2.199219 1.355469 3.425781 1.894531 9.355469 4.105469 19.746094.902344 23.207032-7.152344 3.464843-8.058594-1.3125-17.917968-10.667969-22.027344-1.222657-.535156-2.464844-.941406-3.703125-1.234374 1.441406-.585938 2.9375-1.296876 4.476562-2.136719 11.757813-6.429688 21.398438-17.875 21.527344-25.566407zm0 0" fill="#e8c725"/><path d="m318.046875 62.640625c-1.460937.210937-2.910156.535156-4.328125.949219 1.417969-1.226563 2.867188-2.574219 4.328125-4.054688 11.1875-11.304687 18.828125-25.515625 17.0625-31.738281-1.765625-6.226563-12.265625-2.105469-23.453125 9.199219-1.464844 1.476562-2.863281 3.007812-4.191406 4.558594.972656-2.003907 1.917968-4.101563 2.824218-6.28125 6.914063-16.679688 8.773438-31.671876 4.152344-33.480469-4.621094-1.808594-13.976562 10.25-20.890625 26.929687-.902343 2.179688-1.714843 4.328125-2.441406 6.425782.148437-2.011719.230469-4.058594.230469-6.109376 0-15.683593-4.632813-25.726562-10.34375-22.429687-5.710938 3.300781-10.34375 18.6875-10.34375 34.371094 0 2.050781.082031 4 .230468 5.84375-.726562-1.257813-1.539062-2.46875-2.445312-3.609375-6.914062-8.695313-16.265625-9.953125-20.886719-2.808594-4.621093 7.144531-2.761719 19.988281 4.152344 28.683594.902344 1.136718 1.851563 2.140625 2.824219 3.019531-1.332032-.015625-2.730469.070313-4.195313.28125-11.1875 1.613281-21.6875 9.617187-23.453125 17.882813-1.761718 8.261718 5.875 13.652343 17.0625 12.039062 1.460938-.207031 2.90625-.53125 4.328125-.945312-1.421875 1.222656-2.871093 2.574218-4.332031 4.050781-11.1875 11.308593-18.824219 25.519531-17.058594 31.742187 1.765625 6.226563 12.265625 2.105469 23.453125-9.199218 1.460938-1.480469 2.863281-3.007813 4.191407-4.5625-.972657 2.003906-1.921876 4.101562-2.824219 6.285156-6.914063 16.679687-8.773438 31.667968-4.152344 33.476562s13.972656-10.246094 20.886719-26.925781c.90625-2.183594 1.71875-4.332031 2.445312-6.429687-.148437 2.015624-.230468 4.0625-.230468 6.113281 0 15.683593 4.628906 25.722656 10.34375 22.425781 5.710937-3.296875 10.339843-18.6875 10.339843-34.371094 0-2.046875-.078125-4-.230469-5.839844.730469 1.257813 1.542969 2.46875 2.445313 3.605469 6.914063 8.699219 16.269531 9.957031 20.886719 2.8125 4.625-7.148437 2.765625-19.988281-4.148438-28.6875-.90625-1.136719-1.851562-2.136719-2.824218-3.019531 1.328124.019531 2.730468-.070312 4.195312-.28125 11.183594-1.609375 21.683594-9.617188 23.449219-17.878906 1.765625-8.261719-5.871094-13.652344-17.058594-12.042969zm0 0" fill="#ffe14d"/><path d="m311.355469 67.367188c0 20.144531-12.25 43.546874-27.359375 52.273437-15.109375 8.722656-27.355469-.539063-27.355469-20.683594s12.246094-43.550781 27.355469-52.273437 27.359375.535156 27.359375 20.683594zm0 0" fill="#ff7e27"/><path d="m307.011719 72.761719c0 13.265625-8.066407 28.675781-18.015625 34.417969-9.949219 5.746093-18.011719-.351563-18.011719-13.617188s8.0625-28.675781 18.011719-34.417969c9.949218-5.746093 18.015625.351563 18.015625 13.617188zm0 0" fill="#b2260b"/><path d="m246.132812 306.214844c-4.773437 2.871094-8.25 7.117187-10.753906 11.417968v-58.183593c-.015625-1.269531-.792968-2.480469-2.363281-3.386719-3.5-2.023438-9.617187-1.769531-13.660156.566406-2.226563 1.285156-3.359375 2.933594-3.34375 4.496094v95.695312c-2.085938-5.980468-5.882813-12.101562-12.726563-16.289062-14.921875-9.128906-32.945312-4.707031-32.945312-4.707031s2.757812 51.734375 45.671875 40.757812v39.355469c.015625 1.273438.789062 2.484375 2.363281 3.394531 3.5 2.019531 9.617188 1.765625 13.660156-.566406 2.199219-1.269531 3.328125-2.890625 3.34375-4.433594v-75.59375c4.648438 2.640625 12.097656 4.542969 22.597656.429688 19.511719-7.648438 23.457032-39.621094 23.457032-39.621094s-18.96875-3.148437-35.300782 6.667969zm0 0" fill="#249155"/><path d="m216.011719 368.765625c-3.078125-5.066406-8.34375-11.871094-16.84375-17.9375-12.960938-9.242187-25.003907-12.648437-25.003907-12.648437s16.375 9.871093 26.082032 18.257812c6.5625 5.667969 12.5625 13.578125 15.765625 18.109375zm0 0" fill="#1b6d40"/><path d="m246.378906 316.851562c-4.667968 3.515626-8.316406 6.78125-11 9.402344v4.453125c4.199219-4.152343 10.417969-9.746093 17.59375-14.441406 13.261719-8.679687 23.265625-13.089844 23.265625-13.089844s-18.535156 5.144531-29.859375 13.675781zm0 0" fill="#1b6d40"/><path d="m283.703125 220.503906c.128906-7.691406-9.296875-8.710937-21.058594-2.28125-1.535156.839844-3.035156 1.765625-4.484375 2.757813 1.273438-1.667969 2.554688-3.449219 3.820313-5.347657 9.671875-14.511718 14.878906-29.828124 11.628906-34.214843-3.253906-4.386719-13.730469 3.820312-23.402344 18.332031-1.265625 1.894531-2.449219 3.804688-3.550781 5.707031.621094-2.113281 1.191406-4.292969 1.703125-6.523437 3.890625-17.046875 2.671875-30.386719-2.71875-29.792969s-12.914063 14.894531-16.804687 31.941406c-.507813 2.222657-.925782 4.386719-1.261719 6.460938-.273438-1.746094-.625-3.484375-1.066407-5.191407-3.375-13.074218-10.550781-19.339843-16.023437-13.996093-5.472656 5.347656-7.167969 20.28125-3.792969 33.355469.441406 1.707031.949219 3.296874 1.507813 4.761718-1.058594-.714844-2.199219-1.355468-3.421875-1.894531-9.355469-4.105469-19.746094-.902344-23.210938 7.152344-3.460937 8.058593 1.316406 17.917969 10.671875 22.023437 1.222657.539063 2.460938.941406 3.703125 1.234375-1.441406.589844-2.9375 1.296875-4.476562 2.140625-11.761719 6.429688-21.398438 17.875-21.53125 25.566406-.132813 7.6875 9.296875 8.710938 21.054687 2.28125 1.539063-.839843 3.039063-1.769531 4.488281-2.761718-1.277343 1.667968-2.554687 3.453125-3.820312 5.351562-9.671875 14.507813-14.878906 29.828125-11.628906 34.214844s13.726562-3.820312 23.398437-18.332031c1.265625-1.898438 2.449219-3.808594 3.554688-5.707031-.621094 2.113281-1.195313 4.292968-1.703125 6.523437-3.890625 17.046875-2.675782 30.386719 2.714844 29.792969 5.390624-.59375 12.917968-14.894532 16.808593-31.941406.507813-2.226563.925781-4.386719 1.261719-6.460938.269531 1.742188.621094 3.484375 1.0625 5.191406 3.378906 13.074219 10.550781 19.339844 16.023438 13.992188 5.472656-5.347656 7.171874-20.277344 3.792968-33.351563-.441406-1.710937-.949218-3.300781-1.507812-4.765625 1.058594.71875 2.199218 1.359375 3.425781 1.894532 9.355469 4.105468 19.746094.90625 23.207031-7.152344 3.464844-8.058594-1.3125-17.917969-10.667968-22.023438-1.222657-.535156-2.464844-.941406-3.703126-1.234375 1.441407-.589843 2.9375-1.296875 4.476563-2.140625 11.757813-6.425781 21.398437-17.871094 21.53125-25.5625zm0 0" fill="#e8c725"/><path d="m268.871094 231.765625c-1.460938.207031-2.910156.53125-4.328125.945313 1.417969-1.222657 2.867187-2.574219 4.328125-4.050782 11.1875-11.308594 18.828125-25.519531 17.0625-31.742187-1.765625-6.226563-12.265625-2.105469-23.453125 9.199219-1.464844 1.480468-2.863281 3.007812-4.191407 4.558593.972657-2 1.917969-4.101562 2.824219-6.28125 6.914063-16.679687 8.773438-31.667969 4.148438-33.476562-4.621094-1.8125-13.972657 10.246093-20.886719 26.925781-.902344 2.179688-1.714844 4.332031-2.445312 6.429688.152343-2.015626.234374-4.0625.234374-6.113282 0-15.683594-4.632812-25.726562-10.34375-22.425781-5.710937 3.296875-10.34375 18.683594-10.34375 34.367187 0 2.050782.082032 4.003907.230469 5.84375-.726562-1.257812-1.539062-2.46875-2.445312-3.605468-6.914063-8.699219-16.265625-9.957032-20.886719-2.8125-4.621094 7.144531-2.761719 19.988281 4.152344 28.683594.902344 1.136718 1.851562 2.140624 2.820312 3.023437-1.328125-.019531-2.726562.066406-4.191406.277344-11.1875 1.613281-21.6875 9.617187-23.453125 17.882812-1.761719 8.261719 5.875 13.652344 17.0625 12.039063 1.457031-.210938 2.90625-.53125 4.328125-.945313-1.421875 1.222657-2.871094 2.574219-4.332031 4.050781-11.1875 11.308594-18.824219 25.519532-17.058594 31.742188s12.265625 2.105469 23.453125-9.199219c1.460938-1.480469 2.859375-3.007812 4.1875-4.5625-.96875 2.003907-1.917969 4.101563-2.820312 6.285157-6.914063 16.679687-8.773438 31.667968-4.152344 33.476562s13.972656-10.246094 20.886718-26.925781c.902344-2.183594 1.714844-4.332031 2.445313-6.429688-.152344 2.015625-.234375 4.0625-.234375 6.113281 0 15.683594 4.632812 25.722657 10.34375 22.425782 5.714844-3.296875 10.34375-18.6875 10.34375-34.371094 0-2.046875-.082031-4-.230469-5.839844.726563 1.257813 1.539063 2.46875 2.445313 3.605469 6.914062 8.699219 16.265625 9.957031 20.886718 2.8125 4.621094-7.148437 2.765626-19.988281-4.148437-28.6875-.90625-1.136719-1.851563-2.136719-2.824219-3.019531 1.328125.019531 2.726563-.070313 4.191406-.28125 11.1875-1.609375 21.6875-9.617188 23.453126-17.878906 1.765624-8.261719-5.871094-13.652344-17.058594-12.039063zm0 0" fill="#ffe14d"/><path d="m262.179688 236.488281c0 20.144531-12.25 43.546875-27.355469 52.273438-15.109375 8.722656-27.359375-.535157-27.359375-20.683594 0-20.144531 12.25-43.546875 27.359375-52.273437 15.105469-8.722657 27.355469.539062 27.355469 20.683593zm0 0" fill="#ff7e27"/><path d="m257.835938 241.882812c0 13.265626-8.0625 28.675782-18.011719 34.417969-9.949219 5.746094-18.015625-.351562-18.015625-13.617187s8.066406-28.675782 18.015625-34.417969c9.945312-5.746094 18.011719.351563 18.011719 13.617187zm0 0" fill="#b2260b"/><path d="m413.351562 208.277344c-4.777343 2.875-8.25 7.121094-10.753906 11.417968v-58.179687h-.003906c-.011719-1.273437-.789062-2.484375-2.359375-3.390625-3.5-2.019531-9.617187-1.765625-13.660156.566406-2.230469 1.285156-3.359375 2.9375-3.34375 4.496094v95.699219c-2.085938-5.984375-5.886719-12.101563-12.726563-16.289063-14.921875-9.128906-32.945312-4.707031-32.945312-4.707031s2.757812 51.734375 45.671875 40.757813v39.355468c.015625 1.269532.789062 2.484375 2.363281 3.390625 3.5 2.023438 9.617188 1.769531 13.660156-.566406 2.195313-1.265625 3.328125-2.890625 3.339844-4.429687h.003906v-75.59375c4.648438 2.636718 12.097656 4.542968 22.597656.425781 19.511719-7.644531 23.457032-39.621094 23.457032-39.621094s-18.96875-3.148437-35.300782 6.667969zm0 0" fill="#249155"/><path d="m383.230469 270.832031c-3.078125-5.070312-8.34375-11.871093-16.847657-17.9375-12.957031-9.246093-25.003906-12.648437-25.003906-12.648437s16.375 9.871094 26.082032 18.253906c6.566406 5.671875 12.566406 13.582031 15.769531 18.113281zm0 0" fill="#1b6d40"/><path d="m413.597656 218.917969c-4.667968 3.515625-8.316406 6.777343-11 9.402343v4.449219c4.199219-4.152343 10.414063-9.746093 17.59375-14.441406 13.261719-8.675781 23.261719-13.089844 23.261719-13.089844s-18.53125 5.148438-29.855469 13.679688zm0 0" fill="#1b6d40"/><path d="m450.917969 122.570312c.132812-7.691406-9.292969-8.714843-21.054688-2.285156-1.539062.84375-3.035156 1.769532-4.484375 2.761719 1.273438-1.667969 2.550782-3.453125 3.820313-5.351563 9.671875-14.507812 14.878906-29.828124 11.625-34.210937-3.25-4.386719-13.726563 3.820313-23.398438 18.328125-1.265625 1.898438-2.449219 3.808594-3.550781 5.707031.617188-2.109375 1.191406-4.292969 1.699219-6.519531 3.890625-17.050781 2.675781-30.390625-2.714844-29.792969-5.390625.589844-12.914063 14.890625-16.804687 31.9375-.507813 2.226563-.929688 4.386719-1.265626 6.464844-.269531-1.746094-.621093-3.484375-1.0625-5.195313-3.378906-13.074218-10.550781-19.339843-16.023437-13.992187s-7.167969 20.277344-3.792969 33.351563c.441406 1.710937.949219 3.300781 1.507813 4.765624-1.058594-.71875-2.199219-1.359374-3.421875-1.894531-9.355469-4.109375-19.746094-.90625-23.210938 7.152344-3.460937 8.054687 1.3125 17.917969 10.667969 22.023437 1.222656.535157 2.464844.941407 3.707031 1.234376-1.441406.585937-2.941406 1.296874-4.476562 2.136718-11.761719 6.429688-21.402344 17.878906-21.53125 25.566406-.132813 7.691407 9.296875 8.714844 21.054687 2.285157 1.539063-.84375 3.039063-1.769531 4.488281-2.761719-1.277343 1.667969-2.554687 3.453125-3.820312 5.351562-9.671875 14.507813-14.878906 29.828126-11.628906 34.210938 3.25 4.386719 13.726562-3.820312 23.402344-18.328125 1.261718-1.898437 2.445312-3.808594 3.550781-5.707031-.621094 2.113281-1.195313 4.292968-1.703125 6.523437-3.890625 17.046875-2.675782 30.386719 2.714844 29.792969 5.394531-.59375 12.917968-14.894531 16.808593-31.941406.507813-2.226563.925781-4.386719 1.261719-6.460938.269531 1.742188.625 3.484375 1.0625 5.191406 3.378906 13.074219 10.554688 19.339844 16.023438 13.992188 5.472656-5.347656 7.171874-20.277344 3.792968-33.351562-.441406-1.710938-.949218-3.300782-1.507812-4.765626 1.058594.71875 2.203125 1.359376 3.425781 1.894532 9.355469 4.109375 19.746094.90625 23.207031-7.152344 3.464844-8.054688-1.3125-17.917969-10.667968-22.023438-1.222657-.535156-2.464844-.941406-3.703126-1.234374 1.441407-.585938 2.9375-1.296876 4.476563-2.136719 11.757813-6.429688 21.398437-17.878907 21.527344-25.566407zm0 0" fill="#e8c725"/><path d="m436.089844 133.828125c-1.460938.210937-2.910156.53125-4.328125.949219 1.417969-1.226563 2.867187-2.578125 4.328125-4.054688 11.1875-11.304687 18.824218-25.515625 17.0625-31.738281-1.765625-6.226563-12.265625-2.105469-23.453125 9.199219-1.464844 1.476562-2.863281 3.003906-4.191407 4.558594.972657-2.003907 1.917969-4.101563 2.824219-6.28125 6.914063-16.683594 8.773438-31.671876 4.148438-33.480469-4.621094-1.808594-13.96875 10.25-20.882813 26.929687-.90625 2.179688-1.71875 4.328125-2.445312 6.425782.148437-2.015626.230468-4.058594.230468-6.109376 0-15.683593-4.628906-25.726562-10.34375-22.429687-5.710937 3.300781-10.339843 18.6875-10.339843 34.371094 0 2.050781.078125 4 .230469 5.84375-.730469-1.257813-1.542969-2.46875-2.445313-3.609375-6.914063-8.695313-16.269531-9.953125-20.890625-2.808594s-2.761719 19.988281 4.152344 28.683594c.90625 1.136718 1.851562 2.140625 2.824218 3.019531-1.328124-.019531-2.730468.070313-4.195312.28125-11.183594 1.609375-21.683594 9.617187-23.449219 17.878906-1.765625 8.265625 5.871094 13.65625 17.058594 12.042969 1.460937-.210938 2.910156-.53125 4.328125-.945312-1.421875 1.222656-2.867188 2.574218-4.328125 4.050781-11.1875 11.304687-18.828125 25.515625-17.0625 31.742187 1.765625 6.222656 12.265625 2.105469 23.453125-9.203125 1.464844-1.476562 2.863281-3.003906 4.191406-4.558593-.972656 2.003906-1.917968 4.101562-2.824218 6.285156-6.914063 16.679687-8.773438 31.667968-4.152344 33.476562s13.976562-10.246094 20.890625-26.929687c.902343-2.179688 1.714843-4.328125 2.441406-6.425781-.148437 2.015624-.230469 4.058593-.230469 6.109374 0 15.683594 4.632813 25.726563 10.34375 22.429688 5.710938-3.300781 10.34375-18.6875 10.34375-34.371094 0-2.050781-.082031-4.003906-.230468-5.84375.726562 1.257813 1.539062 2.46875 2.445312 3.609375 6.914062 8.695313 16.265625 9.953125 20.886719 2.808594 4.621093-7.144531 2.761719-19.988281-4.152344-28.683594-.902344-1.136719-1.851563-2.140625-2.824219-3.019531 1.332032.019531 2.730469-.070312 4.195313-.28125 11.1875-1.613281 21.6875-9.617188 23.453125-17.882812 1.761718-8.257813-5.875-13.652344-17.0625-12.039063zm0 0" fill="#ffe14d"/><path d="m429.398438 138.554688c0 20.144531-12.25 43.546874-27.359376 52.269531-15.109374 8.726562-27.355468-.535157-27.355468-20.679688s12.246094-43.550781 27.355468-52.273437c15.109376-8.722656 27.359376.535156 27.359376 20.683594zm0 0" fill="#ff7e27"/><path d="m425.054688 143.949219c0 13.265625-8.066407 28.675781-18.015626 34.417969-9.949218 5.742187-18.011718-.351563-18.011718-13.617188s8.0625-28.675781 18.011718-34.417969c9.949219-5.746093 18.015626.351563 18.015626 13.617188zm0 0" fill="#b2260b"/></svg>