<svg height="511pt" viewBox="-107 1 511 511.99965" width="511pt" xmlns="http://www.w3.org/2000/svg"><path d="m.5 444.824219 116.351562 67.175781 181.234376-104.023438-58.171876-351.3125-181.238281 104.019532zm0 0" fill="#f8db8f"/><path d="m58.675781 160.683594-58.175781 284.140625 116.351562 67.175781zm0 0" fill="#f7bd69"/><path d="m.5 444.824219h58.175781l58.175781 67.175781zm0 0" fill="#f79669"/><path d="m58.675781 444.824219v-284.140625l-58.175781 284.140625zm0 0" fill="#f8db8f"/><path d="m58.675781 125.050781v35.632813l181.238281-104.019532v-32.105468c0-18.875-20.433593-30.675782-36.785156-21.238282l-111.261718 64.238282c-20.539063 11.859375-33.191407 33.773437-33.191407 57.492187zm94.433594-39.0625c-6.046875 3.496094-10.953125-.214843-10.953125-8.277343 0-8.066407 4.90625-17.4375 10.953125-20.929688 6.050781-3.492188 10.953125.214844 10.953125 8.28125 0 8.0625-4.902344 17.433594-10.953125 20.925781zm0 0" fill="#fff5ae"/><path d="m94.242188 375.480469 181.144531-104.585938-17.867188-107.894531-181.144531 104.582031zm0 0" fill="#a2bf26"/><path d="m202.300781 217.347656c-19.859375 4.351563-36.925781 18.863282-43.546875 39.621094-6.625 20.761719-1.117187 42.476562 12.546875 57.523438 19.859375-4.351563 36.925781-18.863282 43.550781-39.621094 6.621094-20.761719 1.117188-42.472656-12.550781-57.523438zm0 0" fill="#1b6d40"/></svg>