<svg height="512pt" viewBox="0 -29 512.00024 512" width="512pt" xmlns="http://www.w3.org/2000/svg"><path d="m511.867188 186.910156c-1.605469-11.546875-24.3125-13.21875-34.921876-13.363281.613282-2.898437.964844-5.894531.964844-8.976563 0-23.941406-19.410156-43.351562-43.355468-43.351562-3.691407 0-7.253907.515625-10.675782 1.386719.230469-2.042969.386719-4.109375.386719-6.21875 0-30.273438-24.542969-54.8125-54.816406-54.8125-11.148438 0-21.515625 3.335937-30.171875 9.058593-1.453125-28.980468-25.410156-52.027343-54.746094-52.027343-10.828125 0-20.910156 3.152343-29.414062 8.570312-9.511719-16.253906-27.136719-27.175781-47.328126-27.175781-16.46875 0-31.234374 7.273438-41.28125 18.773438-9.378906-7.511719-21.277343-12.015626-34.230468-12.015626-27.03125 0-49.472656 19.570313-53.976563 45.3125-.28125-.003906-.558593-.023437-.839843-.023437-.347657 0-.6875.019531-1.03125.027344-10.097657-6.605469-25.097657-14.734375-31.328126-9.476563-4.195312 3.542969-3.09375 11.933594-.476562 20.371094-13.34375 10-21.980469 25.9375-21.980469 43.894531 0 4.667969.585938 9.195313 1.683594 13.519531-14.671875 9.835938-24.328125 26.566407-24.328125 45.554688 0 16.628906 7.414062 31.519531 19.109375 41.574219.007813.042969.015625.085937.023437.128906-4.957031 8.238281-7.8125 17.886719-7.8125 28.207031 0 26.246094 18.453126 48.167969 43.085938 53.542969.140625.191406.285156.382813.425781.574219-.003906.234375-.015625.464844-.015625.699218 0 12.746094 4.363282 24.464844 11.660156 33.777344l9.132813 36.433594c.699219 2.582031 2.644531 4.984375 5.925781 6.878906 9.246094 5.335938 25.394532 4.667969 36.070313-1.496094 4.257812-2.457031 6.980469-5.417968 8.152343-8.429687 10.046876 12.40625 25.375 20.359375 42.582032 20.359375 1.742187 0 3.460937-.089844 5.160156-.25 9.269531 17.128906 27.394531 28.765625 48.238281 28.765625 5.28125 0 10.382813-.761719 15.214844-2.15625.339844.085937.679687.171875 1.019531.253906 8.054688 7.984375 18.597656 13.421875 30.335938 15.199219l5.667968 22.605469c.699219 2.578125 2.644532 4.984375 5.925782 6.878906 9.246094 5.335937 25.394531 4.667969 36.070312-1.496094 4.839844-2.792969 7.699219-6.234375 8.546875-9.664062h.015625l5.75-23.554688c14.753906-.476562 28.03125-6.777343 37.609375-16.6875 4.890625 1.429688 10.054688 2.210938 15.410157 2.210938 14.570312 0 27.800781-5.691407 37.617187-14.964844 4.300781-.8125 8.457031-2.238281 12.003906-4.285156 4.835938-2.792969 7.699219-6.238281 8.546875-9.664063h.015625l3.800781-15.574218c-.015624.007812-.035156.011718-.050781.019531 17.617188-7.300781 30.582031-23.523438 33.292969-43.03125 1.808594-2.609375 3.417969-5.253907 4.757812-7.9375 9.199219-18.398438 13.023438-39.1875 10.914063-54.640625 8.019531-7.867188 13.003906-18.8125 13.003906-30.933594 0-7.71875-2.042969-14.949219-5.582031-21.222656 5.699219-.734375 11.320312-3.367188 10.242188-11.148438zm0 0" fill="#f8db8f"/><g fill="#2b5d99"><path d="m511.867188 186.910156c-1.605469-11.546875-24.3125-13.21875-34.921876-13.363281-.296874 1.390625-.632812 2.769531-1.054687 4.109375 11.015625 3.179688 20.214844 10.617188 25.734375 20.402344 5.699219-.734375 11.320312-3.367188 10.242188-11.148438zm0 0"/><path d="m76.425781 52.074219c-10.09375-6.605469-25.09375-14.734375-31.324219-9.476563-4.195312 3.542969-3.09375 11.933594-.476562 20.371094 8.894531-6.664062 19.886719-10.671875 31.800781-10.894531zm0 0"/><path d="m328.488281 414.8125c-7.277343 0-14.214843-1.429688-20.566406-4-8.886719 6.214844-19.695313 9.871094-31.367187 9.871094-2.808594 0-5.546876-.277344-8.246094-.683594l5.667968 22.601562c.695313 2.582032 2.640626 4.984376 5.925782 6.878907 9.246094 5.339843 25.394531 4.667969 36.070312-1.492188 4.835938-2.796875 7.699219-6.238281 8.546875-9.664062h.015625l5.746094-23.554688c-.59375.019531-1.191406.042969-1.792969.042969zm0 0"/><path d="m436.523438 358.605469c-2.554688 10.386719-8.074219 19.605469-15.605469 26.71875 4.300781-.8125 8.457031-2.234375 12.007812-4.285157 4.835938-2.792968 7.699219-6.234374 8.542969-9.664062h.019531l3.800781-15.574219c-2.8125 1.167969-5.738281 2.113281-8.765624 2.804688zm0 0"/><path d="m118.183594 345.484375-.945313-.546875c-2.484375.347656-5.023437.539062-7.605469.539062-17.527343 0-33.121093-8.238281-43.15625-21.039062l9.132813 36.4375c.699219 2.578125 2.644531 4.980469 5.925781 6.878906 9.246094 5.335938 25.394532 4.667969 36.070313-1.496094 4.257812-2.457031 6.980469-5.417968 8.152343-8.429687-3.03125-3.746094-5.601562-7.878906-7.574218-12.34375zm0 0"/></g><path d="m507.207031 219.28125c0-19.761719-13.238281-36.402344-31.316406-41.625 1.304687-4.128906 2.019531-8.523438 2.019531-13.085938 0-23.941406-19.410156-43.351562-43.355468-43.351562-6.054688 0-11.820313 1.25-17.054688 3.496094-7.691406-12.105469-21.183594-20.164063-36.589844-20.164063-21.230468 0-38.867187 15.273438-42.59375 35.429688-3.878906-1.140625-7.972656-1.777344-12.21875-1.777344-23.945312 0-43.355468 19.410156-43.355468 43.351563 0 6.257812 1.355468 12.191406 3.738281 17.5625-.042969.089843-.089844.175781-.132813.265624-18.277344 5.09375-31.703125 21.820313-31.703125 41.722657 0 18.269531 11.320313 33.867187 27.3125 40.25.019531.035156.039063.074219.054688.105469-8.800781 7.933593-14.367188 19.390624-14.367188 32.171874 0 23.945313 19.410157 43.355469 43.351563 43.355469 2.984375 0 5.894531-.304687 8.707031-.878906 10.605469 5.949219 24.515625 9.765625 42.8125 9.757813 51.59375-.011719 104.417969-28.304688 120.769531-61.015626 9.203125-18.402343 13.027344-39.191406 10.917969-54.640624 8.019531-7.867188 13.003906-18.8125 13.003906-30.929688zm0 0" fill="#fff5ae"/><path d="m478.257812 227.484375s-.023437-19.601563-6.375-41.796875c-6.996093-12.929688-17.628906-22.09375-31.996093-19.21875-28.308594 5.660156-75.484375 27.675781-91.839844 57.871094-16.355469 30.191406-8.175781 66.675781-8.175781 66.675781s-30.730469 45.382813 8.796875 73.824219c4.242187.769531 8.839843 1.152344 13.847656 1.027344 51.578125-1.257813 104.417969-28.304688 120.773437-61.015626 16.351563-32.707031 15.726563-72.964843-5.03125-77.367187zm0 0" fill="#2b5d99"/><path d="m458.421875 222.085938c0 6.273437-3.8125 13.558593-8.515625 16.277343-4.707031 2.714844-8.519531-.167969-8.519531-6.441406 0-6.269531 3.8125-13.558594 8.519531-16.273437 4.703125-2.714844 8.515625.167968 8.515625 6.4375zm0 0" fill="#162f4d"/><path d="m381.871094 265.363281c0 6.273438-3.816406 13.558594-8.519532 16.277344-4.703124 2.714844-8.515624-.167969-8.515624-6.441406 0-6.269531 3.8125-13.558594 8.515624-16.273438 4.703126-2.71875 8.519532.164063 8.519532 6.4375zm0 0" fill="#162f4d"/><path d="m326.097656 286.820312s-3.75-9.019531-11.074218-13.730468c-7.324219-4.710938-17.578126-2.808594-17.578126-2.808594s-13.015624 19.789062-14.703124 33 .828124 17.535156 7.746093 20.089844c6.921875 2.554687 32.210938-18.726563 35.609375-36.550782zm0 0" fill="#2b5d99"/><path d="m446.363281 271.894531c-1.871093-.894531-4.132812-.09375-5.023437 1.789063l-8.886719 18.691406-16.242187-3.777344c-2.035157-.472656-4.0625.792969-4.53125 2.820313-.472657 2.03125.789062 4.058593 2.820312 4.53125l17.769531 4.136719c1.570313 2.609374 5.578125 10.875 5.34375 27.039062-.027343 2.085938 1.636719 3.800781 3.722657 3.828125.019531.003906.035156.003906.054687.003906 2.058594 0 3.742187-1.65625 3.773437-3.722656.246094-17.253906-3.980468-26.851563-6.289062-30.792969l9.277344-19.515625c.894531-1.882812.097656-4.132812-1.789063-5.03125zm0 0" fill="#162f4d"/></svg>