<svg height="511pt" viewBox="0 -40 511.99903 511" width="511pt" xmlns="http://www.w3.org/2000/svg"><path d="m448.8125 240.25c0-70.03125-37.363281-134.746094-98.011719-169.761719l-73.585937-42.484375c-63.519532-36.671875-141.777344-36.671875-205.292969 0-3.59375 2.074219-7.0625 4.304688-10.429687 6.65625-9.953126-6.683594-26.054688-15.863281-32.542969-10.382812-6.816407 5.757812.457031 24.445312 5.386719 35.054687 0-.003906 0-.003906.003906-.003906-21.824219 25.632813-34.339844 58.542969-34.339844 93.246094 0 45.273437 15.609375 88.3125 43 122.582031 0-.003906 0-.003906 0-.003906.003906.003906.003906.007812.007812.007812l16.179688 64.535156c.691406 2.558594 2.617188 4.941407 5.871094 6.816407 9.164062 5.292969 25.167968 4.628906 35.746094-1.480469 4.796874-2.769531 7.632812-6.179688 8.46875-9.578125h.015624l1.378907-5.644531 53.589843 30.941406c26.042969 15.035156 54.453126 24.15625 83.371094 27.417969-.003906 0-.007812 0-.011718 0l8.15625 32.527343c.691406 2.554688 2.617187 4.9375 5.871093 6.816407 9.164063 5.289062 25.167969 4.625 35.746094-1.480469 4.796875-2.769531 7.628906-6.183594 8.46875-9.578125h.019531l7.558594-30.980469c22.375-4.417968 44.199219-12.449218 64.605469-24.054687 9.230469 4.996093 24.855469 4.265625 35.253906-1.738281 4.792969-2.765626 7.628906-6.179688 8.46875-9.574219l.015625-.003907 10.988281-45.011718s0 0 0-.003906c10.359375-19.664063 16.042969-41.84375 16.042969-64.835938zm0 0" fill="#d6e5e5"/><g fill="#2b5d99"><path d="m196.441406 1.691406c-42.558594-4.558594-86.21875 4.199219-124.519531 26.3125-3.59375 2.074219-7.0625 4.304688-10.429687 6.65625-9.953126-6.683594-26.054688-15.863281-32.542969-10.382812-6.816407 5.757812.457031 24.445312 5.386719 35.054687-21.820313 25.632813-34.335938 58.539063-34.335938 93.242188 0 11.628906 1.050781 23.105469 3.042969 34.332031 30.222656 7.679688 49.171875-21.4375 73.792969-25.03125 32.585937-4.757812 59.671874 38.304688 120.898437 0 48.628906-30.425781 14.71875-123.269531-1.292969-160.183594zm0 0"/><path d="m141.117188 225.445312s-15.84375-3.304687-22.222657 6.605469c-6.378906 9.910157 2.933594 41.097657 28.515625 47.386719 25.578125 6.289062 39.835938-3.773438 42.773438-19.289062 2.933594-15.515626-26.839844-32.917969-49.066406-34.703126zm0 0"/><path d="m350.800781 70.488281-73.585937-42.484375c-9.066406-5.234375-18.4375-9.695312-28.015625-13.433594 2.902343 18.53125 10.710937 42.75 31.328125 55.609376 23.453125 14.632812 54.144531 8.253906 72.941406 1.910156-.890625-.535156-1.769531-1.082032-2.667969-1.601563zm0 0"/></g><path d="m480.796875 198.921875s-2.289063-7.292969-6.847656-16.59375c11.90625-1.972656 28.910156-6.050781 27.816406-13.179687-1.273437-8.269532-28.328125-8.578126-41.34375-8.246094-8.027344-9.65625-18.429687-17.441406-31.207031-17.753906-34.386719-.839844-73.386719 17.613281-99.804688 46.96875-26.421875 29.351562-27.886718 81.773437-27.886718 81.773437s-15.726563 32.078125-9.4375 49.0625c6.289062 16.984375 36.484374 42.773437 95.460937 34.601563 58.972656-8.175782 119.667969-41.519532 124.070313-89.957032 4.40625-48.433594-30.820313-66.675781-30.820313-66.675781zm0 0" fill="#e4f2f1"/><path d="m400.933594 146.5c-26.085938 6.511719-52.175782 22.117188-71.523438 43.617188-7.785156 8.644531-13.386718 19.296874-17.441406 30.019531-11.914062 8.023437-46.234375 32.289062-44.414062 44.519531 1.492187 10.023438 21.921874 1.972656 34.925781-4.253906-.828125 7.023437-.957031 11.488281-.957031 11.488281s-1.324219 2.707031-3.050782 6.949219c16.871094 2.71875 61.699219 6.613281 89.855469-22.046875 27.828125-28.324219 17.976563-86.914063 12.605469-110.292969zm0 0" fill="#2b5d99"/><path d="m448.46875 337.75c19.796875-9.285156 34.347656-27.460938 38.195312-48.984375.496094-2.761719.796876-5.46875.84375-8.058594.417969-22.65625-10.066406-58.300781-47.386718-46.558593-37.324219 11.742187-68.691406 43.953124-62.078125 86.804687 1.625 10.535156 9.652343 17.058594 20.832031 20.902344 14.9375 5.132812 31.347656 4.011719 45.796875-2.378907 1.273437-.5625 2.542969-1.140624 3.796875-1.726562zm0 0" fill="#f7bd69"/><path d="m373.238281 234.347656c0 6.460938-3.925781 13.96875-8.773437 16.769532-4.847656 2.796874-8.777344-.171876-8.777344-6.636719 0-6.460938 3.929688-13.96875 8.777344-16.765625s8.773437.171875 8.773437 6.632812zm0 0" fill="#162f4d"/><path d="m455.851562 200.851562c0 6.460938-3.929687 13.96875-8.777343 16.765626-4.84375 2.796874-8.773438-.171876-8.773438-6.632813s3.929688-13.96875 8.773438-16.769531c4.847656-2.796875 8.777343.171875 8.777343 6.636718zm0 0" fill="#162f4d"/><path d="m444.910156 251.625c-1.925781-.792969-4.132812.125-4.925781 2.054688l-3.867187 9.402343-10.410157-3.1875c-1.988281-.613281-4.101562.507813-4.710937 2.503907-.613282 1.992187.511718 4.101562 2.503906 4.710937l11.636719 3.5625c1.371093 6.097656 5.105469 25.902344 2.078125 49.804687-.261719 2.070313 1.203125 3.957032 3.269531 4.222657.160156.019531.320313.027343.480469.027343 1.871094 0 3.496094-1.390624 3.738281-3.296874 3.375-26.636719-1.144531-48.097657-2.4375-53.453126l4.699219-11.425781c.792968-1.929687-.128906-4.132812-2.054688-4.925781zm0 0" fill="#162f4d"/><path d="m339.273438 196.441406c1.117187-4.910156-1.269532-9.941406-5.792969-12.148437-12.03125-5.871094-34.253907-15.65625-36.992188-9.273438-2.679687 6.253907 11.148438 22.988281 19.378907 32.15625 3.320312 3.695313 8.710937 4.683594 13.113281 2.382813l.296875-.152344c5.070312-2.652344 8.722656-7.390625 9.996094-12.964844zm0 0" fill="#f7bd69"/><path d="m421.039062 152.5c-2.582031-1.917969-3.429687-5.398438-2.003906-8.28125 5.519532-11.175781 19.253906-36.957031 27.164063-33.992188 7.71875 2.898438 3.597656 32.429688 1.257812 46.039063-.640625 3.726563-4.246093 6.164063-7.945312 5.378906-5.695313-1.210937-11.058594-3.636719-15.730469-7.105469zm0 0" fill="#f7bd69"/></svg>