<svg height="512pt" viewBox="-51 0 512 512.00016" width="512pt" xmlns="http://www.w3.org/2000/svg"><path d="m70.644531 150.265625s-13.652343-20.480469-24.152343-17.328125c-10.503907 3.148438-57.5 57.5-44.113282 165.410156 13.390625 107.914063 78.242188 185.367188 172.765625 207.421875 94.523438 22.054688 210.835938-16.015625 227.375-89.269531 16.542969-73.253906-.785156-134.695312-7.089843-163.835938-6.300782-29.144531-29.929688-174.078124-91.367188-173.289062-61.441406.785156-81.917969 61.4375-81.917969 61.4375s-56.453125-22.054688-151.5 9.453125zm0 0" fill="#d6e5e5"/><path d="m303.355469 353.832031c50.765625-1.285156 85.761719-14.503906 103.566406-41.105469-3.175781-25.699218-8.542969-46.421874-11.492187-60.0625-6.300782-29.144531-29.929688-174.078124-91.371094-173.289062-61.4375.785156-81.917969 61.4375-81.917969 61.4375s-39.644531 72.992188-41.746094 108.699219c-2.101562 35.707031 39.992188 106.421875 122.960938 104.320312zm0 0" fill="#ff7e27"/><path d="m369.960938 189.648438s22.054687 26.519531 19.429687 49.097656c-2.625 22.582031-15.488281 17.855468-21.003906 15.230468-5.515625-2.628906-8.140625-6.300781-8.140625-6.300781s-3.410156 20.214844-16.277344 22.054688c-12.867188 1.835937-18.679688-24.945313-17.085938-43.324219s7.632813-33.34375 7.632813-33.34375zm0 0" fill="#ff491f"/><path d="m381.699219 194.851562c1.753906-.339843 2.542969-2.390624 1.457031-3.8125-5.460938-7.152343-19.3125-24.34375-26.585938-24.757812-9.1875-.523438-29.144531 4.464844-29.667968 16.539062-.523438 12.078126 9.976562 16.804688 19.429687 17.066407 7.378907.207031 27.078125-3.429688 35.367188-5.035157zm0 0" fill="#ffe14d"/><path d="m340.03125 127.683594s6.300781-44.632813 3.152344-70.363282c-3.152344-25.730468-21.53125-62.488281-38.335938-56.714843-16.800781 5.777343-11.222656 41.484375-11.222656 41.484375s-57.566406-16.277344-61.242188 12.601562c-3.675781 28.882813 20.644532 42.921875 20.644532 42.921875s22.941406-16.140625 44.472656-8.261719c21.527344 7.875 42.53125 38.332032 42.53125 38.332032zm0 0" fill="#ff491f"/><path d="m302.746094 159.191406c0 6.960938-5.640625 12.605469-12.601563 12.605469-6.960937 0-12.601562-5.644531-12.601562-12.605469 0-6.960937 5.640625-12.601562 12.601562-12.601562 6.960938 0 12.601563 5.640625 12.601563 12.601562zm0 0" fill="#162f4d"/><path d="m37.039062 244.785156s134.308594 2.984375 184.519532 81.835938c50.207031 78.851562 47.058594 115.085937-28.558594 117.445312-75.617188 2.363282-135.484375-70.101562-155.960938-199.28125zm0 0" fill="#e4f2f1"/></svg>