<svg height="512pt" viewBox="-36 0 512 512.0009" width="512pt" xmlns="http://www.w3.org/2000/svg"><path d="m320.503906 149.207031s53.539063 16.953125 75.847656-8.921875c22.304688-25.875 8.496094-107.304687-37.921874-130.273437-43.277344-21.417969-92.128907-9.371094-105.515626 44.835937-13.382812 54.207032-13.382812 154.589844-13.382812 154.589844s-48.855469-29.445312-98.375-24.984375c-49.523438 4.460937-79.859375 10.710937-79.859375 10.710937s-9.816406-18.292968-20.523437-14.722656c-10.707032 3.566406-63.578126 62.460938-29.445313 185.59375 34.128906 123.136719 123.804687 143.882813 196.75 145.890625 72.945313 2.007813 137.191406-36.804687 142.542969-97.707031 5.351562-60.898438-30.117188-265.011719-30.117188-265.011719zm0 0" fill="#d6e5e5"/><path d="m34.75 279.707031s92.351562 2.007813 143.878906 53.539063c51.53125 51.527344 53.539063 105.066406 16.0625 121.128906-37.476562 16.058594-109.75-27.441406-131.167968-70.269531-21.414063-42.828125-28.773438-104.398438-28.773438-104.398438zm0 0" fill="#e4f2f1"/><path d="m407.027344 108.738281s-9.226563 12.695313-19.601563 16.042969c-10.371093 3.347656-34.796875-6.023438-37.808593-1.671875-3.011719 4.351563.335937 22.804687 10.707031 31.476563 10.371093 8.675781 40.445312 33.835937 47.117187 35.347656 12.214844 2.773437 33.675782-10.570313 32.183594-17.972656-1.800781-8.953126-22.082031-32.789063-27.4375-45.503907-5.351562-12.714843-5.160156-17.71875-5.160156-17.71875zm0 0" fill="#ff8e1d"/><path d="m335.699219 96.855469c0 6.308593-5.117188 11.425781-11.429688 11.425781s-11.429687-5.117188-11.429687-11.425781c0-6.3125 5.117187-11.429688 11.429687-11.429688s11.429688 5.117188 11.429688 11.429688zm0 0" fill="#162f4d"/></svg>