<svg height="512pt" viewBox="0 -41 512.00002 512" width="512pt" xmlns="http://www.w3.org/2000/svg"><path d="m448.8125 239.75c0-70.03125-37.363281-134.742188-98.011719-169.761719l-73.585937-42.484375c-63.519532-36.671875-141.777344-36.671875-205.292969 0-3.59375 2.074219-7.0625 4.304688-10.429687 6.65625-9.953126-6.683594-26.054688-15.859375-32.542969-10.382812-6.816407 5.757812.457031 24.445312 5.386719 35.054687 0-.003906 0-.003906.003906-.003906-21.824219 25.632813-34.339844 58.542969-34.339844 93.246094 0 45.273437 15.609375 88.3125 43 122.582031v-.003906l.007812.007812 16.179688 64.535156c.691406 2.558594 2.617188 4.941407 5.871094 6.816407 9.164062 5.292969 25.167968 4.628906 35.746094-1.480469 4.796874-2.769531 7.632812-6.179688 8.46875-9.578125h.015624l1.378907-5.644531 53.589843 30.941406c26.042969 15.035156 54.453126 24.152344 83.371094 27.417969-.003906 0-.007812-.003907-.011718-.003907l8.15625 32.527344c.691406 2.558594 2.617187 4.941406 5.871093 6.820313 9.164063 5.289062 25.167969 4.625 35.746094-1.484375 4.796875-2.765625 7.628906-6.179688 8.46875-9.574219h.019531l7.558594-30.980469c22.375-4.417968 44.199219-12.449218 64.605469-24.058594 9.230469 5 24.855469 4.269532 35.253906-1.734374 4.792969-2.769532 7.628906-6.179688 8.46875-9.574219l.015625-.003907 10.988281-45.011718s0 0 0-.003906c10.359375-19.664063 16.042969-41.84375 16.042969-64.835938zm0 0" fill="#bd4b1e"/><path d="m480.796875 198.421875s-2.289063-7.292969-6.847656-16.59375c11.90625-1.972656 28.910156-6.050781 27.816406-13.179687-1.273437-8.265626-28.328125-8.578126-41.339844-8.246094-8.03125-9.65625-18.53125-16.140625-31.210937-17.753906-32.515625-4.140626-103.980469 15.148437-117.242188 76.976562 0 .003906-.003906.007812-.003906.011719-11.917969 8.023437-46.234375 32.289062-44.414062 44.519531 1.492187 10.023438 21.921874 1.972656 34.925781-4.253906 0 .011718-.003907.019531-.003907.03125-.710937 6.046875-.90625 10.167968-.945312 11.183594 0 .023437 0 .050781-.003906.074218 0 .058594 0 .082032-.003906.113282v.085937s-15.726563 32.082031-9.4375 49.0625c6.292968 16.984375 36.484374 42.777344 95.460937 34.601563 58.972656-8.171876 119.667969-41.519532 124.070313-89.953126 4.40625-48.4375-30.820313-66.679687-30.820313-66.679687zm0 0" fill="#ef5f26"/><path d="m448.46875 337.25c19.796875-9.28125 34.347656-27.460938 38.195312-48.984375.496094-2.761719.796876-5.46875.84375-8.058594.417969-22.65625-10.066406-58.300781-47.386718-46.558593-37.324219 11.742187-68.691406 43.953124-62.078125 86.804687 1.625 10.535156 9.652343 17.058594 20.832031 20.902344 14.9375 5.132812 31.347656 4.007812 45.796875-2.378907 1.273437-.5625 2.542969-1.136718 3.796875-1.726562zm0 0" fill="#f7bd69"/><g fill="#162f4d"><path d="m373.238281 233.847656c0 6.464844-3.925781 13.96875-8.773437 16.769532-4.847656 2.796874-8.777344-.171876-8.777344-6.632813 0-6.464844 3.929688-13.96875 8.777344-16.769531 4.847656-2.796875 8.773437.171875 8.773437 6.632812zm0 0"/><path d="m455.851562 200.351562c0 6.460938-3.925781 13.96875-8.773437 16.765626-4.847656 2.796874-8.777344-.171876-8.777344-6.632813s3.929688-13.96875 8.777344-16.769531c4.847656-2.796875 8.773437.171875 8.773437 6.636718zm0 0"/><path d="m444.910156 251.125c-1.925781-.792969-4.132812.128906-4.925781 2.054688l-3.867187 9.402343-10.410157-3.1875c-1.988281-.613281-4.101562.507813-4.710937 2.503907-.613282 1.992187.511718 4.101562 2.503906 4.714843l11.636719 3.5625c1.371093 6.09375 5.105469 25.898438 2.078125 49.804688-.265625 2.066406 1.199218 3.957031 3.269531 4.21875.160156.019531.320313.03125.480469.03125 1.871094 0 3.496094-1.394531 3.738281-3.300781 3.375-26.636719-1.144531-48.097657-2.4375-53.449219l4.699219-11.429688c.792968-1.929687-.128906-4.132812-2.054688-4.925781zm0 0"/></g><path d="m341.398438 185.300781c-2.097657-3.851562-6.5625-5.746093-10.839844-4.78125-9.886719 2.226563-30.464844 5.105469-47.636719-4.015625-6.316406-3.359375-11.207031-8.222656-14.976563-13.542968-4.203124-5.933594-13.546874-1.960938-12.210937 5.1875 2.496094 13.355468 8.460937 26.984374 21.546875 34.722656 35.132812 20.777344 54.644531 10.460937 54.644531 10.460937s17.734375-12.839843 9.472657-28.03125zm0 0" fill="#f7bd69"/><path d="m444.476562 162.863281s-18.746093 7.238281-23.675781-10.183593c-4.261719-15.050782 18.160157-16.488282 26.988281-35.621094 4.769532-10.324219 5.980469-28.46875 6.085938-42.980469.042969-5.609375 7.710938-7.136719 9.933594-1.984375 10.808594 25.097656 20.929687 67.527344-19.332032 90.769531" fill="#f7bd69"/></svg>