<svg height="512pt" viewBox="-74 0 512 512.00121" width="512pt" xmlns="http://www.w3.org/2000/svg"><path d="m334.019531 265.445312-63.601562-48.082031-3.253907-29.109375-4.699218-32.421875 71.550781-136.714843 1.21875-2.324219c2.9375-5.613281 2.9375-11.960938 0-14.183594l-2.433594-1.839844c-2.9375-2.21875-7.699219.527344-10.636719 6.140625l-63.222656 120.796875-108.273437-114.015625-137.199219 155.851563 20.480469 30.402343-26.085938 235.527344 134.6875 76.527344 150.921875-88.367188-8.742187-78.214843 36.21875-54.996094c3.609375 2.726563 9.460937-.652344 13.070312-7.546875 3.605469-6.898438 3.605469-14.699219 0-17.429688zm0 0" fill="#bf0025"/><path d="m142.550781 260.195312v251.804688l150.921875-88.367188-26.308594-235.378906zm0 0" fill="#ea2642"/><path d="m265.992188 439.726562-8.824219-78.925781-2.21875-19.871093-17.316407 9.996093-38.53125 22.246094-6.539062 3.773437v105.773438zm-60.351563-55.226562 38.53125-22.246094 9.460937 84.636719-47.992187 28.097656zm0 0" fill="#e6e6e6"/><path d="m140.429688 242.84375 147.160156-84.964844-136.921875-144.1875-137.199219 155.851563zm0 0" fill="#f06c00"/><path d="m287.589844 157.878906-136.921875-144.1875-9.828125 228.914063zm0 0" fill="#ff8e1d"/><path d="m140.429688 261.421875-136.40625-78.75c-3.847657-2.222656-5.164063-7.144531-2.945313-10.992187 2.222656-3.847657 7.144531-5.164063 10.992187-2.945313l128.359376 74.109375 148.835937-85.929688c3.847656-2.222656 8.769531-.902343 10.992187 2.945313 2.21875 3.847656.902344 8.765625-2.945312 10.988281zm0 0" fill="#e6e6e6"/><g fill="#fff5ae"><path d="m285.136719 194.890625-30.890625-23.351563 79.773437-152.421874 30.890625 23.355468zm0 0"/><path d="m123.136719 387.191406-30.890625-23.351562 79.773437-152.421875 30.890625 23.351562zm0 0"/><path d="m210.285156 289.136719 30.890625-59.023438 79.769531 60.308594-30.886718 59.019531zm0 0"/><path d="m136.207031 115.90625 30.890625-59.023438 79.773438 60.304688-30.890625 59.023438zm0 0"/></g><path d="m334.019531 265.445312-85.695312-64.78125c.707031-3.207031 1.101562-6.425781 1.101562-9.539062 0-3.117188-.390625-5.886719-1.101562-8.273438l86.914062-166.058593c2.9375-5.613281 2.9375-11.960938 0-14.183594l-2.4375-1.839844c-2.9375-2.21875-7.695312.527344-10.632812 6.140625l-86.914063 166.0625c-2.097656.261719-4.34375 1.039063-6.679687 2.386719-2.335938 1.351563-4.582031 3.167969-6.679688 5.324219l-85.695312-64.785156c-3.605469-2.726563-9.460938.652343-13.070313 7.546874-3.609375 6.898438-3.609375 14.699219 0 17.429688l85.695313 64.78125c-.710938 3.207031-1.097657 6.425781-1.097657 9.539062 0 3.117188.386719 5.886719 1.097657 8.273438l-86.914063 166.058594c-2.933594 5.613281-2.933594 11.960937 0 14.183594l2.4375 1.839843c2.9375 2.21875 7.699219-.527343 10.632813-6.140625l86.914062-166.058594c2.097657-.265624 4.339844-1.042968 6.679688-2.390624 2.335937-1.351563 4.582031-3.164063 6.675781-5.324219l85.695312 64.785156c3.609376 2.726563 9.460938-.652344 13.070313-7.546875 3.609375-6.898438 3.609375-14.699219.003906-17.429688zm0 0" fill="#f06c00"/><path d="m249.425781 197.941406c0 10.125-6.160156 21.890625-13.753906 26.277344-7.59375 4.382812-13.753906-.269531-13.753906-10.398438 0-10.125 6.160156-21.890624 13.753906-26.273437 7.59375-4.386719 13.753906.265625 13.753906 10.394531zm0 0" fill="#ff8e1d"/><path d="m205.640625 384.5 38.53125-22.246094 9.460937 84.636719-47.992187 28.097656zm0 0" fill="#bf0025"/><path d="m61.882812 308.3125 24.074219 14.828125 2.5-31.3125c.683594-8.59375-3.199219-16.539063-10.191406-20.84375-5.675781-3.5-13.472656.851563-14.03125 7.832031zm0 0" fill="#8f001c"/><path d="m48.308594 407.691406 24.074218 14.832032 2.496094-31.316407c.6875-8.589843-3.199218-16.535156-10.1875-20.84375-5.679687-3.496093-13.472656.855469-14.03125 7.835938zm0 0" fill="#8f001c"/></svg>