<svg height="511pt" viewBox="-13 0 511 511.99962" width="511pt" xmlns="http://www.w3.org/2000/svg"><path d="m18.679688 172.050781s63.675781 20.421875 91.308593-18.023437c27.632813-38.445313 64.875-183.332032 218.660157-148.734375 153.78125 34.597656 186.894531 282.859375 132.15625 384.214843-67.480469 124.949219-255.902344 153.78125-355.621094 88.90625-99.71875-64.878906-127.351563-225.867187-86.503906-306.363281zm0 0" fill="#ffe14d"/><path d="m205.761719 331.34375s-8.539063-55.570312-50.074219-71.226562c-41.53125-15.65625-96.089844-23.402344-108.839844-11.117188-12.75 12.289062-2.238281 88.6875 50.320313 102.304688 52.558593 13.613281 98.828125-3.132813 108.59375-19.960938zm0 0" fill="#ff8e1d"/><path d="m416.027344 208.253906s-28.308594-35.605468-36.71875-36.003906-23.628906 10.8125-26.03125 21.226562c-2.402344 10.410157 3.203125 20.824219 13.214844 22.824219 10.011718 2.003907 49.535156-8.046875 49.535156-8.046875zm0 0" fill="#ff8e1d"/><g fill="#162f4d"><path d="m318.234375 155.824219c0-9.0625-5.648437-16.414063-12.613281-16.414063-6.96875 0-12.617188 7.351563-12.617188 16.414063 0 9.066406 5.648438 16.414062 12.617188 16.414062 6.964844 0 12.613281-7.347656 12.613281-16.414062zm0 0"/><path d="m405.9375 122.996094c0-9.066406-5.648438-16.414063-12.613281-16.414063-6.96875 0-12.617188 7.347657-12.617188 16.414063s5.648438 16.414062 12.617188 16.414062c6.964843 0 12.613281-7.347656 12.613281-16.414062zm0 0"/></g></svg>