<svg height="512pt" viewBox="0 -24 512.00015 512" width="512pt" xmlns="http://www.w3.org/2000/svg"><path d="m490.308594 199.3125c-11.972656-15.195312-25.324219-24.867188-31.3125-46.507812-.949219-3.441407-2.042969-6.882813-3.292969-10.300782 24.824219 1.972656 40.589844-17.671875 40.589844-17.671875s-25.554688-10.359375-36.257813-14.15625c-10.613281-3.765625-34.625-12.664062-35.035156-12.816406-1.648438-1.367187-3.355469-2.699219-5.140625-3.992187-6.703125-4.847657-15.085937-6.722657-24.582031-6.199219l-58.023438-53.824219c-2.527344-2.273438-6.453125.164062-5.535156 3.4375l24.667969 62.144531c-6.292969 3.101563-12.714844 6.730469-19.175781 10.800781l-51.167969-50.058593c-2.523438-2.269531-6.453125.167969-5.535157 3.4375l8.917969 31.90625-105.121093-60.691407c-35.753907-20.644531-79.949219-21.742187-115.949219-1.539062-4.140625 2.324219-8.074219 4.910156-11.878907 7.636719-6.761718-4.507813-14.269531-10.335938-21.089843-17.5-7.085938-7.4375-12.058594-14.265625-15.496094-19.851563-3.320313-5.390625-11.414063-4.5-13.382813 1.515625-7.09375 21.714844-14.332031 59.566407 12.953126 77.308594-10.417969 18.675781-16.199219 39.949219-16.199219 62.070313v40.824218l19.40625 136.421875c.933593 7.675781 5.421875 14.464844 12.117187 18.328125 7.472656 4.316406 16.683594 4.316406 24.15625 0l5.476563-3.160156c8.699219-5.023438 14.453125-13.890625 15.503906-23.878906 2.019531-19.144532 6.960937-31.589844 22.085937-37.71875 11.457032-4.640625 30.753907-.574219 46.824219 4.476562 49.785157 24.378906 58.070313 49.171875 63.976563 66.402344 2.820312 32.046875 12.859375 116.460938 40.375 118.015625 39.191406 2.214844 38.691406-72.375 38.722656-110.128906 1.429688-.46875 47.738281-13.152344 58.214844-14.398438 2.261718 21.148438 8.765625 59.800781 26.152344 60.917969 23.347656 1.503906 29.433593-37.777344 30.152343-68.460938 51.078125 3.324219 88.371094-30.050781 100.917969-57.738281 13.355469-29.46875-5.0625-59.859375-17.035156-75.050781zm0 0" fill="#f8db8f"/><path d="m280.804688 179.050781s2.761718-30.386719 40.519531-58.015625c37.753906-27.625 76.894531-42.820312 98.535156-27.164062 21.640625 15.652344 33.152344 37.292968 39.136719 58.9375 5.988281 21.640625 19.339844 31.308594 31.3125 46.503906s30.386718 45.582031 17.035156 75.050781-54.742188 65.382813-110.941406 56.636719c-56.199219-8.75-80.144532-35.453125-89.351563-51.570312-9.210937-16.117188-29.929687-50.191407-26.246093-100.378907zm0 0" fill="#fff5ae"/><path d="m356.382812 99.421875c13.953126-6.867187 27.253907-11.121094 38.882813-11.761719l-58.011719-53.816406c-2.527344-2.269531-6.453125.164062-5.539062 3.4375zm0 0" fill="#2b5d99"/><path d="m301.550781 138.867188c5.195313-5.855469 11.675781-11.90625 19.773438-17.832032 5.285156-3.867187 10.597656-7.480468 15.886719-10.808594l-51.167969-50.054687c-2.523438-2.273437-6.453125.164063-5.535157 3.4375zm0 0" fill="#2b5d99"/><path d="m280.804688 179.050781s.105468-1.136719.542968-3.15625c-.003906.007813-23.566406 43.675781-30.933594 59.792969-7.367187 16.113281-12.890624 36.375-12.890624 36.375s36.1875-2.015625 51.824218-29.335938c-6-16.921874-10.410156-38.222656-8.542968-63.675781zm0 0" fill="#f7bd69"/><path d="m455.703125 142.503906c24.824219 1.972656 40.589844-17.671875 40.589844-17.671875s-25.554688-10.359375-36.257813-14.15625c-10.613281-3.765625-34.625-12.664062-35.035156-12.816406 15.171875 12.59375 24.738281 28.34375 30.703125 44.644531zm0 0" fill="#f7bd69"/><g fill="#162f4d"><path d="m371.628906 206.238281c0 6.078125-3.691406 13.132813-8.25 15.761719-4.554687 2.632812-8.25-.160156-8.25-6.234375s3.695313-13.132813 8.25-15.761719c4.558594-2.632812 8.25.160156 8.25 6.234375zm0 0"/><path d="m449.289062 174.75c0 6.074219-3.691406 13.128906-8.25 15.761719-4.554687 2.628906-8.25-.164063-8.25-6.238281 0-6.074219 3.695313-13.132813 8.25-15.761719 4.554688-2.628907 8.25.160156 8.25 6.238281zm0 0"/><path d="m463.085938 261.726562c6.566406-6.707031 4.609374-18.289062 4.511718-18.84375-.347656-1.953124-2.21875-3.25-4.167968-2.902343-1.949219.347656-3.25 2.210937-2.902344 4.164062.019531.105469 1.691406 10.472657-4.101563 13.734375-5.003906 2.820313-13.25-1.855468-16.007812-3.894531-1.589844-1.183594-3.835938-.851563-5.019531.734375-1.1875 1.589844-.859376 3.839844.730468 5.027344.429688.320312 8.410156 6.179687 16.679688 6.179687 1.359375 0 2.730468-.183593 4.074218-.550781 2.847657 4.351562 8.828126 15.277344 8.652344 30.125-.023437 1.984375 1.566406 3.613281 3.546875 3.632812h.042969c1.964844 0 3.570312-1.578124 3.589844-3.546874.195312-16.390626-6.183594-28.523438-9.628906-33.859376zm0 0"/></g></svg>