<svg height="512pt" viewBox="0 -4 512.00294 512" width="512pt" xmlns="http://www.w3.org/2000/svg"><path d="m512 237.703125c0-55.109375-23.726562-106.8125-63.925781-142.710937l.039062-.003907s-24.789062-76.066406-49.25-63.703125c-8.175781 4.132813-11.429687 13.269532-12.160156 23.597656l-125.546875-43.152343c-54.417969-18.703125-114.605469-15.285157-165.25 12.03125-4.558594 2.457031-8.953125 5.058593-13.199219 7.785156-9.027343-4.5625-16.199219-11.664063-21.285156-17.984375-4.277344-5.316406-12.933594-3.042969-14.09375 3.679688-3.082031 17.875 1.386719 31.652343 4.710937 38.871093-44.101562 43.988281-61.324218 107.90625-47.230468 180.839844l18.351562 79.300781c3.460938 17.925782 14.535156 33.464844 30.347656 42.59375 9.351563 5.847656 21.164063 6.054688 30.71875.539063l.78125-.453125c10.140626-5.855469 16.253907-16.53125 16.152344-28.070313-.179687-20.222656-.179687-26.3125-.179687-26.3125s50.902343 30.792969 76.875 51c55.214843 42.960938 93.886719 43.609375 93.886719 48.121094v54.871094c0 16.277343 8.671874 31.320312 22.757812 39.476562l.570312.332031c11.746094 6.796876 26.226563 6.808594 37.984376.03125.195312-.113281.390624-.226562.585937-.339843 12.097656-6.976563 19.546875-19.863281 19.539063-33.824219-.011719-17.5625-.015626-41.394531-.015626-56.316406 0-7.757813 6.277344-14.042969 14.039063-14.066406 16.828125-2.023438 34.996094-6.394532 48.683594-13.074219 3.710937 9.445312 10.492187 17.5625 19.558593 22.808593l.5625.328126c11.746094 6.796874 26.226563 6.808593 37.980469.03125.199219-.113282.394531-.226563.589844-.339844 12.097656-6.976563 19.546875-19.863282 19.539063-33.824219-.011719-13.527344-.011719-30.742187-.015626-44.769531 14.882813-19.707032 17.902344-44.78125 17.902344-75.191406v-12.101563zm0 0" fill="#ff7a78"/><path d="m472.675781 170.035156c0 10.582032-6.433593 22.871094-14.371093 27.453125-7.933594 4.582031-14.367188-.28125-14.367188-10.863281 0-10.578125 6.433594-22.871094 14.367188-27.453125 7.9375-4.582031 14.371093.28125 14.371093 10.863281zm0 0" fill="#162f4d"/><path d="m384.863281 222.15625c0 10.578125-6.433593 22.871094-14.367187 27.453125-7.9375 4.582031-14.371094-.28125-14.371094-10.863281 0-10.578125 6.433594-22.871094 14.371094-27.453125 7.933594-4.582031 14.367187.28125 14.367187 10.863281zm0 0" fill="#162f4d"/><path d="m476.691406 342.613281c-37.335937 34.925781-60.808594 38.148438-60.808594 38.148438 3.714844 9.445312 10.496094 17.5625 19.558594 22.808593l.566406.328126c11.746094 6.796874 26.222657 6.808593 37.980469.03125.195313-.113282.390625-.226563.585938-.339844 12.097656-6.976563 19.546875-19.863282 19.539062-33.824219-.007812-11.667969-.011719-26.070313-.011719-38.816406-4.480468 3.675781-16.800781 11.324219-17.410156 11.664062zm0 0" fill="#ea2642"/><path d="m274.027344 173.273438c-4.546875 2.804687-10.472656.378906-11.820313-4.789063-6.074219-23.273437-.304687-55.820313 6.59375-70.039063 6.167969-12.730468 38.722657 19.3125 52.917969 34.21875 3.46875 3.640626 2.710938 9.550782-1.570312 12.1875zm0 0" fill="#f9a2a1"/><path d="m278.394531 112.007812c-5.957031 4.628907-8.089843 40.824219-2.226562 59.945313l39.28125-24.207031c0-.003906-31.101563-40.371094-37.054688-35.738282zm0 0" fill="#ea2642"/><path d="m433.222656 85.539062s-19.421875-44.992187-26.914062-40.359374c-7.492188 4.628906-4.515625 44.992187-4.515625 44.992187s17.371093-11.652344 31.429687-4.632813zm0 0" fill="#ea2642"/><path d="m499.289062 248.449219-19.253906-11.484375-.011718.015625c-5.933594-3.671875-15.015626-2.980469-25.210938 2.90625-17.871094 10.320312-32.359375 32.632812-32.359375 49.84375 0 7.082031 2.480469 12.15625 6.609375 15.003906l20.507812 12.183594c5.929688 3.050781 14.582032 2.160156 24.253907-3.421875 17.871093-10.320313 32.359375-32.636719 32.359375-49.84375 0-7.246094-2.589844-12.398438-6.894532-15.203125zm0 0" fill="#f9a2a1"/><path d="m506.183594 263.652344c0 17.207031-14.488282 39.523437-32.359375 49.839844-17.871094 10.320312-32.359375 4.734374-32.359375-12.476563s14.488281-39.523437 32.359375-49.84375c17.871093-10.316406 32.359375-4.730469 32.359375 12.480469zm0 0" fill="#f78d8d"/><g fill="#162f4d"><path d="m496.609375 271.902344c0 3.214844-1.953125 6.945312-4.363281 8.335937s-4.363282-.085937-4.363282-3.296875c0-3.214844 1.953126-6.945312 4.363282-8.335937s4.363281.085937 4.363281 3.296875zm0 0"/><path d="m469.949219 287.726562c0 3.210938-1.949219 6.941407-4.359375 8.332032s-4.363282-.085938-4.363282-3.296875c0-3.210938 1.953126-6.941407 4.363282-8.332031 2.410156-1.390626 4.359375.085937 4.359375 3.296874zm0 0"/></g></svg>