<svg height="511pt" viewBox="-111 0 511 511.99984" width="511pt" xmlns="http://www.w3.org/2000/svg"><path d="m190.929688 359.210938c-28.242188-16.304688-62.238282-18.289063-91.886719-5.957032l2.308593-18.011718h-.003906c1.027344-7.203126-2.753906-14.226563-11.582031-19.324219-17.410156-10.054688-47.820313-8.792969-67.921875 2.816406-10.773438 6.21875-16.394531 14.148437-16.617188 21.71875l-4.726562 36.28125.050781-.003906c-.4687498 6.78125 3.363281 13.316406 11.703125 18.132812 6.75 3.894531 15.460938 6.070313 24.761719 6.625-.703125 3.039063-1.03125 6.148438-.96875 9.253907h-.023437v14.902343c0 12.46875 6.167968 24.933594 18.507812 32.054688l94.046875 54.300781 139.945313-80.796875v-15.648437zm0 0" fill="#8e9daf"/><path d="m190.929688 359.210938c-28.242188-16.304688-62.238282-18.289063-91.886719-5.957032l2.308593-18.011718h-.003906c1.027344-7.203126-2.753906-14.226563-11.582031-19.324219-17.410156-10.054688-47.820313-8.792969-67.921875 2.816406-10.773438 6.21875-16.394531 14.148437-16.617188 21.71875l-4.726562 36.28125.050781-.003906c-.4687498 6.78125 3.363281 13.316406 11.703125 18.132812 6.75 3.894531 15.460938 6.070313 24.761719 6.625-3.480469 14.980469 2.347656 31.808594 17.515625 40.566407l94.046875 54.296874 139.945313-80.796874zm0 0" fill="#b6c5ce"/><path d="m84.890625 355.132812c-20.105469 11.605469-50.515625 12.867188-67.921875 2.816407-17.410156-10.054688-15.226562-27.609375 4.875-39.214844 20.101562-11.609375 50.511719-12.867187 67.921875-2.816406s15.226563 27.609375-4.875 39.214843zm0 0" fill="#d6e5e5"/><path d="m127.496094 18.019531.011718-.089843-.011718.003906c-.199219-4.757813-3.195313-9.273438-9.089844-12.679688-13.484375-7.78125-37.035156-6.808594-52.605469 2.183594-8.347656 4.816406-12.699219 10.957031-12.871093 16.820312l-37.289063 312.113282c-.238281 5.148437 2.746094 10.097656 9.085937 13.761718 13.484376 7.785157 37.039063 6.808594 52.605469-2.179687 7.933594-4.582031 12.253907-10.355469 12.8125-15.949219l36.902344-310.199218c.339844-1.265626.496094-2.53125.449219-3.785157zm0 0" fill="#ef5f26"/><path d="m114.628906 35.628906c-15.570312 8.988282-39.121094 9.964844-52.605468 2.179688-13.484376-7.785156-11.792969-21.382813 3.777343-30.371094 15.570313-8.988281 39.121094-9.964844 52.605469-2.183594 13.484375 7.785156 11.792969 21.386719-3.777344 30.375zm0 0" fill="#ff7e27"/><path d="m258.941406 398.476562-139.941406 80.796876 29.578125 17.078124 139.945313-80.796874zm0 0" fill="#d6e5e5"/><path d="m119 479.273438v15.648437l29.578125 17.078125 139.945313-80.796875v-15.648437l-139.945313 80.796874zm0 0" fill="#b6c5ce"/></svg>