<svg height="512pt" viewBox="-128 0 512 512.00014" width="512pt" xmlns="http://www.w3.org/2000/svg"><path d="m80.046875 386.714844-70.835937 5.5v102.613281h.011718c.136719 4.570313 2.972656 8.914063 8.632813 12.179687 12.804687 7.394532 35.171875 6.46875 49.957031-2.070312 8.175781-4.71875 12.316406-10.777344 12.222656-16.5h.011719zm0 0" fill="#ef5f26"/><path d="m89.242188 312.628906c.050781-5.960937-3.519532-11.65625-10.878907-15.90625-16.132812-9.316406-44.316406-8.148437-62.949219 2.609375-10.148437 5.859375-15.3593745 13.355469-15.4023432 20.472657h-.0117188l.0117188 65.828124c-.1523438 6.050782 3.4179692 11.847657 10.8828122 16.152344 16.132813 9.316406 44.320313 8.148438 62.949219-2.605468 10.292969-5.945313 15.507812-13.570313 15.398438-20.777344l.011718-65.773438zm0 0" fill="#b6c5ce"/><path d="m73.84375 333.066406c-18.632812 10.757813-46.816406 11.925782-62.949219 2.609375-16.136719-9.316406-14.113281-25.585937 4.519531-36.34375 18.632813-10.757812 46.8125-11.925781 62.949219-2.609375s14.113281 25.589844-4.519531 36.34375zm0 0" fill="#d6e5e5"/><path d="m80.046875 126.953125-70.835937 5.5v180.398437h.011718c.136719 4.570313 2.972656 8.914063 8.632813 12.179688 12.804687 7.394531 35.171875 6.46875 49.957031-2.070312 8.175781-4.71875 12.316406-10.777344 12.222656-16.5h.011719zm0 0" fill="#ef5f26"/><path d="m89.242188 46.398438c.050781-5.957032-3.519532-11.65625-10.878907-15.902344-16.132812-9.316406-44.316406-8.148438-62.949219 2.609375-10.148437 5.859375-15.3593745 13.355469-15.4023432 20.46875h-.0117188l.0117188 101.933593c-.1523438 6.050782 3.4179692 11.847657 10.8828122 16.15625 16.132813 9.316407 44.320313 8.148438 62.949219-2.609374 10.292969-5.941407 15.507812-13.566407 15.398438-20.773438l.011718-101.882812zm0 0" fill="#b6c5ce"/><path d="m73.84375 66.839844c-18.632812 10.757812-46.816406 11.925781-62.949219 2.609375-16.136719-9.316407-14.113281-25.589844 4.519531-36.34375 18.632813-10.757813 46.8125-11.925781 62.949219-2.609375s14.113281 25.589844-4.519531 36.34375zm0 0" fill="#d6e5e5"/><path d="m80.035156 17.410156c-.042968-4.65625-2.878906-9.097656-8.632812-12.417968-12.804688-7.394532-35.171875-6.46875-49.960938 2.070312-7.863281 4.539062-11.996094 10.316406-12.21875 15.84375h-.011718v25.140625l.011718-.003906c.136719 4.570312 2.976563 8.914062 8.632813 12.183593 12.804687 7.390626 35.171875 6.464844 49.960937-2.074218 8.175782-4.71875 12.3125-10.773438 12.21875-16.5h.011719v-24.246094zm0 0" fill="#ef5f26"/><path d="m67.8125 33.835938c-14.785156 8.535156-37.152344 9.460937-49.957031 2.070312-12.804688-7.394531-11.199219-20.308594 3.585937-28.84375 14.789063-8.539062 37.15625-9.464844 49.960938-2.070312 12.804687 7.390624 11.199218 20.304687-3.589844 28.84375zm0 0" fill="#ff7e27"/><path d="m256.714844 278.871094-11.621094-55.988282c-10.480469-50.5-42.019531-94.125-86.683594-119.914062l-75.394531-43.527344-22.472656 13.050782v80.074218l72.960937 42.128906c24.617188 14.210938 46.554688 32.625 64.824219 54.402344l35.914063 42.824219zm0 0" fill="#d6e5e5"/><path d="m60.539062 72.492188 75.394532 43.527343c44.667968 25.789063 76.203125 69.414063 86.6875 119.914063l11.621094 55.988281-35.917969-42.824219c-18.265625-21.777344-40.207031-40.191406-64.820313-54.40625l-72.964844-42.125zm0 0" fill="#8e9daf"/><path d="m198.324219 249.097656 35.917969 42.824219c-18.148438-49.949219-53.332032-91.902344-99.355469-118.476563l-74.347657-42.921874v22.046874l72.964844 42.125c24.617188 14.210938 46.554688 32.625 64.820313 54.402344zm0 0" fill="#d6e5e5"/><path d="m130.433594 371.304688.011718-.027344-.519531-.296875c-.015625-.007813-.023437-.015625-.035156-.019531l-43.546875-25.003907-.011719.023438c-2.757812-1.757813-6.414062-1.707031-10.441406.617187-8.574219 4.949219-15.523437 18.226563-15.523437 29.660156 0 6.679688 2.386718 11.230469 6.070312 12.886719l-.007812.019531 43.496093 25c.105469.058594.203125.125.308594.179688l.078125.042969.007812-.007813c2.65625 1.308594 6.027344 1.074219 9.703126-1.046875 8.574218-4.949219 15.523437-18.230469 15.523437-29.660156 0-6.082031-1.980469-10.390625-5.113281-12.367187zm0 0" fill="#ef5f26"/><path d="m135.546875 383.671875c0 11.433594-6.949219 24.710937-15.523437 29.660156-8.570313 4.949219-15.519532-.304687-15.519532-11.734375 0-11.429687 6.949219-24.710937 15.519532-29.660156 8.574218-4.949219 15.523437.304688 15.523437 11.734375zm0 0" fill="#ff7e27"/></svg>