<svg height="512pt" viewBox="0 -64 512 512" width="512pt" xmlns="http://www.w3.org/2000/svg"><path d="m208.542969 172.726562.015625-.039062-.773438-.441406c-.019531-.011719-.035156-.023438-.050781-.03125l-169.140625-98.488282-.019531.035157c-4.097657-2.613281-9.527344-2.539063-15.511719.914062-12.738281 7.355469-23.0625 27.085938-23.0625 44.070313 0 9.925781 3.542969 16.683594 9.019531 19.144531l-.015625.035156 169.070313 98.484375c.15625.085938.304687.183594.460937.261719l.113282.070313.007812-.015626c3.949219 1.945313 8.960938 1.597657 14.417969-1.554687 12.738281-7.355469 23.066406-27.085937 23.066406-44.066406 0-9.039063-2.941406-15.441407-7.597656-18.378907zm0 0" fill="#ef5f26"/><path d="m216.140625 191.105469c0 16.980469-10.324219 36.710937-23.0625 44.066406s-23.066406-.453125-23.066406-17.4375 10.328125-36.710937 23.066406-44.066406 23.0625.453125 23.0625 17.4375zm0 0" fill="#ff7e27"/><path d="m512 345.136719-13.4375-28.207031c-6.714844-14.09375-20.210938-27.328126-38.828125-38.078126l-98.421875-56.820312c-6.613281-3.820312-15.414062-5.980469-24.054688-5.914062l-72.535156.589843-63.882812-21.394531c-2.546875-.851562-5.332032-.570312-7.65625.769531-3.246094 1.875-4.746094 5.132813-4.660156 8.339844h-.007813v10.921875c-.203125 3.832031 1.894531 7.757812 6.097656 9.316406l53.890625 19.953125 71.113282 1.128907 192.382812 111.074218zm0 0" fill="#8e9daf"/><path d="m278.824219 130.761719.023437-.027344-.796875-.730469c-.019531-.015625-.035156-.035156-.054687-.050781l-133.5-124.488281-.023438.027344c-4.167968-4.117188-10.324218-6.199219-17.703125-5.273438-15.707031 1.96875-30.890625 16.703125-33.914062 32.914062-1.765625 9.472657 1.039062 17.328126 6.792969 21.847657l-.023438.023437 133.421875 124.460938c.15625.140625.308594.292968.472656.429687l.121094.113281.007813-.011718c4.121093 3.421875 9.84375 5.078125 16.578124 4.230468 15.707032-1.96875 30.890626-16.707031 33.914063-32.914062 1.609375-8.625-.578125-15.898438-5.316406-20.550781zm0 0" fill="#ef5f26"/><path d="m284.140625 151.3125c-3.019531 16.207031-18.203125 30.945312-33.914063 32.914062-15.707031 1.972657-25.992187-9.570312-22.96875-25.777343 3.019532-16.210938 18.203126-30.945313 33.914063-32.917969 15.707031-1.96875 25.992187 9.574219 22.96875 25.78125zm0 0" fill="#ff7e27"/><path d="m200.839844 195.3125 63.882812 21.394531 72.535156-.585937c8.640626-.070313 17.441407 2.089844 24.054688 5.910156l98.421875 56.824219c18.617187 10.746093 32.113281 23.984375 38.828125 38.078125l13.4375 28.203125-192.386719-111.074219-71.109375-1.128906-53.890625-19.957032c-7.4375-2.753906-8.300781-12.929687-1.429687-16.894531 2.324218-1.339843 5.109375-1.621093 7.65625-.769531zm0 0" fill="#b6c5ce"/><path d="m451.371094 372.714844-151.523438-125.84375 9.667969-30.007813v-11.683593l-35.226563-49.703126c-3.492187-4.9375-9.84375-6.957031-15.542968-4.9375-5.648438 2-9 7.269532-9 12.757813l-.011719-.003906v11.746093l.011719.019532c.015625 2.371094.644531 4.777344 1.996094 6.980468l23.238281 35.816407-13.070313 32.539062c-.480468 1.203125-.710937 2.4375-.703125 3.6875v11.539063h.003907c-.027344 3.707031 2.074218 7.53125 6.082031 10.859375l79.039062 65.644531c14.949219 12.414062 35.296875 22.535156 58.535157 29.113281l46.503906 13.160157zm0 0" fill="#8e9daf"/><path d="m251.742188 170.355469 26.097656 40.382812-15.925782 39.65625c-1.898437 4.722657.070313 9.996094 5.382813 14.40625l79.035156 65.640625c14.949219 12.417969 35.296875 22.535156 58.535157 29.113282l46.503906 13.164062-154.492188-128.3125 12.636719-39.226562-35.226563-49.703126c-3.492187-4.9375-9.84375-6.957031-15.542968-4.9375-8.109375 2.871094-11.507813 12.488282-7.003906 19.816407zm0 0" fill="#b6c5ce"/><path d="m281.613281 228.640625c3.917969 2.261719 9.847657 2.507813 13.238281.550781 3.394532-1.960937 2.96875-5.382812-.949218-7.644531-3.917969-2.261719-9.84375-2.507813-13.238282-.546875-3.394531 1.957031-2.96875 5.378906.949219 7.640625zm0 0" fill="#8e9daf"/><g fill="#d6e5e5"><path d="m319.613281 234.0625c20.210938 2.339844 39.726563 8.792969 57.34375 18.96875l74.402344 42.953125c22.671875 13.09375 43.136719 29.679687 60.640625 49.152344zm0 0"/><path d="m296.878906 244.40625c-2.578125 8.800781.351563 18.289062 7.441406 24.101562l46.828126 38.398438c30.988281 25.414062 64.585937 47.472656 100.222656 65.808594zm0 0"/></g></svg>