<svg height="512pt" viewBox="-196 0 512 512.00101" width="512pt" xmlns="http://www.w3.org/2000/svg"><path d="m67.5625 95.78125c-2.375 0-4.683594-1.230469-5.957031-3.433594-1.894531-3.289062-.769531-7.488281 2.515625-9.386718l7.945312-4.585938c3.132813-1.808594 5.621094-4.640625 7.015625-7.980469 5.074219-12.160156 7.648438-25.011719 7.648438-38.191406v-20.476563c0-3.792968 3.074219-6.871093 6.871093-6.871093 3.792969 0 6.867188 3.078125 6.867188 6.871093v20.476563c0 15.003906-2.929688 29.636719-8.707031 43.484375-2.546875 6.097656-7.101563 11.277344-12.824219 14.582031l-7.945312 4.589844c-1.082032.625-2.265626.921875-3.429688.921875zm0 0" fill="#b6c5ce"/><path d="m22.042969 36.128906-.007813-.015625.363282-.207031c.007812-.003906.015624-.011719.023437-.015625l60.351563-35.054687.007812.015624c1.902344-1.214843 4.421875-1.179687 7.199219.421876 5.910156 3.414062 10.699219 12.570312 10.699219 20.449218 0 4.605469-1.640626 7.742188-4.183594 8.882813l.007812.015625-60.320312 35.054687c-.070313.042969-.140625.085938-.214844.125l-.054688.027344v-.003906c-1.835937.902343-4.160156.742187-6.691406-.722657-5.910156-3.410156-10.703125-12.566406-10.703125-20.445312 0-4.191406 1.363281-7.164062 3.523438-8.527344zm0 0" fill="#ef5f26"/><path d="m18.519531 44.65625c0 7.882812 4.789063 17.035156 10.703125 20.449219 5.910156 3.410156 10.699219-.210938 10.699219-8.089844 0-7.882813-4.789063-17.035156-10.699219-20.449219-5.914062-3.414062-10.703125.210938-10.703125 8.089844zm0 0" fill="#ff7e27"/><path d="m60.003906 309.964844-51.871094 65.25c-4.992187 6.277344-8.132812 14.933594-8.132812 22.402344v62.863281c0 24.734375 9.898438 41.875 25.960938 44.96875l34.042968 6.550781 34.042969-45.859375c16.066406-21.644531 25.960937-50.210937 25.960937-74.945313v-62.867187c0-7.46875-3.140624-12.496094-8.128906-13.011719zm0 0" fill="#b6c5ce"/><path d="m85.632812 301.710938c.023438-3.003907-1.773437-5.875-5.480468-8.015626-8.132813-4.691406-22.332032-4.105468-31.71875 1.316407-5.113282 2.953125-7.738282 6.726562-7.757813 10.3125h-.007812l.007812 33.167969c-.078125 3.046874 1.722657 5.96875 5.480469 8.140624 8.128906 4.691407 22.332031 4.105469 31.71875-1.316406 5.183594-2.992187 7.8125-6.835937 7.757812-10.464844l.003907-33.140624zm0 0" fill="#b6c5ce"/><path d="m77.875 312.007812c-9.386719 5.421876-23.589844 6.007813-31.71875 1.316407-8.128906-4.695313-7.109375-12.894531 2.277344-18.3125 9.386718-5.421875 23.589844-6.007813 31.71875-1.316407 8.128906 4.695313 7.109375 12.894532-2.277344 18.3125zm0 0" fill="#d6e5e5"/><path d="m113.574219 402.09375v-57.621094c0-6.847656-2.804688-11.496094-7.257813-12.039062-29.089844-3.53125-63.53125 16.355468-92.621094 53.472656-4.453124 5.6875-7.257812 13.574219-7.257812 20.421875v57.621094c0 22.671875 8.835938 38.523437 23.175781 41.578125l30.390625 6.472656 30.390625-41.566406c14.34375-19.617188 23.179688-45.667969 23.179688-68.339844zm0 0" fill="#8e9daf"/><path d="m106.316406 332.433594c-15.59375-1.890625-32.722656 2.949218-49.742187 13.558594 13.390625-6.394532 26.628906-9.09375 38.914062-7.601563 4.457031.539063 7.257813 5.1875 7.257813 12.039063v57.621093c0 35.292969-42.742188 103.949219-42.742188 103.949219l30.390625-41.566406c14.34375-19.617188 23.179688-45.667969 23.179688-68.339844v-57.621094c0-6.847656-2.804688-11.496094-7.257813-12.039062zm0 0" fill="#6b7389"/><path d="m80.503906 85.695312c-.023437-2.28125-1.414062-4.457031-4.230468-6.085937-6.277344-3.625-17.238282-3.167969-24.484376 1.015625-3.851562 2.222656-5.878906 5.054688-5.988281 7.761719l-.003906.003906v213.160156h.003906c.066407 2.238281 1.457031 4.367188 4.230469 5.96875 6.277344 3.625 17.234375 3.167969 24.480469-1.015625 4.007812-2.3125 6.035156-5.28125 5.992187-8.085937h.003906v-212.722657zm0 0" fill="#ef5f26"/><path d="m85.632812 78.75c.023438-3.003906-1.773437-5.875-5.480468-8.015625-8.132813-4.691406-22.332032-4.101563-31.71875 1.316406-5.113282 2.953125-7.738282 6.726563-7.757813 10.3125h-.007812v5.011719c-4.640625-4.300781-7.441407-10.402344-7.441407-17.050781v-19.773438c0-3.796875-3.074218-6.871093-6.867187-6.871093s-6.871094 3.074218-6.871094 6.871093v19.777344c0 14.496094 8.34375 27.402344 21.183594 33.453125v11.75c-.078125 3.046875 1.722656 5.96875 5.484375 8.140625 8.128906 4.695313 22.328125 4.105469 31.714844-1.316406 5.1875-2.992188 7.8125-6.835938 7.757812-10.464844l.007813-33.140625zm0 0" fill="#b6c5ce"/><path d="m77.875 89.046875c-9.386719 5.421875-23.589844 6.007813-31.71875 1.316406-8.128906-4.695312-7.109375-12.890625 2.277344-18.3125 9.386718-5.417969 23.589844-6.007812 31.71875-1.316406 8.128906 4.695313 7.109375 12.894531-2.277344 18.3125zm0 0" fill="#d6e5e5"/></svg>