<svg height="512pt" viewBox="0 -41 512.00028 512" width="512pt" xmlns="http://www.w3.org/2000/svg"><path d="m511.972656 387.257812c.066406-2.765624-.792968-5.699218-2.804687-8.710937l-99.425781-149.0625c-5.066407-7.589844-16.917969-13.425781-30.433594-14.988281l-30.539063-3.519532c-51.996093-6-102.433593 2.019532-136.53125 21.707032-26.269531 15.167968-40.53125 35.941406-40.949219 58.40625l-.011718-.003906v.457031c-.003906.339843 0 .679687 0 1.023437v22.898438c-.066406 6.546875 1.03125 13.234375 3.363281 19.96875l6.101563 17.632812c2.699218 7.804688 12.808593 14.648438 25.957031 17.570313l258.183593 57.40625c25.15625 5.59375 47.289063-3.90625 47.097657-17.320313l.015625.003906v-23.460937zm0 0" fill="#b6c5ce"/><path d="m174.640625 311.507812c-10.386719-30.019531 3.503906-59.140624 37.601563-78.824218 34.09375-19.6875 84.53125-27.703125 136.527343-21.707032l30.542969 3.519532c13.511719 1.558594 25.367188 7.398437 30.429688 14.988281l99.425781 149.0625c11.585937 17.367187-14.203125 32.253906-44.28125 25.566406l-258.183594-57.402343c-13.148437-2.925782-23.261719-9.769532-25.960937-17.570313zm0 0" fill="#d6e5e5"/><path d="m209.484375 91.035156.027344-.050781-1.105469-.632813c-.023438-.015624-.046875-.03125-.070312-.042968l-153.449219-87.753906-.023438.054687c-5.832031-3.71875-13.554687-3.613281-22.0625 1.296875-18.117187 10.457031-32.800781 38.519531-32.800781 62.671875 0 14.117187 5.039062 23.730469 12.828125 27.230469l-.019531.046875 153.347656 87.746093c.214844.125.429688.261719.652344.375l.164062.097657.011719-.019531c5.617187 2.765624 12.742187 2.273437 20.507813-2.210938 18.113281-10.460938 32.800781-38.519531 32.796874-62.671875 0-12.851563-4.183593-21.960937-10.804687-26.136719zm0 0" fill="#ef5f26"/><path d="m220.289062 117.171875c0 24.152344-14.683593 52.210937-32.800781 62.671875-18.113281 10.457031-32.796875-.644531-32.796875-24.796875 0-24.15625 14.683594-52.214844 32.796875-62.671875 18.117188-10.460938 32.800781.644531 32.800781 24.796875zm0 0" fill="#ff7e27"/><path d="m274.722656 283.300781c-3.144531 0-6.328125-.800781-9.246094-2.484375l-25.257812-14.582031c-13.398438-7.738281-21.726562-22.160156-21.726562-37.632813v-42.234374c0-6.175782-3.324219-11.933594-8.675782-15.023438l-27.265625-15.742188c-8.863281-5.113281-11.898437-16.445312-6.78125-25.304687 5.117188-8.859375 16.441407-11.894531 25.304688-6.78125l27.269531 15.746094c16.777344 9.683593 27.199219 27.734375 27.199219 47.105469v42.234374c0 2.28125 1.226562 4.40625 3.203125 5.546876l25.257812 14.582031c8.859375 5.117187 11.894532 16.445312 6.78125 25.304687-3.433594 5.945313-9.660156 9.265625-16.0625 9.265625zm0 0" fill="#8e9daf"/></svg>