<svg height="512pt" viewBox="-130 0 512 512.001" width="512pt" xmlns="http://www.w3.org/2000/svg"><path d="m237.75 91.054688c-2.050781-50.582032-50.523438-91.054688-110.058594-91.054688-59.859375 0-108.570312 58.265625-110.117187 109.792969-.023438.46875-14.425781 328.046875-14.425781 328.046875h.027343c-.1875 16.675781 9.773438 32.628906 30.363281 44.515625 45.027344 25.996093 123.679688 22.734375 175.675782-7.285157 28.332031-16.355468 42.867187-37.277343 42.976562-57.144531 0 0-14.390625-326.117187-14.441406-326.871093zm0 0" fill="#d6e5e5"/><g fill="#b6c5ce"><path d="m44.410156 150.546875c39.828125 22.996094 109.402344 20.109375 155.390625-6.441406 24.964844-14.414063 37.820313-32.832031 38.015625-50.34375h.015625c-.007812-.148438-.011719-.296875-.015625-.445313 0-.757812-.015625-1.507812-.066406-2.257812-2.050781-50.585938-50.523438-91.058594-110.058594-91.058594-59.859375 0-108.570312 58.265625-110.117187 109.792969-.023438.46875-.019531.929687-.023438 1.398437-.003906.371094-.015625.746094-.015625 1.117188h.015625c.289063 14.335937 9.113281 27.992187 26.859375 38.238281zm0 0"/><path d="m243.25 215.960938-1.292969-29.171876c-5.15625 13.296876-17.8125 26.316407-36.425781 37.0625-26.273438 15.167969-61.199219 23.871094-95.824219 23.871094 0 0-.003906 0-.007812 0-28.335938-.003906-54.113281-5.875-72.574219-16.53125-11.8125-6.820312-19.917969-15.25-23.761719-24.464844l-1.210937 27.394532c4.636718 4.371094 10.101562 8.398437 16.347656 12.007812 21.042969 12.148438 49.878906 18.839844 81.199219 18.839844h.007812c37.558594 0 75.628907-9.542969 104.445313-26.179688 11.738281-6.777343 21.5-14.511718 29.097656-22.828124zm0 0"/><path d="m247.800781 318.734375-1.375-31.050781c-4.929687 14.289062-18.265625 28.34375-38.234375 39.875-27.171875 15.6875-63.289062 24.683594-99.097656 24.683594 0 0-.003906 0-.007812 0-29.304688-.003907-55.960938-6.074219-75.050782-17.097657-12.863281-7.425781-21.46875-16.695312-25.164062-26.816406l-1.292969 29.257813c4.933594 4.746093 10.789063 9.113281 17.535156 13.007812 21.761719 12.5625 51.585938 19.484375 83.972657 19.484375h.007812c38.84375 0 78.214844-9.867187 108.015625-27.070313 12.449219-7.191406 22.753906-15.417968 30.691406-24.273437zm0 0"/><path d="m251.03125 391.644531c-5.378906 14.570313-19.117188 28.863281-39.496094 40.628907-28.300781 16.339843-65.917968 25.707031-103.210937 25.707031h-.007813c-30.523437 0-58.285156-6.324219-78.171875-17.804688-13.054687-7.535156-21.894531-16.902343-25.898437-27.132812l-1.09375 24.796875h.023437c-.019531 1.933594.109375 3.855468.359375 5.765625 4.9375 4.601562 10.71875 8.851562 17.320313 12.664062 22.667969 13.082031 53.726562 20.292969 87.460937 20.292969h.007813c40.453125 0 81.460937-10.277344 112.5-28.199219 12.371093-7.140625 22.695312-15.273437 30.800781-24.011719.34375-2.148437.554688-4.292968.570312-6.425781zm0 0"/></g><path d="m68.109375 243.269531c3.621094-2.089843 4.863281-6.71875 2.769531-10.339843-2.089844-3.621094-6.71875-4.863282-10.339844-2.769532l-8.726562 5.039063v-60.257813l16.296875-9.410156c3.621094-2.089844 4.863281-6.722656 2.773437-10.339844-2.089843-3.621094-6.722656-4.863281-10.34375-2.773437l-20.082031 11.597656c-.074219.039063-.128906.097656-.203125.144531-.230468.144532-.445312.308594-.660156.476563-.183594.144531-.371094.285156-.539062.441406-.175782.167969-.332032.351563-.496094.535156-.160156.1875-.324219.371094-.46875.570313-.136719.195312-.253906.40625-.375.617187-.121094.210938-.246094.417969-.347656.636719-.101563.222656-.175782.453125-.257813.6875-.078125.234375-.160156.460938-.214844.699219-.054687.226562-.082031.457031-.117187.6875-.039063.269531-.070313.539062-.082032.8125 0 .082031-.023437.160156-.023437.246093v19.820313l-21.53125-12.429687v-24.191407l16.296875-9.410156c3.621094-2.089844 4.863281-6.722656 2.773438-10.339844-2.089844-3.621093-6.722657-4.863281-10.34375-2.773437l-20.082032 11.597656c-.074218.039062-.128906.097656-.199218.144531-.234376.144531-.449219.308594-.664063.476563-.183594.144531-.367187.28125-.535156.441406-.179688.167969-.335938.351562-.496094.535156-.164063.1875-.328125.371094-.46875.570313-.140625.195312-.257813.40625-.378906.617187-.121094.210938-.246094.417969-.347657.636719-.101562.222656-.175781.453125-.253906.6875-.082031.234375-.164062.460937-.21875.699219-.054687.226562-.082031.457031-.113281.6875-.0390625.269531-.0742188.539062-.0820312.8125-.0039063.082031-.0273438.160156-.0273438.246094v333.859374c0 4.179688 3.390625 7.570313 7.570312 7.570313 4.183594 0 7.570313-3.390625 7.570313-7.570313v-18.964843l21.53125 12.429687v27.707032c0 4.183593 3.390625 7.570312 7.570313 7.570312 4.183593 0 7.574218-3.386719 7.574218-7.570312v-72.515626l16.296875-9.40625c3.621094-2.09375 4.859375-6.722656 2.769531-10.34375-2.089843-3.621093-6.71875-4.859374-10.339843-2.769531l-8.726563 5.039063v-74.234375l16.296875-9.410157c3.621094-2.089843 4.863281-6.722656 2.769531-10.339843-2.089843-3.621094-6.71875-4.863281-10.339843-2.773438l-8.726563 5.039063v-70.03125zm-31.4375 36.738281-21.53125-12.433593v-27.324219l21.53125 12.429688zm0 89.613282-21.53125-12.429688v-27.324218l21.53125 12.429687zm-2.464844 21.367187c-2.089843-3.621093-6.71875-4.859375-10.339843-2.769531l-8.726563 5.039062v-18.582031l21.53125 12.429688v27.324219l-13.960937-8.058594 8.726562-5.039063c3.621094-2.089843 4.863281-6.722656 2.769531-10.34375zm-13.316406-75.285156 10.546875-6.089844c3.621094-2.089843 4.863281-6.722656 2.769531-10.339843-2.089843-3.621094-6.71875-4.863282-10.339843-2.773438l-8.726563 5.039062v-16.480468l21.53125 12.429687v27.324219zm15.78125-107.832031v27.324218l-13.960937-8.058593 8.726562-5.039063c3.621094-2.089844 4.863281-6.722656 2.769531-10.339844-2.089843-3.621093-6.71875-4.863281-10.339843-2.773437l-8.726563 5.039063v-18.582032zm-21.53125 238.9375v-27.324219l21.53125 12.429687v27.324219zm0 0" fill="#2b5d99"/><path d="m227.742188 451.351562c-8.078126 0-14.785157-6.375-15.117188-14.519531l-10.828125-264.441406c-.328125-8.042969-4.6875-15.25-11.660156-19.273437l-19.3125-11.152344c-7.242188-4.179688-9.722657-13.441406-5.542969-20.683594s13.4375-9.722656 20.683594-5.542969l19.316406 11.152344c16.007812 9.246094 26.015625 25.792969 26.773438 44.261719l10.824218 264.441406c.34375 8.351562-6.152344 15.402344-14.507812 15.746094-.210938.007812-.421875.011718-.628906.011718zm0 0" fill="#e6e6e6"/></svg>