<svg height="512pt" viewBox="-37 0 512 512.00101" width="512pt" xmlns="http://www.w3.org/2000/svg"><path d="m189.460938 59.878906c-5.597657 0-11.085938-2.714844-14.40625-7.730468l-16.792969-25.351563c-5.265625-7.949219-3.089844-18.660156 4.859375-23.925781 7.949218-5.261719 18.660156-3.085938 23.925781 4.859375l16.789063 25.351562c5.265624 7.949219 3.09375 18.660157-4.855469 23.925781-2.933594 1.941407-6.246094 2.871094-9.519531 2.871094zm0 0" fill="#2b5d99"/><path d="m397.757812 334.292969-180.796874-272.773438.03125-.019531-13.132813-19.828125c-2.910156-4.390625-8.828125-5.59375-13.21875-2.683594-4.867187 3.222657-7.253906 8.777344-6.679687 14.210938.101562 2.148437.75 4.296875 2.027343 6.222656l191.21875 288.496094c2.796875 4.21875 3.699219 9.257812 2.539063 14.1875-1.160156 4.929687-4.210938 9.039062-8.597656 11.570312l-64.90625 37.476563c-5.898438 3.402344-7.917969 10.945312-4.515626 16.84375 2.285157 3.953125 6.429688 6.164062 10.691407 6.164062 2.089843 0 4.210937-.53125 6.152343-1.652344l64.910157-37.476562c10.1875-5.882812 17.578125-15.824219 20.269531-27.28125 2.695312-11.453125.511719-23.648438-5.992188-33.457031zm0 0" fill="#b6c5ce"/><path d="m34.074219 149.480469c-5.597657 0-11.085938-2.714844-14.410157-7.730469l-16.792968-25.351562c-5.261719-7.949219-3.085938-18.660157 4.859375-23.925782 7.953125-5.261718 18.664062-3.085937 23.925781 4.859375l16.792969 25.351563c5.265625 7.949218 3.089843 18.660156-4.859375 23.925781-2.933594 1.941406-6.242188 2.871094-9.515625 2.871094zm0 0" fill="#2b5d99"/><path d="m391.007812 445.671875c0-44.160156-26.847656-95.464844-59.96875-114.585937-15.566406-8.988282-29.746093-9.265626-40.40625-2.453126v-.003906l-23.597656 13.632813.007813.003906c-12.171875 7.605469-19.828125 24.375-19.828125 47.953125 0 44.160156 26.847656 95.460938 59.96875 114.585938 14.546875 8.394531 27.878906 9.1875 38.261718 3.699218l-.003906.003906 25.550782-14.765624h-.023438c12.296875-7.546876 20.039062-24.363282 20.039062-48.070313zm0 0" fill="#162f4d"/><path d="m367.15625 459.46875c0 44.160156-26.847656 64.457031-59.96875 45.335938-33.121094-19.125-59.972656-70.425782-59.972656-114.585938s26.851562-64.460938 59.972656-45.335938c33.121094 19.121094 59.96875 70.421876 59.96875 114.585938zm0 0" fill="#2b5d99"/><path d="m345.445312 446.929688c0 28.175781-17.128906 41.125-38.257812 28.925781-21.132812-12.199219-38.257812-44.929688-38.257812-73.101563s17.128906-41.121094 38.257812-28.921875 38.257812 44.925781 38.257812 73.097657zm0 0" fill="#d6e5e5"/><path d="m329.902344 437.960938c0 16.726562-10.167969 24.417968-22.714844 17.171874-12.546875-7.242187-22.71875-26.675781-22.71875-43.40625 0-16.730468 10.171875-24.417968 22.71875-17.175781 12.546875 7.246094 22.714844 26.679688 22.714844 43.410157zm0 0" fill="#bf0025"/><path d="m439.121094 260.21875-.183594-.007812c1.699219-14.988282-9.328125-30.945313-30.742188-42.605469l-88.082031-49.164063c-29.738281-16.1875-72.453125-19.242187-101.246093-7.238281-38.257813 15.957031-71.679688 35.253906-99.316407 57.34375-10.203125 8.152344-14.113281 18.246094-12.148437 28.4375h-.003906l.003906.003906c.863281 4.476563 2.863281 8.972657 5.960937 13.332031l23.394531 52.300782c2.710938 7.558594 9.289063 15.011718 19.5 21.261718l70.707032 42.226563c21.996094 13.464844 54.632812 18.378906 80.804687 12.164063 45.242188-10.75 80.195313-30.929688 98.8125-57.050782 1.304688-1.832031 2.320313-3.71875 3.066407-5.640625l.011718-.023437c.121094-.320313.230469-.644532.339844-.964844l22.050781-48.742188c.511719-.683593 1.023438-1.367187 1.515625-2.054687 2.960938-4.152344 4.695313-8.535156 5.300782-13.015625zm0 0" fill="#bf0025"/><path d="m119.550781 218.546875c-20.796875 16.621094-15.507812 41.28125 12.535157 58.449219l85.15625 50.855468c26.492187 16.222657 65.796874 22.136719 97.316406 14.652344 54.488281-12.945312 96.589844-37.25 119.007812-68.710937 12.96875-18.195313 2.71875-40.890625-25.371094-56.1875l-88.085937-49.164063c-29.734375-16.1875-72.453125-19.242187-101.242187-7.238281-38.257813 15.957031-71.679688 35.253906-99.316407 57.34375zm0 0" fill="#ea2642"/><path d="m259.375 183.492188c16.78125 0 33.707031 3.964843 46.464844 10.875l87.929687 49.082031.273438.148437c10.527343 5.730469 14.367187 11.152344 15.285156 13.214844-18.257813 25.464844-54.328125 45.667969-101.605469 56.898438-6.726562 1.597656-14.105468 2.40625-21.9375 2.40625-19.433594 0-39.28125-5.046876-53.089844-13.503907l-.140624-.085937-.140626-.082032-85-50.761718c-6.210937-3.820313-9.210937-7.269532-10.386718-9.148438.257812-.25.589844-.542968 1-.871094 25.480468-20.371093 56.511718-38.25 92.230468-53.144531 7.773438-3.242187 18.113282-5.027343 29.117188-5.027343zm0 0" fill="#bf0025"/><path d="m232.554688 302.53125.140624.082031c13.808594 8.457031 33.65625 13.503907 53.089844 13.503907 7.832032 0 15.210938-.808594 21.9375-2.40625 17.890625-4.25 34.171875-9.785157 48.496094-16.40625l-50.378906-28.117188c-12.757813-6.914062-29.683594-10.875-46.464844-10.875-11.003906 0-21.34375 1.785156-29.117188 5.023438-12.421874 5.183593-24.261718 10.730468-35.515624 16.613281l37.671874 22.496093zm0 0" fill="#8f001c"/><g fill="#b6c5ce"><path d="m312.660156 421.683594c-3.40625-5.898438-10.945312-7.917969-16.84375-4.515625l-15 8.660156c-15.109375 8.726563-34.488281 4.160156-44.121094-10.378906l-175.09375-264.347657-13.132812-19.828124c-2.910156-4.390626-8.828125-5.59375-13.21875-2.683594-6.964844 4.609375-8.871094 13.996094-4.257812 20.957031l10.050781 15.171875 175.09375 264.347656c11.046875 16.679688 29.4375 25.835938 48.234375 25.835938 9.8125 0 19.734375-2.496094 28.773437-7.714844l15.003907-8.660156c5.894531-3.40625 7.917968-10.949219 4.511718-16.84375zm0 0"/><path d="m81.027344 215.074219c-4.261719 0-8.40625-2.210938-10.6875-6.167969-3.40625-5.894531-1.386719-13.4375 4.511718-16.84375l155.320313-89.671875c5.898437-3.40625 13.441406-1.382813 16.84375 4.511719 3.40625 5.898437 1.386719 13.441406-4.511719 16.84375l-155.320312 89.675781c-1.941406 1.121094-4.0625 1.652344-6.15625 1.652344zm0 0"/></g></svg>