<svg height="512pt" viewBox="-154 0 512 512.00048" width="512pt" xmlns="http://www.w3.org/2000/svg"><path d="m189.734375 66.628906-78.792969-31.472656-58.683594-33.878906c-2.820312-1.628906-5.378906-1.640625-7.289062-.371094l-40.851562 23.84375c-2.5 1.167969-4.117188 4.292969-4.117188 8.859375v149.640625c0 7.882812 4.796875 17.046875 10.710938 20.460938l10.753906 6.207031v287.066406h.007812c.121094 3.996094 2.605469 7.792969 7.550782 10.652344 11.195312 6.460937 30.75 5.652343 43.679687-1.8125 7.144531-4.125 10.761719-9.421875 10.683594-14.425781h.007812v-238.894532l106.007813 112.898438c.035156-.140625.066406-.296875.101562-.441406l.230469.441406c17.929687-74.8125 17.929687-203.253906 0-298.773438zm0 0" fill="#b6c5ce"/><path d="m189.402344 66.628906-120.007813-7.234375-58.683593-33.882812c-5.917969-3.414063-10.710938.210937-10.710938 8.097656v149.640625c0 7.886719 4.792969 17.046875 10.710938 20.460938l58.683593 33.882812 120.007813 127.8125c17.933594-74.816406 17.933594-203.257812 0-298.777344zm0 0" fill="#8e9daf"/><path d="m69.394531 237.59375-47.929687-27.671875v287.066406l.007812-.003906c.121094 3.996094 2.605469 7.796875 7.550782 10.652344 11.195312 6.464843 30.75 5.652343 43.679687-1.808594 7.144531-4.128906 10.761719-9.425781 10.683594-14.429687h.007812v-238.894532zm0 0" fill="#ef5f26"/><path d="m189.402344 66.628906-35.980469-2.167968c13.234375 86.101562 13.136719 192.03125-.308594 262.292968l36.289063 38.648438c17.933594-74.8125 17.933594-203.253906 0-298.773438zm0 0" fill="#b6c5ce"/><path d="m153.421875 64.460938 12.628906-7.292969 23.351563 9.460937zm0 0" fill="#d6e5e5"/><path d="m21.609375 23.417969 27.980469-16.152344 41.382812 23.578125-27.976562 16.152344zm0 0" fill="#ff7e27"/></svg>