<svg height="511pt" viewBox="-163 0 511 511.9997" width="511pt" xmlns="http://www.w3.org/2000/svg"><path d="m178.605469 414.667969-1.027344-.589844c-17.449219-10.074219-28.285156-28.847656-28.285156-48.996094v-59.214843c0-13.234376-6.859375-25.058594-18.34375-31.632813-8.886719-5.085937-19.078125-6.171875-28.523438-3.304687l.003907-36.757813-.003907.003906c.03125-3.835937-2.265625-7.5-7-10.234375-10.386719-5.996094-28.519531-5.242187-40.511719 1.679688-6.527343 3.769531-9.878906 8.589844-9.910156 13.171875h-.007812l.007812 64.925781c-27.609375 18.835938-44.503906 50.484375-44.503906 84.15625v46.730469c0 30.984375 16.667969 59.859375 43.503906 75.351562 2.398438 1.382813 5.011719 2.042969 7.59375 2.042969 5.261719 0 10.375-2.730469 13.195313-7.609375 4.203125-7.28125 1.707031-16.585937-5.570313-20.789063-17.449218-10.074218-28.289062-28.847656-28.289062-48.996093v-46.730469c0-14.410156 4.417968-28.285156 12.257812-39.917969v60.488281c0 30.984376 16.671875 59.855469 43.507813 75.351563l1.789062 1.035156c2.398438 1.382813 5.011719 2.039063 7.59375 2.039063 5.261719 0 10.375-2.730469 13.195313-7.613282 4.199218-7.277343 1.707031-16.585937-5.574219-20.785156l-1.789063-1.035156c-17.449218-10.070312-28.289062-28.847656-28.289062-48.992188v-86.511718l7.253906-4.261719v68.730469c0 30.984375 16.671875 59.859375 43.507813 75.351562l1.613281.933594c2.398438 1.382812 5.011719 2.042969 7.59375 2.042969 5.261719 0 10.378906-2.734375 13.195312-7.613281 4.199219-7.28125 1.707032-16.585938-5.574218-20.789063l-1.613282-.929687c-17.449218-10.074219-28.289062-28.847657-28.289062-48.996094v-86.347656c1.964844-.550782 3.617188.078124 4.519531.597656 1.128907.644531 3.023438 2.183594 3.023438 5.214844v59.214843c0 30.988281 16.671875 59.863281 43.511719 75.355469l1.027343.59375c7.285157 4.203125 16.585938 1.703125 20.785157-5.578125 4.199218-7.277344 1.707031-16.585937-5.574219-20.785156zm0 0" fill="#b6c5ce"/><path d="m92.511719 247.328125c-11.988281 6.921875-30.125 7.671875-40.507813 1.679687-10.382812-5.996093-9.078125-16.464843 2.910156-23.386718 11.988282-6.921875 30.125-7.675782 40.507813-1.679688s9.082031 16.464844-2.910156 23.386719zm0 0" fill="#d6e5e5"/><path d="m96.496094 11.203125c-.027344-2.996094-1.851563-5.851563-5.554688-7.992187-8.238281-4.757813-22.632812-4.160157-32.148437 1.332031-5.058594 2.921875-7.71875 6.640625-7.863281 10.195312h-.003907v220.496094l.003907-.003906c.089843 2.941406 1.914062 5.738281 5.554687 7.839843 8.242187 4.757813 22.632813 4.160157 32.148437-1.332031 5.261719-3.039062 7.921876-6.9375 7.863282-10.617187l.007812-219.917969zm0 0" fill="#ef5f26"/><path d="m88.632812 21.773438c-9.515624 5.492187-23.90625 6.089843-32.148437 1.332031-8.238281-4.757813-7.203125-13.066407 2.308594-18.5625 9.515625-5.492188 23.910156-6.089844 32.148437-1.332031 8.238282 4.757812 7.207032 13.066406-2.308594 18.5625zm0 0" fill="#ff7e27"/></svg>