<svg height="512pt" viewBox="0 -82 512.00021 512" width="512pt" xmlns="http://www.w3.org/2000/svg"><path d="m486.5625 123.300781c-14.777344-16.375-30.957031-20.015625-42.011719-11.511719l-.003906-.007812s-.035156.03125-.085937.074219c-.941407.734375-1.847657 1.554687-2.707032 2.464843-7.125 6.800782-25.703125 26.773438-29.847656 53.378907l-52.878906 30.53125-11.019532-134.445313c-.867187-16.875-11.574218-32.882812-32.515624-44.972656-48.257813-27.863281-132.554688-24.371094-188.277344 7.804688-5.316406 3.066406-10.164063 6.285156-14.570313 9.621093l-38.441406-22.191406c-15.488281-8.945313-33.980469-8.945313-49.46875-.003906-15.488281 8.941406-24.734375 24.957031-24.734375 42.84375v73.871093c0 11.898438 4.472656 23.242188 12.589844 31.9375l57.601562 61.710938-3.289062 41.222656c-.507813 3-.746094 5.992188-.714844 8.960938l-.011719.136718h.015625c.261719 19.4375 12.171875 37.957032 36.210938 51.835938 53.660156 30.980469 147.390625 27.097656 209.351562-8.679688 23.949219-13.828124 39.636719-30.394531 46.78125-47.308593l74.042969-43.226563c19.6875 15.585938 45.925781 8.332032 58.199219 3.527344 2.425781-.585938 4.722656-1.601562 6.847656-3.042969.015625-.007812.03125-.015625.03125-.015625l-.003906-.003906c4.921875-3.351562 8.925781-8.976562 11.472656-16.84375 8.246094-25.464844-1.855469-64.71875-22.5625-87.667969zm-405.429688-35.929687h-.003906l-6.195312 77.632812-30.179688-32.332031c-.488281-.519531-.757812-1.199219-.757812-1.914063v-73.871093c0-2.613281 1.488281-4.019531 2.738281-4.742188 1.246094-.71875 3.207031-1.304687 5.46875 0l32.285156 18.640625c-2.136719 5.53125-3.265625 11.09375-3.355469 16.585938zm0 0" fill="#447111"/><path d="m329.449219 287.558594c-14.964844 8.636718-27.09375-.53125-27.09375-20.484375 0-19.949219 12.132812-43.128907 27.09375-51.769531l29.578125-17.074219-11.019532-134.445313c-.867187-16.875-11.574218-32.886718-32.515624-44.976562-48.257813-27.859375-132.554688-24.367188-188.277344 7.804687-30.132813 17.398438-45.730469 39.613281-46.085938 60.757813l-14.226562 178.257812c-.507813 3-.746094 5.992188-.714844 8.960938l-.011719.136718h.015625c.261719 19.4375 12.171875 37.957032 36.210938 51.835938 53.660156 30.980469 147.390625 27.097656 209.351562-8.679688 23.949219-13.828124 39.636719-30.394531 46.78125-47.308593zm0 0" fill="#5b9617"/><path d="m301.976562 127.515625c-55.726562 32.171875-140.023437 35.664063-188.28125 7.804687-48.257812-27.863281-42.207031-76.53125 13.519532-108.703124 55.722656-32.175782 140.019531-35.667969 188.277344-7.804688 48.261718 27.859375 42.207031 76.527344-13.515626 108.703125zm0 0" fill="#a2bf26"/><path d="m119 116.890625 164.554688-95.007813c-40.894532-15.273437-100.472657-10.324218-141.449219 13.332032-40.976563 23.65625-49.566407 58.066406-23.105469 81.675781zm0 0" fill="#447111"/><path d="m142.105469 56.113281c33.234375-19.1875 78.699219-26.0625 116.511719-19.832031l24.9375-14.398438c-40.894532-15.273437-100.472657-10.324218-141.449219 13.332032-30.253907 17.464844-42.828125 40.792968-36.703125 61.304687 4.09375-14.359375 16.425781-28.699219 36.703125-40.40625zm0 0" fill="#5b9617"/><path d="m486.5625 123.300781c-14.777344-16.375-30.957031-20.015625-42.011719-11.511719l-.003906-.007812s-.035156.03125-.085937.074219c-.941407.734375-1.847657 1.554687-2.707032 2.464843-10.046875 9.59375-42.890625 45.367188-25.867187 89.027344 17.417969 44.675782 58.542969 33.929688 74.890625 27.53125 2.425781-.589844 4.722656-1.605468 6.851562-3.046875.011719-.007812.027344-.015625.027344-.015625l-.003906-.003906c4.921875-3.351562 8.925781-8.976562 11.472656-16.84375 8.246094-25.464844-1.855469-64.71875-22.5625-87.667969zm0 0" fill="#5b9617"/><path d="m486.5625 123.300781c20.707031 22.949219 30.808594 62.203125 22.5625 87.667969-8.246094 25.46875-31.714844 27.511719-52.425781 4.5625-20.707031-22.949219-30.808594-62.203125-22.5625-87.671875 8.246093-25.464844 31.71875-27.507813 52.425781-4.558594zm0 0" fill="#a2bf26"/><g fill="#447111"><path d="m449.167969 136.769531c2.5625 2.839844 3.8125 7.695313 2.792969 10.84375-1.023438 3.152344-3.925782 3.402344-6.484376.566407-2.5625-2.839844-3.8125-7.695313-2.792968-10.84375 1.019531-3.152344 3.921875-3.402344 6.484375-.566407zm0 0"/><path d="m473.476562 163.710938c2.5625 2.839843 3.8125 7.695312 2.792969 10.84375-1.019531 3.152343-3.921875 3.40625-6.484375.566406s-3.8125-7.695313-2.792968-10.84375c1.023437-3.152344 3.925781-3.402344 6.484374-.566406zm0 0"/><path d="m445.625 163.839844c2.53125-.21875 5.46875 3.035156 6.558594 7.269531s-.078125 7.84375-2.613282 8.066406c-2.53125.21875-5.46875-3.035156-6.558593-7.269531-1.089844-4.234375.078125-7.847656 2.613281-8.066406zm0 0"/><path d="m457.3125 194.175781c1.023438-3.152343 3.925781-3.40625 6.484375-.566406 2.5625 2.839844 3.8125 7.695313 2.792969 10.84375-1.019532 3.152344-3.925782 3.402344-6.484375.566406-2.5625-2.839843-3.8125-7.695312-2.792969-10.84375zm0 0"/><path d="m477.390625 210.007812c-1.089844-4.234374.078125-7.847656 2.613281-8.066406 2.53125-.21875 5.46875 3.035156 6.558594 7.269532 1.089844 4.234374-.078125 7.84375-2.613281 8.066406-2.53125.21875-5.46875-3.035156-6.558594-7.269532zm0 0"/><path d="m494.09375 202.0625c-2.5625-2.839844-3.8125-7.695312-2.789062-10.84375 1.019531-3.152344 3.921874-3.402344 6.480468-.5625 2.5625 2.835938 3.8125 7.691406 2.792969 10.84375-1.019531 3.148438-3.921875 3.398438-6.484375.5625zm0 0"/><path d="m497.640625 174.992188c-2.535156.222656-5.46875-3.03125-6.5625-7.269532-1.089844-4.234375.082031-7.84375 2.613281-8.0625 2.53125-.222656 5.46875 3.03125 6.558594 7.265625s-.078125 7.847657-2.609375 8.066407zm0 0"/><path d="m485.949219 144.65625c-1.019531 3.152344-3.921875 3.402344-6.484375.566406-2.5625-2.839844-3.8125-7.695312-2.789063-10.84375 1.019531-3.152344 3.921875-3.40625 6.480469-.566406 2.5625 2.839844 3.8125 7.695312 2.792969 10.84375zm0 0"/><path d="m465.871094 128.824219c1.089844 4.234375-.078125 7.847656-2.609375 8.066406-2.535157.21875-5.472657-3.035156-6.5625-7.269531-1.089844-4.234375.082031-7.84375 2.613281-8.066406 2.53125-.21875 5.46875 3.035156 6.558594 7.269531zm0 0"/></g></svg>