<svg height="512pt" viewBox="-12 0 511 512" width="512pt" xmlns="http://www.w3.org/2000/svg"><path d="m149.457031 0c-96.308593 55.605469-146.632812 126.449219-148.816406 194.105469l-.140625-.339844v208.984375c.039062.003906.074219.007812.113281.011719-.75 38.660156 14.1875 76.226562 45.414063 109.238281l440.738281-86.09375v-206.816406zm0 0" fill="#ffb82b"/><path d="m149.457031 0c-152.261719 87.910156-189.75 213.921875-103.429687 305.183594l440.738281-86.09375zm0 0" fill="#ffe14d"/><g fill="#fc9d21"><path d="m.640625 194.105469-.140625-.339844v208.984375c.039062.003906.074219.007812.113281.011719-.75 38.660156 14.1875 76.226562 45.414063 109.238281v-206.816406c-31.722656-33.535156-46.660156-71.773438-45.386719-111.078125zm0 0"/><path d="m198.085938 368.816406c0 28.554688-23.152344 51.703125-51.707032 51.703125-28.554687 0-51.703125-23.148437-51.703125-51.703125 0-28.554687 23.148438-51.703125 51.703125-51.703125 28.554688 0 51.707032 23.148438 51.707032 51.703125zm0 0"/><path d="m257.328125 430.214844c0 8.03125-6.511719 14.542968-14.542969 14.542968s-14.539062-6.511718-14.539062-14.542968 6.507812-14.539063 14.539062-14.539063 14.542969 6.507813 14.542969 14.539063zm0 0"/><path d="m408.671875 282.644531c0 8.03125-6.511719 14.539063-14.542969 14.539063s-14.542968-6.507813-14.542968-14.539063 6.511718-14.542969 14.542968-14.542969 14.542969 6.511719 14.542969 14.542969zm0 0"/><path d="m329.183594 365.742188c0 16.273437-13.191406 29.464843-29.464844 29.464843s-29.464844-13.191406-29.464844-29.464843c0-16.269532 13.191406-29.460938 29.464844-29.460938s29.464844 13.191406 29.464844 29.460938zm0 0"/><path d="m468.992188 356.160156c0 21.566406-17.480469 39.046875-39.046876 39.046875-21.566406 0-39.046874-17.480469-39.046874-39.046875s17.480468-39.046875 39.046874-39.046875c21.566407 0 39.046876 17.480469 39.046876 39.046875zm0 0"/></g><path d="m162.632812 119.972656c-20.398437 11.777344-51.253906 13.054688-68.921874 2.855469-17.664063-10.195313-15.449219-28.011719 4.949218-39.789063 20.398438-11.777343 51.253906-13.058593 68.917969-2.859374 17.667969 10.199218 15.453125 28.015624-4.945313 39.792968zm0 0" fill="#ffb82b"/><path d="m343.566406 209.035156c-27.960937 16.144532-70.261718 17.898438-94.480468 3.917969s-21.179688-38.402344 6.785156-54.550781c27.964844-16.144532 70.261718-17.894532 94.480468-3.914063s21.179688 38.402344-6.785156 54.546875zm0 0" fill="#ffb82b"/><path d="m137.75 223.941406c-10.867188 6.273438-27.308594 6.953125-36.722656 1.519532-9.410156-5.433594-8.230469-14.925782 2.636718-21.199219 10.867188-6.277344 27.308594-6.957031 36.722657-1.523438 9.414062 5.433594 8.230469 14.925781-2.636719 21.203125zm0 0" fill="#ffb82b"/></svg>