<svg height="512pt" viewBox="-105 0 512 512.00045" width="512pt" xmlns="http://www.w3.org/2000/svg"><path d="m51.535156 482.574219c61.609375 35.570312 154.804688 39.433593 208.164063 8.628906 24.582031-14.191406 36.386719-33.273437 35.976562-53.203125l.042969.007812v-224.609374l-.042969-.003907c-.214843-10.34375-3.753906-20.914062-10.488281-31.152343.378906-.453126.746094-.917969 1.082031-1.421876l8.929688-13.40625c5.699219-8.558593 7.621093-19.210937 5.28125-29.222656-2.34375-10.011718-8.796875-18.703125-17.699219-23.84375l-13.171875-7.605468c-.207031.511718 21.503906-41.132813-40.003906-72.546876-53.421875-27.285156-130.539063-33.25-175.53125-7.277343-36.980469 21.355469-39.722657 55.804687-10.683594 84.054687v23.179688l.027344.003906v.007812c-2.332031 1.152344-4.628907 2.34375-6.832031 3.617188-23.503907 13.570312-35.339844 31.605469-35.976563 50.578125h-.007813v224.609375h.007813c-.808594 24.097656 16.457031 49.703125 50.925781 69.605469zm201.34375-331.148438h.015625v-18.214843l14.246094 8.222656c1.984375 1.148437 2.65625 2.925781 2.882813 3.882812.226562.957032.410156 2.851563-.859376 4.761719l-5.898437 8.851563c-3.226563-2.5625-6.679687-5.070313-10.386719-7.503907zm0 0" fill="#b6c5ce"/><path d="m36.585938 137.78125c2.207031-1.273438 4.492187-2.472656 6.828124-3.625h.003907c.53125 16.429688 12.757812 33.636719 36.148437 47.144531 43.730469 25.25 109.886719 27.988281 147.761719 6.125 16.714844-9.652343 25.113281-22.488281 25.535156-35.984375 53.949219 35.453125 57.738281 85.761719 6.835938 115.152344-53.359375 30.804688-146.554688 26.941406-208.164063-8.628906-61.613281-35.570313-68.300781-89.378906-14.949218-120.183594zm0 0" fill="#d6e5e5"/><path d="m66.679688 128.261719c51.949218 29.996093 130.539062 33.253906 175.53125 7.277343 2.546874-1.472656 4.902343-3.011718 7.121093-4.605468 9.980469-7.128906 16.734375-15.378906 20.277344-24.191406l13.171875 7.605468c8.902344 5.140625 15.355469 13.832032 17.699219 23.84375 2.339843 10.011719.417969 20.664063-5.28125 29.222656 0 0-9.640625 14.390626-10.027344 14.847657-5.316406-8.070313-12.625-15.929688-21.921875-23.304688l5.914062-8.878906c1.273438-1.910156 1.085938-3.800781.859376-4.757813-.222657-.960937-.894532-2.738281-2.878907-3.882812l-14.25-8.226562v18.214843h-.027343c-.414063 13.503907-8.816407 26.34375-25.539063 36-37.875 21.867188-104.027344 19.125-147.761719-6.125-23.390625-13.503906-35.617187-30.710937-36.144531-47.144531h-.03125v-23.179688c6.289063 6.113282 14.039063 11.945313 23.289063 17.285157zm0 0" fill="#8e9daf"/><path d="m79.566406 100.070312c43.734375 25.25 109.886719 27.992188 147.761719 6.125 37.871094-21.867187 33.121094-60.058593-10.609375-85.308593s-109.886719-27.992188-147.761719-6.125c-37.871093 21.867187-33.121093 60.058593 10.609375 85.308593zm0 0" fill="#d6e5e5"/><path d="m90.414062 259.949219c3.292969 0 6.609376-1.035157 9.4375-3.179688 6.882813-5.21875 8.230469-15.027343 3.011719-21.910156l-5.324219-7.023437c-11.804687-15.574219-26.375-28.429688-43.304687-38.203126l-24.675781-14.246093c-8.207032-4.738281-18.316406-3.082031-24.582032 4.019531-6.269531 7.105469-6.652343 17.34375-.929687 24.894531l9.15625 12.078125c5.21875 6.882813 15.027344 8.234375 21.910156 3.015625 1.148438-.871093 2.144531-1.871093 2.980469-2.964843l.5.289062c13.300781 7.679688 24.746094 17.777344 34.019531 30.011719l5.328125 7.023437c3.074219 4.058594 7.746094 6.195313 12.472656 6.195313zm0 0" fill="#8e9daf"/></svg>