<svg height="512pt" viewBox="0 -78 512.0005 512" width="512pt" xmlns="http://www.w3.org/2000/svg"><path d="m512 169.144531c0-7.628906-3.777344-15.257812-11.328125-19.621093l-226.59375-130.824219c-11.1875-6.457031-24.96875-6.457031-36.15625 0l-226.59375 130.824219c-7.839844 4.527343-11.597656 12.574218-11.3007812 20.492187v16.367187c.3007812 7.308594 4.0625002 14.492188 11.3007812 18.671876l43.84375 25.316406c8.390625 27.363281 33.851563 47.261718 63.964844 47.261718 5.144531 0 10.148437-.597656 14.957031-1.699218l57.898438 33.425781c8.34375 27.445313 33.839843 47.417969 64.007812 47.417969 30.171875 0 55.667969-19.972656 64.011719-47.417969l47.363281-27.34375c4.742188 1.066406 9.667969 1.648437 14.734375 1.648437 30.035156 0 55.449219-19.796874 63.90625-47.050781l54.660156-31.558593c7.621094-4.402344 11.390625-12.128907 11.320313-19.828126h.003906zm0 0" fill="#e29454"/><path d="m11.328125 149.523438 226.59375-130.824219c11.1875-6.457031 24.96875-6.457031 36.15625 0l226.59375 130.824219c15.105469 8.722656 15.105469 30.519531 0 39.238281l-226.59375 130.828125c-11.1875 6.457031-24.96875 6.457031-36.15625 0l-226.59375-130.824219c-15.105469-8.722656-15.105469-30.519531 0-39.242187zm0 0" fill="#fff5ae"/><g fill="#f8db8f"><path d="m160.542969 183.585938c-27.144531 15.671874-68.207031 17.375-91.71875 3.804687-23.507813-13.574219-20.558594-37.28125 6.585937-52.953125 27.144532-15.671875 68.207032-17.375 91.714844-3.804688 23.511719 13.574219 20.5625 37.28125-6.582031 52.953126zm0 0"/><path d="m287.851562 109.949219c-27.144531 15.671875-68.207031 17.375-91.714843 3.800781-23.511719-13.570312-20.5625-37.277344 6.582031-52.953125 27.148438-15.671875 68.210938-17.371094 91.71875-3.800781 23.507812 13.574218 20.558594 37.28125-6.585938 52.953125zm0 0"/><path d="m295.140625 261.5c-27.144531 15.671875-68.210937 17.375-91.71875 3.804688-23.507813-13.574219-20.558594-37.28125 6.585937-52.953126 27.144532-15.671874 68.207032-17.375 91.714844-3.804687 23.507813 13.574219 20.5625 37.28125-6.582031 52.953125zm0 0"/><path d="m423.511719 188.546875c-27.144531 15.671875-68.207031 17.375-91.714844 3.800781-23.507813-13.574218-20.5625-37.28125 6.585937-52.953125 27.144532-15.671875 68.207032-17.375 91.714844-3.800781 23.507813 13.574219 20.5625 37.28125-6.585937 52.953125zm0 0"/></g><path d="m160.542969 183.589844c9.351562-5.402344 15.824219-11.757813 19.335937-18.320313-1.824218-34.199219-28.296875-91.628906-60.691406-91.628906-33.574219 0-60.792969 61.699219-60.792969 95.273437 0 3.785157.363281 7.484376 1.027344 11.074219 2.4375 2.683594 5.558594 5.179688 9.40625 7.402344 23.507813 13.570313 64.570313 11.871094 91.714844-3.800781zm0 0" fill="#f7bd69"/><path d="m295.140625 261.503906c9.351563-5.402344 15.824219-11.757812 19.335937-18.320312-1.824218-34.199219-28.296874-91.628906-60.691406-91.628906-33.574218 0-60.792968 61.699218-60.792968 95.273437 0 3.785156.363281 7.484375 1.027343 11.074219 2.4375 2.683594 5.558594 5.179687 9.402344 7.402344 23.507813 13.570312 64.574219 11.871093 91.71875-3.800782zm0 0" fill="#f7bd69"/><path d="m423.511719 188.546875c9.355469-5.402344 15.828125-11.753906 19.335937-18.320313-1.824218-34.195312-28.292968-91.628906-60.6875-91.628906-33.574218 0-60.792968 61.699219-60.792968 95.277344 0 3.78125.363281 7.480469 1.023437 11.070312 2.441406 2.6875 5.558594 5.183594 9.40625 7.402344 23.507813 13.574219 64.570313 11.871094 91.714844-3.800781zm0 0" fill="#f7bd69"/><path d="m287.851562 109.949219c9.355469-5.398438 15.824219-11.753907 19.335938-18.320313-1.820312-34.195312-28.296875-91.628906-60.6875-91.628906-33.578125 0-60.792969 61.699219-60.792969 95.277344 0 3.78125.359375 7.480468 1.023438 11.074218 2.4375 2.683594 5.558593 5.179688 9.40625 7.398438 23.507812 13.574219 64.570312 11.871094 91.714843-3.800781zm0 0" fill="#f7bd69"/></svg>