<svg height="511pt" viewBox="-14 0 511 511.99953" width="511pt" xmlns="http://www.w3.org/2000/svg"><path d="m483.613281 298.027344c0 133.40625-108.148437 213.972656-241.554687 213.972656-133.410156 0-241.558594-108.148438-241.558594-241.558594 0-133.40625 111.527344-215.425781 244.933594-215.425781 133.410156 0 238.179687 109.601563 238.179687 243.011719zm0 0" fill="#bf0025"/><path d="m345.980469 140.640625c-14.058594-9.105469-35.011719-15.8125-49.519531-15.902344 6.082031-8.417969 7.558593-8.980469 16.007812-15.808593 21.652344-17.484376 57.460938-26.644532 57.460938-26.644532s-47.46875-12.492187-78.277344-4.164062c-7.84375 2.117187-15.574219 6.78125-22.75 12.546875 3.113281-7.429688 5.996094-14.769531 7.679687-20.175781 5.152344-16.53125 9.886719-36.964844 9.886719-36.964844s-32.238281 9.027344-43.328125 30.519531c-4.210937 8.164063-6.597656 17.875-7.941406 26.785156-7.085938-5.21875-14.597657-9.597656-21.828125-12.710937-36.152344-15.574219-84.792969.402344-84.792969.402344s42.324219 12.921874 63.972656 30.40625c8.453125 6.828124 16.007813 9.171874 22.089844 17.585937-14.507813.09375-45.503906 8.089844-59.5625 17.195313-36.125 23.402343-39.972656 85.96875-39.972656 85.96875s32.519531-35.074219 80.664062-65.335938c10.585938-6.652344 22.5-10.449219 33.136719-12.628906-3.136719 8.566406-6.21875 19.46875-7.632812 31.828125-3.4375 30.089843 24.1875 93.707031 24.1875 93.707031s19.226562-45.5625 23.527343-79.953125c2.207031-17.652344-.007812-34.386719-2.679687-46.503906 11.414062 2.289062 25.148437 6.289062 35.589844 10.070312 53.464843 19.371094 88.015624 68.816407 88.015624 68.816407s-7.808593-65.636719-43.933593-89.039063zm0 0" fill="#447111"/><path d="m247.910156 131.960938c-.152344 0-.304687-.003907-.457031-.007813-9.484375-.246094-16.972656-8.128906-16.742187-17.605469.019531-.820312.847656-58.523437-31.207032-83.613281-7.476562-5.851563-8.796875-16.65625-2.945312-24.136719 5.855468-7.476562 16.660156-8.796875 24.136718-2.941406 45.839844 35.871094 44.472657 108.488281 44.394532 111.5625-.246094 9.335938-7.894532 16.742188-17.179688 16.742188zm0 0" fill="#5b9617"/></svg>