<svg height="511pt" viewBox="-90 0 511 511.9998" width="511pt" xmlns="http://www.w3.org/2000/svg"><path d="m5.65625 125.511719s7.378906-51.621094 47.667969-58.378907c45.347656-7.605468 71.917969 27.59375 89.675781 67.851563 17.761719 40.253906 25.757812 61.746094 48.546875 98.269531 46.175781 74.011719 144.34375 86.570313 140.933594 167.203125-3.925781 92.824219-109.085938 158.15625-229.734375 69.601563-133.695313-98.128906-97.089844-344.546875-97.089844-344.546875zm0 0" fill="#2b5d99"/><path d="m136.429688 121.199219c-17.21875-56.769531-57.414063-68.015625-79.039063-65.941407-2.261719-9.222656-3.761719-21.34375-.414063-32.300781 2.867188-9.382812-2.414062-19.308593-11.796874-22.175781-9.386719-2.871094-19.308594 2.414062-22.171876 11.792969-6.714843 21.976562-2.496093 44.308593 1.832032 58.417969-7.78125 7.289062-14.351563 17.480468-18.59375 32.023437-8.285156 28.414063-5.171875 74.195313-5.171875 74.195313s12.871093-19.730469 16.421875-41.4375c2.550781-15.589844 3.984375-29.570313 3.984375-29.570313s6.078125 8.058594 13.777343 20.492187c7.695313 12.429688 32.558594 25.453126 32.558594 25.453126s4.734375-20.125 4.90625-36.703126c.171875-16.574218 0-31.078124 0-31.078124s14.78125 12.503906 28.835938 20.621093c20.222656 11.675781 34.871094 16.210938 34.871094 16.210938zm0 0" fill="#5b9617"/></svg>