<svg height="512pt" viewBox="-64 0 512 512.00097" width="512pt" xmlns="http://www.w3.org/2000/svg"><path d="m308.507812 119.371094c-36.261718-20.34375-76.707031-6.191406-116.867187-4.976563-37.710937 1.140625-75.171875-11.921875-108.675781 8.125l-11.734375 7.019531c-48.945313 29.289063-76.425781 84.339844-70.410157 141.0625 0 0 13.96875 148.871094 78.542969 202.832032 14.855469 10.347656 33.054688 13.582031 50.003907 9.71875 2.265624 2.53125 3.820312 4.054687 3.820312 4.054687 38.941406 33.058594 81.632812 33.058594 107.832031 0 0 0 1.964844-1.925781 4.703125-5.058593 17.976563 5.28125 37.785156 2.398437 53.738282-8.714844 55.84375-39.785156 81.6875-201.558594 81.6875-201.558594 10.515624-61.089844-18.585938-122.175781-72.640626-152.503906zm0 0" fill="#bf0025"/><path d="m225.070312 151.199219c7.800782-2.707031 14.761719 5.71875 10.816407 12.976562-6.074219 11.167969-17.207031 23.070313-37.511719 26.628907-41.253906 7.230468-54.863281-22.539063-56.140625-31.894532-1.085937-7.964844 46.183594 5.019532 82.835937-7.710937zm0 0" fill="#8f001c"/><path d="m193.097656 151.554688c10.71875-40.171876.355469-84.796876-31.15625-116.3125-31.515625-31.511719-76.140625-41.875-116.3125-31.15625-10.71875 40.171874-.355468 84.800781 31.15625 116.3125 31.515625 31.515624 76.140625 41.878906 116.3125 31.15625zm0 0" fill="#5b9617"/><path d="m191.617188 177.90625c-8.273438 0-15.527344-6.042969-16.800782-14.476562-.375-2.496094-8.535156-61.757813 50.777344-116.023438 6.933594-6.339844 17.691406-5.859375 24.035156 1.070312 6.339844 6.929688 5.863282 17.691407-1.070312 24.035157-46.078125 42.15625-40.164063 85.414062-40.097656 85.84375 1.402343 9.292969-4.992188 17.960937-14.285157 19.359375-.859375.128906-1.714843.191406-2.558593.191406zm0 0" fill="#8f001c"/></svg>