<svg height="512pt" viewBox="-180 0 512 512.0009" width="512pt" xmlns="http://www.w3.org/2000/svg"><path d="m151.378906 165.414062-.019531.003907c-.023437-10.015625-6.078125-19.574219-18.453125-26.714844-27.367188-15.800781-75.167969-13.820313-106.765625 4.425781-17.808594 10.28125-26.667969 23.535156-26.1132812 35.972656l-.0273438.003907.0742188.527343c.015625.265626.7656252 5.8125 1.9218752 14.300782l17.140625 127.855468c8.386719 62.546876 23.585937 123.988282 45.324219 183.230469 3.546874 9.667969 17.386718 9.171875 20.230468-.726562l19.46875-67.738281c14.328125-49.859376 24.902344-100.722657 31.636719-152.164063l9.90625-75.675781zm0 0" fill="#ff491f"/><path d="m111.929688 179.234375c-23.109376 13.34375-58.070313 14.792969-78.085938 3.238281-20.015625-11.554687-17.503906-31.738281 5.605469-45.082031s58.070312-14.792969 78.085937-3.238281c20.015625 11.554687 17.503906 31.738281-5.605468 45.082031zm0 0" fill="#bf3717"/><path d="m101.0625 166.910156c-16.179688 9.339844-40.65625 10.355469-54.667969 2.265625-14.015625-8.089843-12.257812-22.222656 3.925781-31.5625 16.179688-9.34375 40.65625-10.359375 54.667969-2.269531s12.253907 22.222656-3.925781 31.566406zm0 0" fill="#ff9279"/><path d="m61.628906 152.257812s-20.910156-36.652343-21.632812-78.386718c-.523438-30.289063 4.328125-56.242188 16.585937-57.683594 12.257813-1.441406 19.109375 20.191406 19.109375 20.191406s15.863282-40.382812 38.757813-36.054687c22.890625 4.328125-9.554688 62.734375-9.554688 62.734375s14.566407-12.730469 17.730469 4.324218c3.457031 18.628907-19.347656 63.710938-30.582031 84.433594-4.296875 7.921875-14.128907 10.972656-22.148438 6.863282-2.917969-1.492188-5.804687-3.558594-8.265625-6.421876zm0 0" fill="#249155"/><g fill="#bf3717"><path d="m48.117188 226.929688c-31.980469-6.316407-43.148438-28.5625-43.6875-29.671876-.605469-1.292968-1.441407-2.40625-2.433594-3.324218 1.355468 9.960937 3.277344 23.96875 5.238281 38.25 8.953125 6.679687 20.957031 12.863281 36.691406 15.96875.707031.140625 1.410157.207031 2.105469.207031 5.0625 0 9.582031-3.570313 10.597656-8.722656 1.160156-5.859375-2.652344-11.550781-8.511718-12.707031zm0 0"/><path d="m142.03125 236.75c-23.273438 25.550781-54.558594 31.253906-55.144531 31.355469-5.878907.984375-9.855469 6.539062-8.890625 12.425781.871094 5.300781 5.457031 9.0625 10.660156 9.0625.582031 0 1.171875-.046875 1.765625-.144531 1.246094-.207031 23.9375-4.136719 47.378906-20.445313zm0 0"/><path d="m48.117188 345.574219c-11.707032-2.3125-20.613282-6.761719-27.242188-11.523438 1.347656 9.066407 2.851562 18.105469 4.488281 27.117188 5.511719 2.320312 11.679688 4.269531 18.5625 5.628906.707031.140625 1.410157.207031 2.105469.207031 5.0625 0 9.582031-3.570312 10.597656-8.722656 1.160156-5.859375-2.652344-11.550781-8.511718-12.707031zm0 0"/><path d="m120.207031 373.257812c-17.3125 10.566407-32.910156 13.417969-33.320312 13.492188-5.878907.980469-9.855469 6.539062-8.890625 12.421875.871094 5.300781 5.457031 9.0625 10.660156 9.0625.582031 0 1.171875-.046875 1.765625-.144531.796875-.128906 10.375-1.792969 23.304687-7.238282 2.289063-9.167968 4.445313-18.367187 6.480469-27.59375zm0 0"/><path d="m66.453125 453.964844c-8.457031-1.671875-15.445313-4.460938-21.179687-7.671875 2.578124 8.949219 5.292968 17.859375 8.160156 26.726562 2.804687.824219 5.742187 1.558594 8.828125 2.167969.707031.140625 1.410156.207031 2.105469.207031 5.058593 0 9.582031-3.570312 10.597656-8.722656 1.160156-5.859375-2.652344-11.550781-8.511719-12.707031zm0 0"/></g></svg>