<svg height="511pt" viewBox="-33 1 511 511.99979" width="511pt" xmlns="http://www.w3.org/2000/svg"><path d="m248.332031 174.285156-247.832031 143.894532v80.179687l15.535156 8.96875 232.023438-134.699219 181.761718 104.542969 15.535157-8.96875v-80.171875zm0 0" fill="#f8db8f"/><path d="m248.058594 192.449219 181.761718 104.589843v80.132813l-181.761718-104.542969zm0 0" fill="#f7bd69"/><path d="m445.355469 288.03125-197.023438-113.746094-247.832031 143.894532 15.535156 8.96875 231.960938-134.679688 181.824218 104.570312zm0 0" fill="#fff5ae"/><path d="m248.332031 85.605469-247.832031 143.894531v80.179688l15.535156 8.96875 232.023438-134.699219 181.761718 104.546875 15.535157-8.96875v-80.171875zm0 0" fill="#f8db8f"/><path d="m248.058594 103.773438 181.761718 104.585937v80.136719l-181.761718-104.546875zm0 0" fill="#f7bd69"/><path d="m445.355469 199.355469-197.023438-113.746094-247.832031 143.890625 15.535156 8.96875 231.960938-134.679688 181.824218 104.570313zm0 0" fill="#fff5ae"/><path d="m285.527344 195.492188s27.769531-58.363282 24.972656-107.125c-1.375-24.011719-19.398438-52.882813-37.339844-76.003907-15.757812-20.304687-47.765625-14.617187-55.535156 9.886719-14.59375 46.03125-29.960938 111.851562-13.910156 149.277344 26.480468 61.726562 81.8125 23.964844 81.8125 23.964844zm0 0" fill="#1b6d40"/><path d="m260.417969 106.609375c-.082031-39.195313-10.875-76.257813-10.875-76.257813s1.945312 48.28125-1.136719 86.226563c-3.082031 37.949219-11.332031 98.957031-11.332031 98.957031l12.898437-2.375s10.523438-67.351562 10.445313-106.550781zm0 0" fill="#a2bf26"/><path d="m244.84375 264.316406s-16.429688-33.113281-2.394531-80.410156c14.035156-47.296875 47.871093-74.328125 73.292969-87.660156 25.425781-13.332032 55.382812-17.652344 64.257812-6.628906 4.1875 5.199218-3.964844 109.34375-35.480469 154.492187-31.519531 45.148437-99.675781 20.207031-99.675781 20.207031zm0 0" fill="#5b9617"/><path d="m213.757812 288.089844s34.316407-36.097656 32.097657-79.089844c-2.21875-42.988281-23.851563-85.863281-46.453125-104.949219-27.519532-23.238281-65.660156-27.417969-71.371094-17.589843-5.707031 9.828124-12.53125 75.667968-1.261719 119.988281 11.269531 44.320312 59.992188 77.566406 86.988281 81.640625zm0 0" fill="#5b9617"/><path d="m210.570312 352.4375s8.84375-105.296875-2.214843-146.335938c-15.496094-57.503906-48.628907-82.042968-48.628907-82.042968s31.441407 50.601562 37.347657 92.710937c5.902343 42.109375.257812 125.191407.257812 125.191407s1.40625 8.738281 13.238281 10.476562zm0 0" fill="#d8d836"/><path d="m210.570312 352.4375s26.042969-95.019531 54.796876-145.546875c28.75-50.535156 71.0625-82.007813 71.0625-82.007813s-53.316407 72.523438-70.996094 115.4375c-17.675782 42.914063-38.089844 105.460938-38.089844 105.460938s-.945312 5.421875-16.773438 6.65625zm0 0" fill="#d8d836"/><path d="m175.792969 272.902344s5.972656-34.203125-8.792969-49.878906c-14.765625-15.679688-28.277344-20.507813-52.679688-22.195313-24.402343-1.6875-41.066406 2.027344-42.914062 8.15625s15.171875 54.871094 52.421875 65.898437c37.253906 11.03125 51.964844-1.980468 51.964844-1.980468zm0 0" fill="#249155"/><path d="m210.796875 346.070312s-13.402344-64.726562-44.214844-91.144531-84.316406-40.789062-84.316406-40.789062 65.898437 33.851562 83.316406 57.269531c17.421875 23.414062 31.75 70.554688 31.75 70.554688s2.085938 8.625 13.464844 4.109374zm0 0" fill="#d8d836"/><path d="m290.59375 248.253906s16.28125-20.054687 39.324219-24.953125c10.910156-2.316406 24.644531-1.359375 36.085937.289063 12.671875 1.828125 19.585938 15.882812 13.261719 27.007812-7.871094 13.839844-21.566406 30.148438-44.195313 36.699219-42.574218 12.324219-62.121093-17.015625-44.476562-39.042969zm0 0" fill="#1b6d40"/><path d="m370.011719 239s-61.933594 4.273438-96.910157 34.261719c-34.980468 29.984375-61.421874 75.226562-61.421874 75.226562l13.882812-.34375s13.722656-29.867187 48.96875-61.667969c35.253906-31.800781 95.480469-47.476562 95.480469-47.476562zm0 0" fill="#d8d836"/><path d="m215.476562 289.96875s-18.179687-7.652344-17.90625-47.527344c.269532-39.875 19.0625-66.886718 38.160157-90.390625 8.035156-9.890625 23.015625-21.660156 37.675781-31.972656 16.542969-11.636719 39.242188.96875 38.15625 21.167969-2.261719 42.203125-7.703125 101.140625-20.722656 124.609375-21.277344 38.355469-75.363282 24.113281-75.363282 24.113281zm0 0" fill="#31ba55"/><path d="m202.6875 349.460938s11.695312-81.082032 34.386719-133.925782c22.691406-52.84375 51.449219-79.199218 51.449219-79.199218s-46.203126 82.8125-57.351563 138.773437c-7.351563 36.894531-14.5625 74.933594-14.5625 74.933594s-1.4375 2.988281-13.921875-.582031zm0 0" fill="#d8d836"/><path d="m219.273438 249.433594c8.957031 36.71875-15.402344 66.152344-52.117188 75.109375-36.71875 8.957031-73.746094-13.550781-82.703125-50.265625-8.957031-36.71875 16.234375-66.78125 52.953125-75.738282 36.714844-8.957031 72.910156 14.175782 81.867188 50.894532zm0 0" fill="#bf0025"/><path d="m108.589844 268.445312c-1.992188-.222656-3.949219-.945312-5.695313-2.1875-7.15625-5.113281-10.933593-12.359374-12.910156-19.007812-2.4375-8.199219 3.96875-16.335938 12.507813-15.847656 5.222656.296875 9.757812 3.816406 11.179687 8.847656.734375 2.59375 1.8125 5.070312 3.378906 6.1875 5.472657 3.910156 6.742188 11.511719 2.832031 16.984375-2.664062 3.730469-7.042968 5.507813-11.292968 5.023437zm0 0" fill="#ea2642"/><path d="m170.824219 215.355469c-4.480469-1.5625-10.695313-2-14.695313-1.050781 1.109375-2.726563 1.476563-2.980469 3.34375-5.425782 4.785156-6.265625 14.027344-11.191406 14.027344-11.191406s-13.902344-.25-21.824219 4.109375c-2.019531 1.109375-3.832031 2.910156-5.417969 4.980469.355469-2.253906.65625-4.46875.757813-6.070313.308594-4.894531.238281-10.835937.238281-10.835937s-8.265625 4.648437-9.875 11.308594c-.609375 2.53125-.617187 5.363281-.386718 7.90625-2.300782-.960938-4.664063-1.664063-6.863282-2.035157-10.992187-1.855469-23.308594 5.804688-23.308594 5.804688s12.515626.714843 19.648438 4.074219c2.785156 1.3125 5.019531 1.449218 7.261719 3.359374-3.988281.996094-11.984375 5.28125-15.242188 8.730469-8.371093 8.867188-5.226562 26.34375-5.226562 26.34375s6.59375-11.835937 17.8125-23.398437c2.46875-2.542969 5.492187-4.386719 8.273437-5.699219-.289062 2.566406-.40625 5.773437.035156 9.269531 1.074219 8.511719 12.949219 24.167969 12.949219 24.167969s2.234375-13.832031 1.105469-23.582031c-.578125-5.007813-2.308594-9.464844-3.859375-12.621094 3.296875-.136719 7.34375.042969 10.472656.382812 16.015625 1.742188 28.84375 13.03125 28.84375 13.03125s-6.554687-17.542968-18.070312-21.558593zm0 0" fill="#447111"/><path d="m143.25 219.550781c-.039062.011719-.082031.019531-.125.03125-2.625.566407-5.214844-1.097656-5.789062-3.722656-.050782-.226563-3.695313-16.164063-14.203126-20.917969-2.449218-1.109375-3.539062-3.996094-2.429687-6.445312 1.109375-2.453125 3.996094-3.539063 6.445313-2.429688 15.023437 6.792969 19.523437 26.871094 19.707031 27.722656.558593 2.585938-1.046875 5.140626-3.605469 5.761719zm0 0" fill="#5b9617"/><path d="m429.820312 279.0625-232.359374 134.910156-181.394532-104.832031-15.566406 9.039063v80.179687l196.769531 113.617187v.023438l.019531-.011719.019532.011719v-.023438l248.046875-143.765624v-80.179688zm0 0" fill="#f7bd69"/><path d="m445.355469 288.03125-248.054688 143.789062v80.179688l248.054688-143.789062zm0 0" fill="#f8db8f"/><path d="m445.355469 288.03125-15.535157-8.96875-232.359374 134.910156-181.425782-104.742187-15.535156 8.96875 196.808594 113.621093.015625-.007812zm0 0" fill="#fff5ae"/><path d="m429.820312 190.382812-232.359374 134.910157-181.394532-104.828125-15.566406 9.035156v80.179688l196.769531 113.617187v.023437l.019531-.011718.019532.011718v-.023437l248.046875-143.765625v-80.179688zm-305.894531 143.023438c.082031-.339844.144531-.683594.183594-1.039062-.226563-.105469-.457031-.203126-.679687-.332032l-41.582032-24.007812c-7.410156-4.277344-11.972656-12.179688-11.972656-20.738282 0-.324218.03125-.640624.0625-.953124.226562.109374.457031.203124.679688.332031l41.582031 24.011719c7.410156 4.273437 11.972656 12.179687 11.972656 20.734374 0 .695313-.09375 1.355469-.246094 1.992188zm0 0" fill="#f7bd69"/><path d="m445.355469 199.355469-248.054688 143.789062v80.175781l248.054688-143.789062zm0 0" fill="#f8db8f"/><path d="m445.355469 199.355469-15.535157-8.96875-232.359374 134.90625-181.425782-104.738281-15.535156 8.96875 196.808594 113.621093.015625-.011719zm0 0" fill="#fff5ae"/><path d="m124.109375 332.367188c-.226563-.105469-.457031-.203126-.679687-.332032l-41.582032-24.007812c-7.410156-4.277344-11.972656-12.179688-11.972656-20.738282 0-.324218.027344-.640624.0625-.953124.140625.066406.28125.140624.417969.207031-5.597657-2.992188-12.4375 1.039062-12.4375 7.457031 0 8.554688 4.5625 16.460938 11.972656 20.738281l41.582031 24.007813c5.042969 2.910156 11.195313-.039063 12.453125-5.34375.082031-.335938.144531-.679688.183594-1.035156zm0 0" fill="#b98e4f"/><path d="m123.929688 333.402344c.070312-.3125.132812-.625.171874-.949219-.042968.324219-.101562.636719-.171874.949219zm0 0" fill="#b98e4f"/><path d="m123.429688 332.035156-41.582032-24.007812c-7.410156-4.277344-11.972656-12.179688-11.972656-20.738282 0-.324218.03125-.636718.0625-.953124-5.511719-2.578126-12.019531 1.40625-12.019531 7.667968 0 8.554688 4.566406 16.457032 11.972656 20.734375l41.582031 24.007813c5.363282 3.09375 11.984375-.429688 12.636719-6.378906-.226563-.105469-.457031-.203126-.679687-.332032zm0 0" fill="#f8db8f"/></svg>