<svg height="512pt" viewBox="0 -15 512 512" width="512pt" xmlns="http://www.w3.org/2000/svg"><path d="m353.109375 211.277344c0-44.191406-26.871094-95.53125-60.015625-114.667969-15.574219-8.992187-29.765625-9.269531-40.429688-2.453125v-.003906l-49.96875 28.023437.007813.003907c-12.183594 7.613281-19.84375 24.390624-19.84375 47.984374 0 44.195313 26.867187 95.53125 60.011719 114.667969 14.554687 8.402344 27.898437 9.195313 38.289062 3.703125l-.003906.003906 51.921875-29.15625h-.019531c12.300781-7.550781 20.050781-24.378906 20.050781-48.105468zm0 0" fill="#2b5d99"/><g fill="#162f4d"><path d="m219.09375 133.089844c-4.113281 0-7.757812-2.945313-8.5-7.136719-.828125-4.699219 2.304688-9.179687 7.003906-10.011719 1.523438-.265625 37.621094-6.542968 63.984375-2.019531 4.703125.804687 7.859375 5.269531 7.054688 9.972656-.804688 4.703125-5.265625 7.855469-9.976563 7.054688-23.429687-4.019531-57.710937 1.945312-58.054687 2.007812-.507813.089844-1.011719.132813-1.511719.132813zm0 0"/><path d="m246.585938 97.5625 16.472656 9.347656c1.347656.765625 2.8125 1.125 4.253906 1.125 3.007812 0 5.933594-1.570312 7.523438-4.375 2.355468-4.148437.898437-9.421875-3.25-11.777344l-4.222657-2.394531c-5.386719.304688-10.34375 1.882813-14.703125 4.667969l.003906-.003906zm0 0"/><path d="m296.429688 98.664062c-.207032 8.78125-.535157 27.648438.136718 38.417969.289063 4.578125 4.089844 8.101563 8.613282 8.101563.183593 0 .367187-.003906.546874-.019532 4.761719-.296874 8.382813-4.398437 8.085938-9.160156-.371094-5.945312-.410156-14.84375-.335938-22.886718-5.371093-5.683594-11.089843-10.578126-17.046874-14.453126zm0 0"/><path d="m317.5625 171.101562c-1.40625 0-2.832031-.34375-4.148438-1.070312-9.171874-5.035156-38.503906-5.902344-54.828124-5.273438-4.710938.195313-8.78125-3.53125-8.96875-8.296874-.183594-4.769532 3.53125-8.78125 8.300781-8.96875 4.816406-.183594 47.492187-1.558594 63.808593 7.394531 4.183594 2.296875 5.710938 7.550781 3.417969 11.730469-1.574219 2.863281-4.53125 4.484374-7.582031 4.484374zm0 0"/><path d="m340.691406 155.394531c-5.171875 6.417969-17.109375 21.507813-22.746094 30.871094-2.460937 4.085937-1.144531 9.394531 2.945313 11.855469 1.390625.839844 2.929687 1.238281 4.445313 1.238281 2.933593 0 5.789062-1.492187 7.410156-4.183594 3.375-5.609375 9.601562-13.914062 14.832031-20.640625-1.878906-6.492187-4.191406-12.910156-6.886719-19.140625zm0 0"/><path d="m331.679688 227.539062c-2.121094 0-4.246094-.773437-5.914063-2.34375-5.558594-5.21875-30.953125-14.804687-47.210937-19.941406-4.550782-1.4375-7.070313-6.292968-5.632813-10.839844 1.4375-4.550781 6.285156-7.078124 10.835937-5.636718 7.164063 2.261718 43.429688 14.046875 53.839844 23.828125 3.476563 3.265625 3.644532 8.734375.378906 12.210937-1.699218 1.808594-3.996093 2.722656-6.296874 2.722656zm0 0"/><path d="m352.769531 219.589844-.707031.566406c-13.414062 10.757812-22.539062 18.019531-27.125 21.585938-3.765625 2.929687-4.445312 8.355468-1.515625 12.121093 1.703125 2.191407 4.25 3.335938 6.824219 3.335938 1.855468 0 3.722656-.59375 5.296875-1.820313 1.902343-1.480468 4.578125-3.589844 7.980469-6.289062 4.96875-7.375 8.234374-17.335938 9.246093-29.5zm0 0"/><path d="m319.949219 259.785156c-16.554688-4.738281-28.796875-18.039062-28.917969-18.171875-3.191406-3.53125-8.644531-3.8125-12.183594-.625-3.546875 3.191407-3.832031 8.65625-.640625 12.199219.550781.609375 12.09375 13.269531 29.367188 20.515625l17.527343-9.839844c-1.078124-1.914062-2.875-3.425781-5.152343-4.078125zm0 0"/><path d="m302.886719 239.464844c0 44.191406-26.871094 64.503906-60.015625 45.371094-33.144532-19.136719-60.011719-70.476563-60.011719-114.667969 0-44.191407 26.867187-64.507813 60.011719-45.371094 33.144531 19.136719 60.015625 70.472656 60.015625 114.667969zm0 0"/></g><path d="m312.269531 64.242188c-17.835937-10.296876-34.082031-10.613282-46.292969-2.808594v-.003906l-54.605468 30.625c8.414062-4.292969 8.414062-4.292969 0 0l7.519531 11.222656c10.007813-4.1875 22.425781-2.921875 35.875 4.84375 31.445313 18.15625 57.222656 65.289062 59.78125 107.8125l.019531.019531 8.710938 5.03125.203125.117187 57.261719-33.0625c-2.8125-48.78125-32.382813-102.960937-68.472657-123.796874zm0 0" fill="#ea2642"/><path d="m512 307.320312c0-36.972656-22.476562-79.921874-50.207031-95.929687-13.03125-7.523437-24.902344-7.753906-33.824219-2.054687v-.003907l-41.804688 23.445313.011719.003906c-10.195312 6.367188-16.605469 20.40625-16.605469 40.144531 0 36.96875 22.480469 79.917969 50.207032 95.929688 12.175781 7.027343 23.339844 7.691406 32.03125 3.097656l43.433594-24.390625h-.015626c10.289063-6.316406 16.773438-20.398438 16.773438-40.242188zm0 0" fill="#2b5d99"/><path d="m399.882812 241.90625c-3.4375 0-6.488281-2.464844-7.105468-5.96875-.695313-3.929688 1.925781-7.679688 5.859375-8.375 1.273437-.226562 31.46875-5.476562 53.527343-1.691406 3.933594.675781 6.574219 4.410156 5.898438 8.34375-.671875 3.933594-4.40625 6.570312-8.34375 5.902344-19.601562-3.363282-48.28125 1.628906-48.570312 1.679687-.421876.074219-.847657.109375-1.265626.109375zm0 0" fill="#162f4d"/><path d="m422.882812 212.183594 13.78125 7.824218c1.128907.636719 2.355469.941407 3.5625.941407 2.515626 0 4.960938-1.316407 6.292969-3.664063 1.96875-3.46875.75-7.878906-2.71875-9.851562l-3.53125-2.003906c-4.507812.253906-8.65625 1.578124-12.300781 3.90625v-.003907zm0 0" fill="#162f4d"/><path d="m464.582031 213.109375c-.171875 7.34375-.449219 23.128906.117188 32.136719.238281 3.832031 3.417969 6.777344 7.203125 6.777344.152344 0 .308594-.003907.457031-.011719 3.988281-.25 7.011719-3.683594 6.765625-7.664063-.3125-4.976562-.34375-12.421875-.28125-19.148437-4.492188-4.753907-9.277344-8.851563-14.261719-12.089844zm0 0" fill="#162f4d"/><path d="m482.261719 273.707031c-1.175781 0-2.367188-.285156-3.472657-.894531-7.671874-4.210938-32.210937-4.941406-45.867187-4.414062-3.9375.164062-7.347656-2.953126-7.5-6.941407-.15625-3.988281 2.953125-7.347656 6.941406-7.5 4.03125-.15625 39.734375-1.304687 53.382813 6.1875 3.5 1.917969 4.777344 6.3125 2.859375 9.8125-1.316407 2.394531-3.789063 3.75-6.34375 3.75zm0 0" fill="#162f4d"/><path d="m501.613281 260.566406c-4.328125 5.371094-14.316406 17.996094-19.03125 25.828125-2.058593 3.417969-.957031 7.859375 2.464844 9.917969 1.164063.703125 2.449219 1.035156 3.71875 1.035156 2.453125 0 4.839844-1.246094 6.199219-3.5 2.824218-4.691406 8.03125-11.640625 12.40625-17.269531-1.566406-5.429687-3.503906-10.800781-5.757813-16.011719zm0 0" fill="#162f4d"/><path d="m494.070312 320.921875c-1.773437 0-3.550781-.648437-4.945312-1.957031-4.648438-4.371094-25.894531-12.386719-39.496094-16.6875-3.804687-1.203125-5.914062-5.261719-4.714844-9.066406 1.203126-3.808594 5.261719-5.921876 9.070313-4.714844 5.992187 1.894531 36.328125 11.75 45.039063 19.933594 2.910156 2.730468 3.050781 7.304687.320312 10.214843-1.425781 1.511719-3.347656 2.277344-5.273438 2.277344zm0 0" fill="#162f4d"/><path d="m511.714844 314.273438-.589844.472656c-11.222656 8.996094-18.855469 15.074218-22.691406 18.058594-3.152344 2.449218-3.71875 6.988281-1.269532 10.140624 1.425782 1.832032 3.558594 2.789063 5.710938 2.789063 1.550781 0 3.113281-.496094 4.433594-1.519531 1.589844-1.238282 3.828125-3.003906 6.675781-5.265625 4.152344-6.167969 6.882813-14.5 7.730469-24.675781zm0 0" fill="#162f4d"/><path d="m484.257812 347.898438c-13.847656-3.964844-24.089843-15.089844-24.191406-15.203126-2.671875-2.953124-7.230468-3.191406-10.195312-.519531-2.964844 2.667969-3.203125 7.238281-.53125 10.203125.457031.511719 10.113281 11.101563 24.566406 17.164063l14.660156-8.234375c-.898437-1.597656-2.402344-2.863282-4.308594-3.410156zm0 0" fill="#162f4d"/><path d="m469.984375 330.898438c0 36.96875-22.476563 53.964843-50.207031 37.953124-27.726563-16.007812-50.207032-58.957031-50.207032-95.925781 0-36.972656 22.476563-53.964843 50.207032-37.957031 27.730468 16.007812 50.207031 58.957031 50.207031 95.929688zm0 0" fill="#162f4d"/><path d="m433.113281 122.21875c-.0625-2.359375-1.523437-4.605469-4.445312-6.292969-6.601563-3.8125-18.128907-3.332031-25.746094 1.066407-4.226563 2.4375-6.351563 5.566406-6.292969 8.523437h-.007812v74.105469h.003906c.054688 2.371094 1.515625 4.625 4.445312 6.320312 6.601563 3.808594 18.128907 3.332032 25.75-1.070312 4.230469-2.441406 6.359376-5.578125 6.292969-8.539063h.007813v-74.113281zm0 0" fill="#b6c5ce"/><path d="m426.820312 130.789062c-7.621093 4.398438-19.148437 4.878907-25.75 1.066407-6.597656-3.808594-5.769531-10.464844 1.851563-14.863281 7.621094-4.402344 19.148437-4.878907 25.746094-1.066407 6.597656 3.808594 5.769531 10.464844-1.847657 14.863281zm0 0" fill="#d6e5e5"/><path d="m423.359375 87.207031c-.027344-1.105469-.675781-2.15625-2.039063-2.945312-3.085937-1.78125-8.472656-1.558594-12.035156.5-1.976562 1.136719-2.933594 2.597656-2.910156 3.976562l-.035156.003907v34.640624h.003906c.023438 1.105469.707031 2.160157 2.078125 2.953126 3.082031 1.78125 8.472656 1.558593 12.03125-.5 1.980469-1.140626 2.972656-2.609376 2.941406-3.992188h.003907v-34.640625zm0 0" fill="#b6c5ce"/><path d="m420.453125 91.210938c-3.558594 2.054687-8.949219 2.277343-12.03125.5-3.085937-1.78125-2.699219-4.894532.863281-6.949219 3.5625-2.058594 8.949219-2.28125 12.035156-.5 3.082032 1.78125 2.695313 4.890625-.867187 6.949219zm0 0" fill="#d6e5e5"/><path d="m417.941406 89.757812c-1.960937 1.132813-4.921875 1.253907-6.621094.273438-1.695312-.976562-1.484374-2.6875.476563-3.820312 1.960937-1.132813 4.921875-1.253907 6.621094-.273438 1.695312.976562 1.484375 2.691406-.476563 3.820312zm0 0" fill="#b6c5ce"/><path d="m489.605469 229.601562-20.191407-11.65625c-7.914062-4.570312-17.714843-4.34375-25.410156.582032-3.261718 2.089844-4.867187 5.996094-4.011718 9.773437 2.464843 10.894531 9.445312 20.230469 19.199218 25.671875l14.492188 8.082032zm0 0" fill="#ff4d73"/><path d="m492.867188 238.582031c0 8.722657-5.300782 18.855469-11.84375 22.632813-6.542969 3.777344-11.847657-.230469-11.847657-8.953125 0-8.722657 5.304688-18.855469 11.847657-22.632813 6.542968-3.777344 11.84375.230469 11.84375 8.953125zm0 0" fill="#d6e5e5"/><path d="m489.757812 240.378906c0 6.433594-3.910156 13.902344-8.734374 16.6875-4.824219 2.785156-8.734376-.171875-8.734376-6.601562 0-6.433594 3.910157-13.902344 8.734376-16.6875 4.824218-2.785156 8.734374.171875 8.734374 6.601562zm0 0" fill="#fff"/><path d="m453.242188 388.09375-61.757813 35.652344c-15.804687 9.125-35.277344 9.125-51.082031 0l-175.683594-101.429688v-34.8125l308.132812 52.027344v14.597656c0 14.011719-7.472656 26.957032-19.609374 33.964844zm0 0" fill="#162f4d"/><path d="m457.511719 227.445312-102-58.890624-27.691407-113.769532-94.894531-54.785156-101.957031 58.863281-29.203125 92.816407v103.636718l242.429687 139.9375c6.886719 3.242188 14.316407 4.839844 21.75 4.839844v.046875c7.417969 0 14.832032-1.636719 21.703126-4.867187l85.203124-49.1875v-95.667969c0-10.808594-6.605468-19.324219-15.339843-22.972657zm0 0" fill="#bf0025"/><path d="m327.816406 54.785156 27.695313 113.769532-112.257813 64.8125-17.390625-119.714844zm0 0" fill="#ea2642"/><path d="m444.089844 269.664062 19.027344-38.980468-107.605469-62.128906-112.257813 64.8125 126.796875 73.207031zm0 0" fill="#ff4d73"/><path d="m435.554688 228.882812-35.082032 20.257813c-21.367187 12.335937-34.527344 35.132813-34.527344 59.804687v91.195313c7.417969 0 14.832032-1.636719 21.703126-4.863281l85.203124-49.191406v-95.667969c0-19.140625-20.71875-31.105469-37.296874-21.535157zm0 0" fill="#ea2642"/><path d="m447.949219 246.824219c3.667969 0 7.625 2.914062 7.625 7.625v85.691406l-72.351563 41.773437v-68.9375c0-18.441406 9.921875-35.621093 25.886719-44.84375l35.085937-20.253906c1.210938-.699218 2.476563-1.054687 3.753907-1.054687zm0 0" fill="#d6e5e5"/><path d="m113.195312 158.277344 25.691407-83.289063 74.613281 43.078125 12.363281 105.261719zm0 0" fill="#2c92bf"/><path d="m235.210938 117.753906 16.90625 110.496094 93.238281-53.832031-23.414063-106.742188zm0 0" fill="#2c92bf"/><path d="m170.25 317.605469c0-44.195313-26.867188-95.53125-60.011719-114.667969-15.578125-8.992188-29.765625-9.269531-40.433593-2.453125v-.007813l-49.96875 28.027344.007812.003906c-12.183594 7.609376-19.84375 24.390626-19.84375 47.984376 0 44.191406 26.867188 95.53125 60.015625 114.664062 14.550781 8.40625 27.894531 9.195312 38.285156 3.703125v.003906l51.917969-29.15625h-.019531c12.300781-7.550781 20.050781-24.378906 20.050781-48.101562zm0 0" fill="#2b5d99"/><path d="m36.234375 239.414062c-4.113281 0-7.757813-2.945312-8.496094-7.136718-.832031-4.695313 2.304688-9.179688 7.003907-10.007813 1.523437-.269531 37.617187-6.546875 63.984374-2.023437 4.699219.808594 7.859376 5.273437 7.050782 9.976562-.804688 4.699219-5.265625 7.855469-9.972656 7.050782-23.429688-4.019532-57.710938 1.949218-58.058594 2.007812-.507813.089844-1.011719.132812-1.511719.132812zm0 0" fill="#162f4d"/><path d="m63.726562 203.886719 16.476563 9.347656c1.34375.765625 2.808594 1.128906 4.253906 1.128906 3.007813 0 5.929688-1.574219 7.523438-4.378906 2.355469-4.148437.898437-9.421875-3.25-11.773437l-4.222657-2.398438c-5.390624.304688-10.34375 1.882812-14.703124 4.667969v-.003907zm0 0" fill="#162f4d"/><path d="m113.570312 204.992188c-.207031 8.78125-.535156 27.648437.140626 38.417968.285156 4.578125 4.085937 8.097656 8.609374 8.097656.183594 0 .367188-.003906.546876-.015624 4.765624-.296876 8.382812-4.398438 8.085937-9.160157-.371094-5.945312-.40625-14.847656-.335937-22.886719-5.367188-5.683593-11.089844-10.582031-17.046876-14.453124zm0 0" fill="#162f4d"/><path d="m134.703125 277.425781c-1.40625 0-2.828125-.339843-4.148437-1.066406-9.171876-5.035156-38.503907-5.90625-54.828126-5.273437-4.710937.191406-8.78125-3.53125-8.964843-8.300782-.1875-4.765625 3.527343-8.78125 8.296875-8.964844 4.816406-.183593 47.496094-1.5625 63.808594 7.394532 4.183593 2.292968 5.710937 7.546875 3.417968 11.730468-1.574218 2.863282-4.527344 4.480469-7.582031 4.480469zm0 0" fill="#162f4d"/><path d="m157.832031 261.71875c-5.171875 6.421875-17.109375 21.511719-22.746093 30.871094-2.460938 4.089844-1.144532 9.398437 2.945312 11.855468 1.394531.839844 2.929688 1.242188 4.445312 1.242188 2.933594 0 5.789063-1.492188 7.410157-4.183594 3.378906-5.609375 9.601562-13.917968 14.832031-20.640625-1.875-6.496093-4.191406-12.914062-6.886719-19.144531zm0 0" fill="#162f4d"/><path d="m148.820312 333.867188c-2.121093 0-4.246093-.777344-5.914062-2.34375-5.558594-5.222657-30.953125-14.804688-47.210938-19.945313-4.546874-1.4375-7.070312-6.289063-5.632812-10.839844s6.289062-7.078125 10.839844-5.632812c7.164062 2.261719 43.425781 14.046875 53.835937 23.824219 3.476563 3.269531 3.648438 8.734374.378907 12.210937-1.699219 1.808594-3.996094 2.726563-6.296876 2.726563zm0 0" fill="#162f4d"/><path d="m169.910156 325.914062-.707031.570313c-13.414063 10.753906-22.539063 18.015625-27.125 21.582031-3.765625 2.929688-4.445313 8.359375-1.511719 12.125 1.699219 2.1875 4.25 3.332032 6.824219 3.332032 1.851563 0 3.71875-.59375 5.296875-1.820313 1.902344-1.476563 4.574219-3.585937 7.976562-6.289063 4.96875-7.375 8.234376-17.332031 9.246094-29.5zm0 0" fill="#162f4d"/><path d="m137.089844 366.113281c-16.554688-4.738281-28.796875-18.039062-28.917969-18.175781-3.191406-3.527344-8.644531-3.8125-12.183594-.621094-3.546875 3.191406-3.832031 8.65625-.640625 12.199219.550782.609375 12.09375 13.269531 29.371094 20.515625l17.523438-9.84375c-1.078126-1.914062-2.875-3.421875-5.152344-4.074219zm0 0" fill="#162f4d"/><path d="m120.027344 345.789062c0 44.191407-26.867188 64.507813-60.011719 45.371094-33.148437-19.136718-60.015625-70.476562-60.015625-114.667968 0-44.195313 26.867188-64.507813 60.015625-45.371094 33.144531 19.136718 60.011719 70.476562 60.011719 114.667968zm0 0" fill="#162f4d"/><path d="m98.300781 333.246094c0 28.191406-17.144531 41.148437-38.289062 28.941406s-38.285157-44.957031-38.285157-73.152344c0-28.191406 17.140626-41.148437 38.285157-28.941406s38.289062 44.957031 38.289062 73.152344zm0 0" fill="#d6e5e5"/><path d="m82.746094 324.265625c0 16.742187-10.175782 24.4375-22.734375 17.1875-12.554688-7.25-22.734375-26.695313-22.734375-43.4375s10.179687-24.4375 22.734375-17.1875c12.558593 7.246094 22.734375 26.695313 22.734375 43.4375zm0 0" fill="#bf0025"/><path d="m129.410156 170.570312c-17.835937-10.296874-34.078125-10.617187-46.292968-2.8125v-.003906l-54.605469 30.625c8.414062-4.292968 8.414062-4.292968 0 0l7.519531 11.226563c10.007812-4.191407 22.425781-2.921875 35.875 4.84375 31.445312 18.152343 57.222656 65.289062 59.78125 107.808593l.015625.019532 8.714844 5.03125.203125.117187 57.261718-33.0625c-2.8125-48.777343-32.382812-102.957031-68.472656-123.792969zm0 0" fill="#ea2642"/><path d="m36.03125 209.605469c10.007812-4.191407 22.421875-2.921875 35.875 4.84375 31.441406 18.152343 57.222656 65.289062 59.78125 107.808593l.015625.019532 8.710937 5.03125c-2.574218-48.953125-32.253906-103.535156-68.507812-124.46875-16.460938-9.503906-31.5625-10.496094-43.394531-4.460938zm0 0" fill="#bf0025"/><path d="m329.140625 413.644531c0-36.96875-22.476563-79.917969-50.203125-95.929687-13.03125-7.523438-24.902344-7.753906-33.828125-2.050782l.003906-.003906-41.804687 23.445313h.007812c-10.191406 6.371093-16.601562 20.40625-16.601562 40.144531 0 36.972656 22.476562 79.921875 50.207031 95.929688 12.175781 7.03125 23.335937 7.691406 32.027344 3.097656v.003906l43.4375-24.390625h-.019531c10.289062-6.320313 16.773437-20.398437 16.773437-40.246094zm0 0" fill="#2b5d99"/><path d="m217.027344 348.234375c-3.441406 0-6.492188-2.464844-7.109375-5.972656-.695313-3.929688 1.929687-7.675781 5.859375-8.375 1.273437-.222657 31.46875-5.476563 53.527344-1.691407 3.933593.675782 6.574218 4.410157 5.898437 8.34375-.671875 3.933594-4.402344 6.574219-8.34375 5.902344-19.601563-3.363281-48.28125 1.628906-48.566406 1.679688-.425781.074218-.847657.113281-1.265625.113281zm0 0" fill="#162f4d"/><path d="m240.027344 318.511719 13.78125 7.820312c1.125.640625 2.351562.941407 3.558594.941407 2.519531 0 4.960937-1.316407 6.292968-3.660157 1.972656-3.472656.753906-7.882812-2.71875-9.851562l-3.53125-2.003907c-4.507812.253907-8.652344 1.574219-12.300781 3.902344v-.003906zm0 0" fill="#162f4d"/><path d="m281.726562 319.433594c-.175781 7.347656-.449218 23.132812.113282 32.140625.238281 3.828125 3.421875 6.777343 7.207031 6.777343.152344 0 .304687-.003906.457031-.015624 3.984375-.25 7.011719-3.679688 6.761719-7.664063-.308594-4.972656-.339844-12.417969-.28125-19.148437-4.492187-4.753907-9.277344-8.847657-14.257813-12.089844zm0 0" fill="#162f4d"/><path d="m299.402344 380.03125c-1.175782 0-2.367188-.285156-3.46875-.890625-7.671875-4.214844-32.210938-4.941406-45.867188-4.414063-3.941406.164063-7.347656-2.953124-7.503906-6.941406-.152344-3.988281 2.953125-7.347656 6.945312-7.503906 4.027344-.152344 39.730469-1.304688 53.382813 6.1875 3.496094 1.921875 4.777344 6.3125 2.855469 9.8125-1.316406 2.398438-3.789063 3.75-6.34375 3.75zm0 0" fill="#162f4d"/><path d="m318.753906 366.890625c-4.324218 5.371094-14.3125 17.996094-19.03125 25.828125-2.058594 3.417969-.957031 7.859375 2.464844 9.917969 1.164062.703125 2.453125 1.039062 3.71875 1.039062 2.453125 0 4.84375-1.246093 6.199219-3.5 2.824219-4.691406 8.03125-11.644531 12.410156-17.269531-1.570313-5.433594-3.507813-10.800781-5.761719-16.015625zm0 0" fill="#162f4d"/><path d="m311.214844 427.25c-1.773438 0-3.550782-.648438-4.949219-1.960938-4.648437-4.367187-25.894531-12.386718-39.496094-16.683593-3.804687-1.203125-5.914062-5.265625-4.710937-9.070313 1.203125-3.804687 5.261718-5.921875 9.066406-4.714844 5.992188 1.894532 36.332031 11.753907 45.039062 19.933594 2.910157 2.734375 3.054688 7.308594.320313 10.214844-1.425781 1.515625-3.34375 2.28125-5.269531 2.28125zm0 0" fill="#162f4d"/><path d="m328.855469 420.597656-.589844.472656c-11.21875 9-18.855469 15.074219-22.691406 18.058594-3.148438 2.449219-3.71875 6.992188-1.265625 10.140625 1.421875 1.832031 3.554687 2.792969 5.710937 2.792969 1.546875 0 3.109375-.5 4.429688-1.523438 1.589843-1.238281 3.828125-3.003906 6.675781-5.261718 4.152344-6.171875 6.886719-14.503906 7.730469-24.679688zm0 0" fill="#162f4d"/><path d="m301.398438 454.226562c-13.847657-3.964843-24.089844-15.09375-24.191407-15.207031-2.671875-2.949219-7.230469-3.1875-10.191406-.519531-2.96875 2.671875-3.207031 7.242188-.535156 10.207031.457031.507813 10.113281 11.097657 24.566406 17.160157l14.664063-8.230469c-.902344-1.601563-2.40625-2.867188-4.3125-3.410157zm0 0" fill="#162f4d"/><path d="m287.125 437.222656c0 36.972656-22.476562 53.964844-50.207031 37.957032-27.726563-16.007813-50.207031-58.957032-50.207031-95.929688s22.480468-53.964844 50.207031-37.953125c27.730469 16.007813 50.207031 58.957031 50.207031 95.925781zm0 0" fill="#162f4d"/><path d="m268.949219 426.730469c0 23.585937-14.339844 34.425781-32.027344 24.210937-17.691406-10.210937-32.03125-37.613281-32.03125-61.199218 0-23.582032 14.339844-34.425782 32.03125-24.210938 17.6875 10.214844 32.027344 37.613281 32.027344 61.199219zm0 0" fill="#d6e5e5"/><path d="m255.9375 419.21875c0 14.003906-8.511719 20.441406-19.015625 14.378906-10.507813-6.066406-19.019531-22.335937-19.019531-36.339844 0-14.007812 8.511718-20.445312 19.019531-14.378906 10.503906 6.0625 19.015625 22.335938 19.015625 36.339844zm0 0" fill="#bf0025"/><path d="m389.558594 305.246094v59.074218c0 2.460938 2.664062 4 4.796875 2.769532 2.5625-1.480469 4.140625-4.214844 4.140625-7.171875v-59.078125c0-2.460938-2.664063-4-4.796875-2.769532-2.5625 1.480469-4.140625 4.214844-4.140625 7.175782zm0 0" fill="#162f4d"/><path d="m407.4375 294.914062v59.074219c0 2.464844 2.664062 4.003907 4.796875 2.773438 2.5625-1.480469 4.140625-4.214844 4.140625-7.175781v-59.074219c0-2.464844-2.664062-4.003907-4.796875-2.773438-2.5625 1.480469-4.140625 4.214844-4.140625 7.175781zm0 0" fill="#162f4d"/><path d="m425.316406 284.585938v59.074218c0 2.460938 2.664063 4 4.796875 2.769532 2.5625-1.480469 4.140625-4.214844 4.140625-7.171876v-59.078124c0-2.460938-2.664062-4-4.796875-2.769532-2.5625 1.480469-4.140625 4.214844-4.140625 7.175782zm0 0" fill="#162f4d"/><path d="m443.195312 274.253906v59.074219c0 2.460937 2.664063 4 4.796876 2.769531 2.5625-1.480468 4.140624-4.210937 4.140624-7.171875v-59.078125c0-2.460937-2.664062-4-4.796874-2.769531-2.5625 1.480469-4.140626 4.214844-4.140626 7.175781zm0 0" fill="#162f4d"/><path d="m355.140625 307.082031-20.191406-11.65625c-7.914063-4.570312-17.714844-4.34375-25.410157.585938-3.261718 2.085937-4.867187 5.996093-4.011718 9.769531 2.464844 10.898438 9.445312 20.230469 19.199218 25.671875l14.492188 8.082031zm0 0" fill="#ff4d73"/><path d="m358.402344 316.0625c0 8.722656-5.300782 18.859375-11.84375 22.632812-6.542969 3.777344-11.847656-.230468-11.847656-8.953124 0-8.722657 5.304687-18.855469 11.847656-22.632813 6.542968-3.777344 11.84375.230469 11.84375 8.953125zm0 0" fill="#d6e5e5"/><path d="m355.292969 317.859375c0 6.433594-3.910157 13.902344-8.734375 16.6875-4.824219 2.785156-8.734375-.171875-8.734375-6.601563 0-6.429687 3.910156-13.902343 8.734375-16.6875 4.824218-2.78125 8.734375.171876 8.734375 6.601563zm0 0" fill="#fff"/><path d="m130.96875 58.863281 94.894531 54.789063 101.953125-58.867188-94.890625-54.785156zm0 0" fill="#ff4d73"/><path d="m113.195312 158.277344 48.441407 27.96875 55.046875-41.066406-3.183594-27.113282-26.671875-15.398437-73.355469 54.722656zm0 0" fill="#83b2c6"/><path d="m252.117188 228.25 32.265624-18.628906 48.480469-92.152344-10.921875-49.792969-10.539062 6.085938-64.242188 122.105469zm0 0" fill="#83b2c6"/></svg>