<svg height="511pt" viewBox="-17 0 511 511.99952" width="511pt" xmlns="http://www.w3.org/2000/svg"><path d="m234.964844 378.382812v124.210938h.003906c.078125 2.503906 1.632812 4.882812 4.730469 6.671875 7.011719 4.050781 19.261719 3.542969 27.359375-1.132813 4.480468-2.585937 6.746094-5.902343 6.695312-9.039062h.003906v-143.109375zm0 0" fill="#ef5f26"/><g fill="#ffe14d"><path d="m175.835938 471.921875c-6.460938 0-11.699219-5.242187-11.699219-11.703125v-47.78125c0-6.464844 5.238281-11.703125 11.699219-11.703125 6.464843 0 11.703124 5.238281 11.703124 11.703125v47.78125c0 6.460938-5.238281 11.703125-11.703124 11.703125zm0 0"/><path d="m215.730469 452.980469c-6.460938 0-11.703125-5.242188-11.703125-11.703125v-47.785156c0-6.460938 5.242187-11.699219 11.703125-11.699219 6.460937 0 11.703125 5.238281 11.703125 11.699219v47.785156c0 6.460937-5.242188 11.703125-11.703125 11.703125zm0 0"/><path d="m297.890625 408.046875c-6.460937 0-11.703125-5.242187-11.703125-11.703125v-47.785156c0-6.460938 5.242188-11.699219 11.703125-11.699219 6.464844 0 11.703125 5.238281 11.703125 11.699219v47.785156c0 6.460938-5.238281 11.703125-11.703125 11.703125zm0 0"/><path d="m256.203125 431.9375c-6.464844 0-11.703125-5.238281-11.703125-11.699219v-47.785156c0-6.464844 5.242188-11.703125 11.703125-11.703125s11.699219 5.238281 11.699219 11.703125v47.785156c0 6.460938-5.238282 11.699219-11.699219 11.699219zm0 0"/><path d="m326.941406 389.105469c-6.460937 0-11.699218-5.242188-11.699218-11.703125v-47.785156c0-6.460938 5.238281-11.703126 11.699218-11.703126 6.464844 0 11.703125 5.242188 11.703125 11.703126v47.785156c0 6.460937-5.238281 11.703125-11.703125 11.703125zm0 0"/><path d="m478.402344 64.710938c-1.019532-6.378907-7.011719-10.730469-13.402344-9.707032l-22.507812 3.59375 22.582031-14.34375c5.457031-3.464844 7.070312-10.695312 3.605469-16.152344-3.46875-5.453124-10.699219-7.070312-16.152344-3.601562l-18.246094 11.585938 12.761719-17.484376c3.808593-5.21875 2.667969-12.539062-2.554688-16.351562-5.222656-3.808594-12.542969-2.667969-16.351562 2.554688l-49.175781 67.378906c-.082032.113281 3.425781 16.933594 3.601562 17.03125l50.058594 28.902344c1.84375 1.066406 3.855468 1.570312 5.839844 1.570312 4.042968 0 7.976562-2.097656 10.144531-5.851562 3.234375-5.597657 1.316406-12.753907-4.28125-15.984376l-21.5-12.414062 45.863281-7.324219c6.382812-1.019531 10.730469-7.019531 9.714844-13.402343zm0 0"/></g><path d="m341.53125 168.710938v155.011718c0 1.875-.734375 3.667969-2.046875 5.007813-7.917969 8.070312-37.851563 37.625-72.066406 59.324219-30.851563 19.566406-76.671875 33.964843-95.996094 39.523437-4.566406 1.316406-9.117187-2.117187-9.117187-6.871094v-116.445312l-64.230469 44.984375c-8.828125 6.179687-20.660157 5.972656-29.214844-.585938-3.125-2.398437-6.167969-5.441406-8.671875-9.292968-2.375-3.65625-3.882812-7.816407-4.808594-12-2.8125-12.695313-.273437-25.984376 6.269532-37.222657 16.695312-28.664062 65.214843-103.027343 146.28125-156.300781 72.292968-47.503906 137.292968-72.773438 169.265624-83.523438 13.652344-4.589843 28.410157 2.402344 33.601563 15.839844 2.585937 6.703125 4.605469 14.566406 4.851563 23.070313.292968 10.378906-1.210938 18.714843-3.109376 24.957031-2.414062 7.945312-7.765624 14.667969-14.792968 19.097656zm0 0" fill="#2b5d99"/><path d="m270.34375 212.234375 16.703125-123.96875c-24.292969 12.167969-51.152344 27.203125-79.117187 45.582031-11.34375 7.453125-18 12.132813-28.070313 20.226563zm0 0" fill="#ffe14d"/><path d="m291.4375 107.945312c0 36.996094-29.992188 66.988282-66.988281 66.988282-36.996094 0-66.984375-29.992188-66.984375-66.988282 0-36.996093 29.988281-66.988281 66.984375-66.988281 36.996093 0 66.988281 29.992188 66.988281 66.988281zm0 0" fill="#ef5f26"/><path d="m295.417969 116.902344c-47.277344 27.296875-118.800781 30.261718-159.746094 6.621094-40.945313-23.640626-35.8125-64.933594 11.46875-92.230469s118.800781-30.261719 159.75-6.621094c40.945313 23.640625 35.808594 64.933594-11.472656 92.230469zm0 0" fill="#f7bd69"/><path d="m292.550781 63.277344c-4.039062-35.050782-33.800781-62.277344-69.9375-62.277344-38.890625 0-70.421875 31.53125-70.421875 70.421875 0 1.085937.035156 2.167969.082032 3.242187 48.503906 29.65625 112.703124 15.273438 140.277343-11.386718zm0 0" fill="#f8db8f"/><path d="m155.554688 49.90625c-2.175782 6.78125-3.359376 14.007812-3.359376 21.515625 0 1.085937.03125 2.167969.082032 3.242187 48.5 29.65625 112.699218 15.273438 140.273437-11.382812-.875-7.585938-3.015625-14.769531-6.101562-21.425781-29.386719 22.613281-86.144531 33.261719-130.894531 8.050781zm0 0" fill="#bf0025"/><path d="m280.902344 235.800781c0 6.160157-3.742188 13.316407-8.363282 15.984375-4.621093 2.664063-8.363281-.164062-8.363281-6.324218 0-6.160157 3.742188-13.316407 8.363281-15.984376 4.621094-2.664062 8.363282.164063 8.363282 6.324219zm0 0" fill="#ffe14d"/><path d="m280.902344 284.074219c0 6.160156-3.742188 13.3125-8.363282 15.980469-4.621093 2.667968-8.363281-.164063-8.363281-6.320313 0-6.160156 3.742188-13.316406 8.363281-15.984375 4.621094-2.667969 8.363282.164062 8.363282 6.324219zm0 0" fill="#ffe14d"/><path d="m280.902344 336.945312c0 6.160157-3.742188 13.3125-8.363282 15.980469-4.621093 2.667969-8.363281-.164062-8.363281-6.320312 0-6.160157 3.742188-13.316407 8.363281-15.984375 4.621094-2.667969 8.363282.164062 8.363282 6.324218zm0 0" fill="#ffe14d"/><path d="m90.082031 323.476562c-7.738281-12.074218-23.050781-16.78125-36.253906-11.183593-14.449219 6.125-33.042969 14.746093-47.871094 24.113281-5.464843 3.449219-7.097656 10.675781-3.648437 16.140625 3.453125 5.464844 10.683594 7.105469 16.144531 3.648437 9.167969-5.792968 19.957031-11.296874 30.140625-16.019531l-27.9375 26.957031c-4.652344 4.488282-4.785156 11.898438-.296875 16.546876 4.488281 4.652343 11.894531 4.785156 16.546875.296874l18.863281-18.199218-10.179687 27.683594c-2.230469 6.0625.878906 12.789062 6.945312 15.019531 1.332032.492187 2.695313.722656 4.035156.722656 4.765626 0 9.246094-2.933594 10.984376-7.667969l7.359374-20.007812 2.179688 25.734375c.515625 6.101562 5.628906 10.714843 11.648438 10.714843.328124 0 .664062-.015624 1-.042968 6.4375-.546875 11.21875-6.207032 10.671874-12.648438l-5.789062-68.425781c-.402344-4.765625-1.960938-9.359375-4.542969-13.382813zm0 0" fill="#ffe14d"/></svg>