<svg height="512pt" viewBox="-135 0 512 512.00018" width="512pt" xmlns="http://www.w3.org/2000/svg"><path d="m70.464844 70.535156s-14.875-1.953125-29.300782 4.808594c-14.421874 6.761719-17.425781 12.769531-17.425781 12.769531s8.992188 10.703125 28.394531 7.210938c19.40625-3.492188 29.445313-21.957031 29.445313-21.957031s-4.394531-19.386719-13.574219-25.917969c-8.609375-6.125-20.078125-5.308594-20.078125-5.308594s-1.804687 10.816406 4.730469 20.433594c4.972656 7.308593 17.808594 7.960937 17.808594 7.960937zm0 0" fill="#bf0025"/><path d="m142.804688 477.535156c-2.726563-7.59375-9.601563-13.496094-11.414063-14.976562-3.046875-2.488282-23.324219-13.710938-23.324219-13.710938l-54.128906 21.265625v7.386719c0 3.1875 1.679688 6.140625 4.425781 7.761719l36.675781 21.273437c12.625 7.289063 28.179688 7.289063 40.804688 0 4.375-2.527344 7.019531-6.542968 7.976562-10.875l.023438-.007812c0 .003906 2.113281-9.328125-1.039062-18.117188zm0 0" fill="#2b5d99"/><path d="m226.636719 428.707031c-2.726563-7.59375-9.601563-13.496093-11.410157-14.976562-3.050781-2.488281-23.328124-13.710938-23.328124-13.710938l-54.128907 21.265625v7.386719c0 3.191406 1.683594 6.140625 4.425781 7.761719l36.679688 21.273437c12.625 7.289063 28.179688 7.289063 40.800781 0 4.378907-2.527343 7.023438-6.542969 7.980469-10.875l.019531-.007812c.003907.003906 2.117188-9.328125-1.039062-18.117188zm0 0" fill="#2b5d99"/><path d="m239.933594 206.804688s2.929687 17.425781 0 30.949218c-2.929688 13.519532-22.085938 18.027344-22.085938 18.027344l-9.914062-39.4375zm0 0" fill="#f8db8f"/><path d="m173.894531 95.324219s29.082031.800781 46.207031 44.273437c17.128907 43.46875 19.832032 67.207032 19.832032 67.207032s-11.417969 11.417968-25.238282 15.023437c-13.824218 3.605469-40.800781-126.503906-40.800781-126.503906zm0 0" fill="#ef5f26"/><path d="m173.894531 95.324219s24.574219 5.007812 34.1875 44.273437c9.617188 39.261719 16.53125 106.15625 12.621094 161.859375-4.808594 68.507813-13.113281 107.476563-13.113281 107.476563s-5.460938 15.71875-24.519532 22.664062c-15.554687 5.667969-45.601562-.644531-45.601562-9.996094v-34.210937l-4.503906 3.230469-6.3125 67.535156s.152344 10.589844-11.117188 17.125c-22.878906 13.269531-58.292968 6.011719-61.597656-3.210938-5.417969-15.113281-20.433594-145.976562-20.433594-179.328124 0-33.355469-3.078125-113.804688 7.210938-130.710938 18.929687-31.097656 133.179687-66.707031 133.179687-66.707031zm0 0" fill="#2c92bf"/><path d="m185.847656 176.003906s0-9.914062-2.847656-27.945312c-2.84375-18.027344-9.105469-41.464844-9.105469-41.464844-1.707031-3.703125-3.6875-6.796875-5.867187-9.375-17.40625 5.726562-69.640625 23.707031-102.34375 43.539062 5.722656 3.707032 13.023437 9.894532 20.554687 20.148438 16.539063 22.523438 18.929688 54.3125 18.929688 54.3125zm0 0" fill="#ef5f26"/><path d="m.601562 318.882812s-1.554687 28.972657 21.183594 30.199219c29.296875 1.578125 27.945313-38.761719 27.945313-38.761719zm0 0" fill="#f8db8f"/><path d="m185.847656 112.144531c2.027344-5.941406.136719-10.535156 0-13.472656-.136718-2.9375 1.578125-12.359375 1.125-18.445313-.449218-6.085937-3.976562-11.117187-3.976562-11.117187-.050782-12.910156-.753906-22.460937-.753906-22.460937-.734376-27.941407-21.183594-55.890626-64.90625-43.71875-43.71875 12.167968-46.871094 67.605468-46.871094 67.605468l-4.109375 28.84375s.007812-.003906.007812-.003906c-3.804687 6.546875-2.375 20.734375.492188 23.894531 7.664062 8.449219 16.867187 6.964844 19.097656 6.441407.429687 1.851562 1.1875 3.621093 2.539063 5.050781 3.828124 4.058593 11.941406 1.804687 14.648437 4.835937 2.703125 3.027344 2.027344 4.855469 7.210937 9.363282 5.183594 4.507812 11.042969 2.703124 17.089844 3.378906 6.050782.675781 2.742188 4.507812 8.148438 7.890625 5.410156 3.378906 12.847656-1.578125 14.648437 2.027343 1.804688 3.605469 8.113281 5.859376 14.875 2.480469 6.761719-3.382812 6.984375-14.875 10.816407-18.480469 3.832031-3.605468 3.378906-5.183593 4.738281-10.867187 1.359375-5.679687 4.726562-5.136719 6.378906-11.671875s-3.226563-5.632812-1.199219-11.574219zm0 0" fill="#f8db8f"/><path d="m52.433594 281.921875s27.496094-15.324219 25.691406-51.832031c-1.804688-36.507813-25.277344-80.332032-35.804688-70.402344-30.453124 28.710938-40.367187 80.320312-41.71875 102.855469-1.351562 22.535156 0 56.339843 0 56.339843s10.550782 4.121094 22.535157 3.605469 26.59375-12.167969 26.59375-12.167969zm0 0" fill="#ef5f26"/><path d="m114.632812 255.78125 74.707032-43.128906v58.359375c0 24.324219-12.976563 46.800781-34.042969 58.964843-18.070313 10.433594-40.664063-2.609374-40.664063-23.480468zm0 0" fill="#2b5d99"/><path d="m147.6875 61.972656c15.054688-6.199218 26.09375-13.589844 34.160156-20.726562-3.082031-25.984375-23.613281-49.703125-64.507812-38.320313-43.722656 12.171875-46.875 67.609375-46.875 67.609375s31.25 10.367188 77.222656-8.5625zm0 0" fill="#ea2642"/><g fill="#162f4d"><path d="m185.847656 112.144531c2.027344-5.941406.136719-10.535156 0-13.472656-.136718-2.9375 1.578125-12.359375 1.125-18.445313-.449218-6.085937-3.976562-11.117187-3.976562-11.117187l-74.542969 43.035156-19.71875-11.382812c.570313-5.273438 1.5625-13.992188 2.460937-19.3125.492188-2.910157 1.457032-5.703125 2.488282-8.085938-14.6875-.003906-23.21875-2.828125-23.21875-2.828125l-4.109375 28.84375s9.007812-5.628906 15.828125 4.285156c2.988281 4.351563 2.929687 13.070313 3.152344 16.675782.226562 3.609375-.675782 10.367187 3.15625 14.425781 3.832031 4.054687 11.945312 1.800781 14.648437 4.832031s2.027344 4.859375 7.210937 9.363282c5.183594 4.507812 11.042969 2.707031 17.09375 3.382812 6.046876.675781 2.738282 4.503906 8.148438 7.886719 5.40625 3.378906 12.84375-1.578125 14.644531 2.027343 1.804688 3.605469 8.113281 5.859376 14.875 2.480469 6.761719-3.378906 6.988281-14.875 10.816407-18.480469 3.832031-3.605468 3.382812-5.183593 4.738281-10.867187 1.359375-5.679687 4.726562-5.132813 6.382812-11.667969 1.652344-6.535156-3.230469-5.636718-1.203125-11.578125zm0 0"/><path d="m171.941406 63.664062c0 2.539063-1.546875 5.492188-3.453125 6.589844-1.90625 1.101563-3.449219-.066406-3.449219-2.609375 0-2.539062 1.542969-5.492187 3.449219-6.589843 1.90625-1.101563 3.453125.066406 3.453125 2.609374zm0 0"/><path d="m140.925781 81.195312c0 2.539063-1.542969 5.492188-3.449219 6.59375-1.90625 1.097657-3.453124-.070312-3.453124-2.609374 0-2.542969 1.546874-5.496094 3.453124-6.59375 1.90625-1.101563 3.449219.066406 3.449219 2.609374zm0 0"/></g><path d="m154.214844 97.894531 14.089844-8.132812c2.03125-1.171875 4.570312.292969 4.570312 2.640625v3.707031c0 3.699219-1.976562 7.117187-5.179688 8.96875l-14.085937 8.132813c-2.03125 1.171874-4.570313-.292969-4.570313-2.640626v-3.707031c0-3.699219 1.972657-7.117187 5.175782-8.96875zm0 0" fill="#f8db8f"/><path d="m78.125 230.089844c-.976562-19.804688-8.335938-41.746094-16.542969-56.105469 3.816407 16.335937.152344 38.847656-1.9375 55.203125-2.703125 21.1875-7.210937 52.734375-7.210937 52.734375s27.496094-15.324219 25.691406-51.832031zm0 0" fill="#bd4b1e"/></svg>