<svg height="512pt" viewBox="0 -71 512 512" width="512pt" xmlns="http://www.w3.org/2000/svg"><path d="m275.394531 34.808594-275.394531 158.996094v36.519531l240.863281 139.0625 271.136719-156.542969v-36.519531zm0 0" fill="#b2260b"/><path d="m512 176.324219-236.605469-141.515625-275.394531 158.996094 240.863281 139.0625zm0 0" fill="#a2bf26"/><path d="m287.867188 42.171875c2.636718-11.773437 6.085937-21.511719 6.085937-21.511719s-5.207031 3.109375-9.132813 10.347656c-2.335937 4.3125-3.449218 7.101563-3.449218 7.101563s-.8125-10.8125 0-20.089844c.746094-8.507812 3.40625-18.019531 3.40625-18.019531s-39.378906 20.40625-41.6875 74.21875c-.398438 3.175781 1.300781 6.265625 5.195312 8.515625 7.789063 4.496094 21.394532 3.929687 30.390625-1.261719 4.800781-2.773437 7.316407-6.300781 7.433594-9.675781h.003906c.003907 0-.53125-19.433594 1.753907-29.625zm0 0" fill="#1b6d40"/><path d="m240.863281 332.867188v36.519531l271.136719-156.542969v-36.519531zm0 0" fill="#ef5f26"/><path d="m352.519531 208.683594c-.855469-5.585938 5.390625-11.40625 14.949219-13.742188 8.621094-2.105468 16.609375-5.144531 23.53125-9.140625 31.515625-18.195312 28.929688-49.191406-5.773438-69.226562-34.707031-20.039063-88.390624-21.53125-119.910156-3.335938-6.917968 3.996094-12.1875 8.609375-15.832031 13.585938-4.046875 5.519531-14.125 9.125-23.796875 8.628906-34.058594-1.738281-67.910156 4.398437-92.613281 18.660156-46.921875 27.09375-43.074219 73.242188 8.597656 103.074219 51.675781 29.832031 131.601563 32.054688 178.527344 4.964844 24.703125-14.261719 35.332031-33.804688 32.320312-53.46875zm0 0" fill="#2c92bf"/><path d="m259.324219 174.097656c-11.5-6.640625-30.128907-7.066406-45.269531-1.730468l16.332031 18.4375-32.695313-8.6875c-8.433594 8.601562-7.417968 18.941406 3.753906 25.394531 13.84375 7.992187 38.019532 6.988281 54-2.238281 15.984376-9.226563 17.71875-23.183594 3.878907-31.175782zm0 0" fill="#a2bf26"/><path d="m293.9375 141.609375c7.972656-4.605469 20.886719-4.898437 31.386719-1.199219l-11.324219 12.78125 22.667969-6.023437c5.847656 5.964843 5.144531 13.132812-2.605469 17.605469-9.59375 5.539062-26.355469 4.847656-37.4375-1.550782-11.082031-6.398437-12.285156-16.074218-2.6875-21.613281zm0 0" fill="#a2bf26"/><path d="m390.117188 181.140625c2.097656-9.347656 4.835937-17.082031 4.835937-17.082031s-4.136719 2.46875-7.253906 8.21875c-1.855469 3.421875-2.738281 5.640625-2.738281 5.640625s-.644532-8.589844 0-15.957031c.59375-6.757813 2.703124-14.3125 2.703124-14.3125s-31.277343 16.210937-33.109374 58.945312c-.316407 2.523438 1.03125 4.976562 4.128906 6.765625 6.183594 3.570313 16.992187 3.125 24.132812-1 3.816406-2.203125 5.8125-5.007813 5.90625-7.683594l.003906-.003906c.003907 0-.421874-15.433594 1.390626-23.53125zm0 0" fill="#1b6d40"/><path d="m254.621094 109.746094s19.042968-1.722656 26.367187-10.585938c7.324219-8.863281 7.144531-17.535156 3.507813-24.8125-3.640625-7.277344-28.453125-14.226562-42.851563.039063-11.015625 10.910156-15.902343 37.675781 12.976563 35.359375zm0 0" fill="#d6e5e5"/><path d="m276.003906 95.90625c-10.089844 5.789062-17.371094 5.789062-26.800781 0-7.371094-4.527344-10.074219-12.390625-9.328125-19.558594-9.679688 11.835938-12.527344 35.585938 14.746094 33.398438 0 0 19.042968-1.722656 26.367187-10.585938 4.042969-4.894531 5.792969-9.726562 5.941407-14.300781-2.097657 3.519531-5.574219 7.976563-10.925782 11.046875zm0 0" fill="#b6c5ce"/><path d="m252.765625 301.738281s19.300781-1.746093 26.722656-10.730469c7.421875-8.984374 7.242188-17.773437 3.554688-25.148437-3.691407-7.378906-28.839844-14.421875-43.433594.039063-11.164063 11.058593-16.117187 38.1875 13.15625 35.839843zm0 0" fill="#d6e5e5"/><path d="m274.433594 287.710938c-10.226563 5.867187-17.605469 5.867187-27.160156 0-7.472657-4.589844-10.214844-12.558594-9.457032-19.824219-9.8125 11.996093-12.699218 36.070312 14.949219 33.851562 0 0 19.300781-1.746093 26.722656-10.730469 4.097657-4.960937 5.871094-9.859374 6.023438-14.496093-2.128907 3.566406-5.652344 8.085937-11.078125 11.199219zm0 0" fill="#b6c5ce"/></svg>