<svg height="512pt" viewBox="-139 0 512 512.00138" width="512pt" xmlns="http://www.w3.org/2000/svg"><path d="m66.816406 105.546875s-22.058594 13.289063-29.640625 48.347656c-6.566406 30.355469 0 52.851563 0 52.851563l74.050781-42.753906s-6.660156-61.449219-44.410156-58.445313zm0 0" fill="#bd4b1e"/><path d="m182.21875 45.632812s7.621094-22.941406-13.816406-35.738281c-15.960938-9.527343-48.902344-19.21875-83.480469 7.207031-30.542969 23.34375-28.226563 84.683594-12.910156 99.398438 15.3125 14.714844 110.207031-70.867188 110.207031-70.867188zm0 0" fill="#ef5f26"/><path d="m131.296875 479.214844c-2.59375-7.222656-9.132813-12.839844-10.855469-14.246094-2.902344-2.367188-22.191406-13.042969-22.191406-13.042969l-51.492188 17.578125v9.679688c0 3.03125 1.601563 5.839844 4.210938 7.382812l34.890625 20.234375c12.011719 6.933594 26.804687 6.933594 38.816406 0 4.164063-2.402343 6.679688-6.222656 7.589844-10.34375l.019531-.007812s2.011719-8.871094-.988281-17.234375zm0 0" fill="#2b5d99"/><path d="m219.957031 439.875c-2.59375-7.222656-9.132812-12.839844-10.855469-14.246094-2.898437-2.367187-22.191406-13.042968-22.191406-13.042968l-51.492187 17.578124v9.679688c0 3.03125 1.601562 5.839844 4.214843 7.382812l34.890626 20.234376c12.007812 6.9375 26.804687 6.9375 38.816406 0 4.160156-2.402344 6.675781-6.21875 7.589844-10.339844l.019531-.007813s2.007812-8.875-.992188-17.238281zm0 0" fill="#2b5d99"/><path d="m235.070312 264.515625s1.800782 23.007813-6.308593 40.125c-8.105469 17.117187-25.09375 7.308594-25.09375 7.308594l2.121093-44.246094zm0 0" fill="#f8db8f"/><path d="m187.320312 113.355469s22.523438 10.660156 35.136719 40.386719c12.609375 29.730468 12.609375 110.773437 12.609375 110.773437l-32.710937 16.40625zm0 0" fill="#a2bf26"/><path d="m187.320312 113.355469s-33.527343-8.511719-76.273437 14.414062c-42.742187 22.921875-67.863281 38.4375-76.875 54.652344-9.007813 16.214844-7.824219 130.828125-3.601563 157.351563 4.804688 30.179687 13.8125 55.253906 13.8125 55.253906l2.402344 74.472656s18.269532 16 45.042969 12.460938c26.125-3.449219 30.03125-15.460938 30.03125-15.460938v-61.859375l13.574219-7.839844v33.554688s23.992187 16.5 43.078125 11c24.238281-6.988281 25.582031-18.953125 25.582031-18.953125s5.300781-85.78125 5.300781-118.210938c0-32.433594 12.613281-150.148437-22.074219-190.835937zm0 0" fill="#2c92bf"/><path d="m111.046875 127.769531c-18.023437 9.667969-32.902344 18.011719-44.773437 25.652344 8.597656 5.015625 17.746093 13.183594 23.300781 22.394531 12.523437 20.753906 12.492187 53.582032 12.492187 53.582032l83.453125-48.179688s-4.710937-46.632812-26.492187-68.742188c-13.023438 1.417969-29.648438 5.460938-47.980469 15.292969zm0 0" fill="#a2bf26"/><path d="m182.21875 45.632812s3.300781 66.363282-6.007812 85.28125c-4.40625 8.957032-13.738282 14.050782-22.703126 16.613282-14.714843 4.203125-43.359374-1.84375-55.972656-10.851563-7.433594-5.308593-9.308594-7.714843-9.308594-7.714843s-7.882812 5.40625-13.738281 1.351562-9.183593-13.644531-6.757812-21.394531c2.703125-8.632813 5.628906-9.535157 8.183593-10.4375 2.550782-.898438 6.753907 3.003906 6.753907 3.003906s33.933593-10.359375 54.203125-29.277344c20.273437-18.921875 30.40625-39.414062 30.40625-39.414062zm0 0" fill="#f8db8f"/><path d="m111.226562 267.152344 80.179688-46.292969v62.632813c0 26.109374-13.929688 50.230468-36.539062 63.285156-19.394532 11.199218-43.640626-2.800782-43.640626-25.199219zm0 0" fill="#2b5d99"/><path d="m41.09375 173.171875c-2.898438 3.097656-5.203125 6.160156-6.921875 9.25-6.265625 11.28125-7.601563 70.191406-6.410156 113.929687 11.058593 3.347657 23.539062 2.164063 32.539062-6.125 17.113281-15.765624 21.167969-48.195312 11.710938-82.878906-8.566407-31.410156-27.433594-33.972656-30.917969-34.175781zm0 0" fill="#a2bf26"/><path d="m3.542969 355.691406s3.105469 30.652344 18.316406 34.234375c15.316406 3.601563 24.234375-6.71875 26.636719-12.425781 2.402344-5.703125.089844-35.023438.089844-35.023438zm0 0" fill="#f8db8f"/><path d="m41.09375 173.171875s-28.09375 26.96875-37.550781 83.421875c-7.96875 47.570312 0 99.097656 0 99.097656s11.726562 1.210938 25.675781-2.851562c16.679688-4.859375 19.367188-10.359375 19.367188-10.359375s.902343-57.65625 5.40625-96.394531c4.503906-38.738282 12.035156-67.449219-12.898438-72.914063zm0 0" fill="#a2bf26"/><g fill="#162f4d"><path d="m174.472656 70.042969c0 3.496093-2.128906 7.558593-4.75 9.074219-2.625 1.515624-4.75-.09375-4.75-3.589844 0-3.5 2.125-7.5625 4.75-9.078125 2.621094-1.511719 4.75.09375 4.75 3.59375zm0 0"/><path d="m141.28125 89.132812c0 3.5-2.125 7.5625-4.746094 9.074219-2.625 1.515625-4.75-.089843-4.75-3.589843 0-3.496094 2.125-7.558594 4.75-9.074219 2.621094-1.515625 4.746094.09375 4.746094 3.589843zm0 0"/></g></svg>