<svg height="512pt" viewBox="-42 0 511 512" width="512pt" xmlns="http://www.w3.org/2000/svg"><path d="m398.410156 11.484375-19.484375-11.484375-28.902343 81.835938v3.015624l-95.625 55.230469-20.277344-33.996093-19.480469-11.488282-28.902344 81.839844v3.304688l-95.496093 55.15625-20.40625-34.214844-19.480469-11.488282-28.90625 81.835938v3.597656l-20.949219 12.101563v51.773437l20.949219 12.09375v36.96875l-20.949219 12.097656v51.773438l20.949219 12.097656v36.980469l19.484375 11.484375 57.808594-33.375v-59.734375l86.996093-50.246094v37.269531l19.480469 11.488282 57.808594-33.375v-60.023438l86.996094-50.25v37.566406l19.484374 11.484376 57.804688-33.375v-229.484376zm-212.671875 281.191406-86.996093 50.25v-36.96875l86.996093-50.246093zm77.289063-81.609375 86.996094-50.246094v36.964844l-86.996094 50.25zm0 0" fill="#f7bd69"/><path d="m21.453125 411.8125 405.523437-234.226562v51.773437l-405.523437 234.226563zm0 0" fill="#f8db8f"/><path d="m21.453125 350.597656-20.949219-12.09375v-51.773437l20.949219 12.09375zm0 0" fill="#f7bd69"/><path d="m.503906 286.730469 405.523438-234.226563 20.949218 12.097656-405.523437 234.222657zm0 0" fill="#fff5ae"/><path d="m21.453125 298.824219 405.523437-234.222657v51.769532l-405.523437 234.226562zm0 0" fill="#f8db8f"/><path d="m21.453125 463.535156-20.949219-12.097656v-51.773438l20.949219 12.097657zm0 0" fill="#f7bd69"/><path d="m.503906 399.664062 405.523438-234.222656 20.949218 12.09375-405.523437 234.226563zm0 0" fill="#fff5ae"/><path d="m45.644531 269.179688-18.167969-15.203126-6.023437 17.054688v229.484375l19.480469 11.484375 4.710937-10.171875zm0 0" fill="#f7bd69"/><path d="m40.933594 512 57.808594-33.375v-229.480469l-28.90625-48.464843-28.902344 81.839843zm0 0" fill="#f8db8f"/><path d="m209.929688 174.582031-18.167969-15.203125-6.023438 17.054688v229.484375l19.480469 11.484375 4.710938-10.171875zm0 0" fill="#f7bd69"/><path d="m205.21875 417.402344 57.808594-33.375v-229.480469l-28.90625-48.464844-28.902344 81.839844zm0 0" fill="#f8db8f"/><path d="m374.214844 79.984375-18.167969-15.207031-6.023437 17.058594v229.484374l19.480468 11.484376 4.710938-10.171876zm0 0" fill="#f7bd69"/><path d="m369.503906 322.804688 57.808594-33.375v-229.484376l-28.902344-48.460937-28.90625 81.839844zm0 0" fill="#f8db8f"/><path d="m21.453125 271.03125 19.480469 11.488281 28.902344-81.839843-19.480469-11.484376zm0 0" fill="#fff5ae"/><path d="m185.738281 176.433594 19.480469 11.488281 28.902344-81.839844-19.480469-11.484375zm0 0" fill="#fff5ae"/><path d="m350.023438 81.835938 19.480468 11.488281 28.90625-81.839844-19.484375-11.484375zm0 0" fill="#fff5ae"/><g fill="#f7bd69"><path d="m59.121094 309.203125c0 4.375-2.660156 9.457031-5.941406 11.351563-3.28125 1.894531-5.941407-.117188-5.941407-4.492188s2.660157-9.457031 5.941407-11.351562c3.285156-1.894532 5.941406.117187 5.941406 4.492187zm0 0"/><path d="m92.433594 290.101562c0 4.375-2.660156 9.457032-5.941406 11.351563s-5.941407-.117187-5.941407-4.492187 2.660157-9.457032 5.941407-11.351563 5.941406.117187 5.941406 4.492187zm0 0"/><path d="m59.121094 423.722656c0 4.375-2.660156 9.457032-5.941406 11.351563s-5.941407-.113281-5.941407-4.488281 2.660157-9.460938 5.941407-11.355469c3.285156-1.894531 5.941406.117187 5.941406 4.492187zm0 0"/><path d="m92.433594 404.222656c0 4.375-2.660156 9.457032-5.941406 11.351563s-5.941407-.117188-5.941407-4.492188 2.660157-9.457031 5.941407-11.351562 5.941406.117187 5.941406 4.492187zm0 0"/><path d="m223.40625 213.503906c0 4.375-2.660156 9.457032-5.9375 11.351563-3.28125 1.890625-5.941406-.117188-5.941406-4.492188s2.660156-9.457031 5.941406-11.351562c3.277344-1.894531 5.9375.117187 5.9375 4.492187zm0 0"/><path d="m256.71875 194.398438c0 4.375-2.660156 9.457031-5.941406 11.355468-3.28125 1.890625-5.9375-.117187-5.9375-4.492187s2.65625-9.457031 5.9375-11.355469c3.28125-1.890625 5.941406.117188 5.941406 4.492188zm0 0"/><path d="m223.40625 328.023438c0 4.375-2.660156 9.457031-5.9375 11.351562-3.28125 1.894531-5.941406-.117188-5.941406-4.492188s2.660156-9.457031 5.941406-11.351562c3.277344-1.894531 5.9375.117188 5.9375 4.492188zm0 0"/><path d="m256.71875 308.519531c0 4.375-2.660156 9.457031-5.941406 11.351563-3.28125 1.894531-5.9375-.113282-5.9375-4.488282s2.65625-9.457031 5.9375-11.355468c3.28125-1.894532 5.941406.117187 5.941406 4.492187zm0 0"/><path d="m387.695312 118.90625c0 4.375-2.660156 9.457031-5.941406 11.351562-3.28125 1.894532-5.941406-.117187-5.941406-4.492187s2.660156-9.457031 5.941406-11.351563c3.28125-1.894531 5.941406.117188 5.941406 4.492188zm0 0"/><path d="m421.007812 99.800781c0 4.375-2.660156 9.457031-5.941406 11.351563-3.28125 1.894531-5.941406-.117188-5.941406-4.492188s2.660156-9.457031 5.941406-11.351562c3.28125-1.894532 5.941406.117187 5.941406 4.492187zm0 0"/><path d="m387.695312 233.425781c0 4.375-2.660156 9.457031-5.941406 11.351563-3.28125 1.894531-5.941406-.117188-5.941406-4.492188s2.660156-9.457031 5.941406-11.351562c3.28125-1.894532 5.941406.117187 5.941406 4.492187zm0 0"/><path d="m421.007812 213.921875c0 4.375-2.660156 9.457031-5.941406 11.351563-3.28125 1.894531-5.941406-.117188-5.941406-4.492188s2.660156-9.457031 5.941406-11.351562c3.28125-1.894532 5.941406.117187 5.941406 4.492187zm0 0"/></g></svg>