<svg height="512pt" viewBox="-20 0 512 512" width="512pt" xmlns="http://www.w3.org/2000/svg"><path d="m449.804688 0-63.640626 36.742188v3.332031l-295.949218 170.933593-3.429688-1.980468-63.640625 36.746094v3.972656l-23.144531 13.367187v57.203125l23.144531 13.363282v59.585937l-23.144531 13.371094v57.199219l23.144531 13.363281v22.113281l21.527344 12.6875 63.863281-36.875v-47.25l277.625-160.351562v22.757812l21.527344 12.691406 63.867188-36.875v-253.539062zm-63.640626 183.59375-277.625 160.351562v-59.589843l277.625-160.351563zm0 0" fill="#b2260b"/><path d="m23.144531 333.679688-23.144531-13.367188v-57.199219l23.144531 13.363281zm0 0" fill="#b2260b"/><path d="m0 263.113281 448.035156-258.777343 23.148438 13.363281-448.039063 258.777343zm0 0" fill="#ff7e27"/><path d="m23.144531 276.476562 448.039063-258.777343v57.199219l-448.039063 258.78125zm0 0" fill="#ef5f26"/><path d="m23.144531 477.195312-23.144531-13.363281v-57.199219l23.144531 13.363282zm0 0" fill="#b2260b"/><path d="m0 406.632812 448.035156-258.777343 23.148438 13.363281-448.039063 258.777344zm0 0" fill="#ff7e27"/><path d="m23.144531 419.996094 448.039063-258.777344v57.199219l-448.039063 258.777343zm0 0" fill="#ef5f26"/><path d="m386.164062 36.742188v253.539062l21.523438 12.691406 6.964844-14.078125v-243.484375zm0 0" fill="#b2260b"/><path d="m407.6875 302.972656 63.867188-36.875v-253.539062l-63.867188 36.875zm0 0" fill="#ef5f26"/><path d="m386.164062 36.742188 63.640626-36.742188 21.75 12.558594-63.867188 36.875zm0 0" fill="#ff7e27"/><path d="m23.144531 245.769531v253.539063l21.527344 12.691406 6.964844-14.074219v-243.488281zm0 0" fill="#b2260b"/><path d="m44.671875 512 63.867187-36.875v-253.539062l-63.867187 36.875zm0 0" fill="#ef5f26"/><g fill="#b2260b"><path d="m64.765625 292.34375c0 4.832031-2.9375 10.445312-6.5625 12.539062s-6.566406-.128906-6.566406-4.960937 2.941406-10.449219 6.566406-12.542969 6.5625.128906 6.5625 4.964844zm0 0"/><path d="m101.570312 271.238281c0 4.832031-2.9375 10.449219-6.5625 12.539063-3.625 2.09375-6.566406-.128906-6.566406-4.960938 0-4.832031 2.941406-10.449218 6.566406-12.542968 3.625-2.089844 6.5625.128906 6.5625 4.964843zm0 0"/><path d="m64.765625 431.316406c0 4.832032-2.9375 10.449219-6.5625 12.539063-3.625 2.09375-6.566406-.128907-6.566406-4.960938s2.941406-10.449219 6.566406-12.542969 6.5625.128907 6.5625 4.964844zm0 0"/><path d="m101.570312 409.769531c0 4.832031-2.9375 10.449219-6.5625 12.539063-3.625 2.09375-6.566406-.128906-6.566406-4.960938 0-4.832031 2.941406-10.449218 6.566406-12.542968 3.625-2.089844 6.5625.128906 6.5625 4.964843zm0 0"/><path d="m427.78125 82.09375c0 4.835938-2.9375 10.449219-6.5625 12.542969s-6.566406-.128907-6.566406-4.960938c0-4.835937 2.941406-10.449219 6.566406-12.542969s6.5625.128907 6.5625 4.960938zm0 0"/><path d="m464.585938 60.988281c0 4.835938-2.9375 10.449219-6.5625 12.542969s-6.5625-.128906-6.5625-4.960938c0-4.835937 2.9375-10.449218 6.5625-12.542968s6.5625.128906 6.5625 4.960937zm0 0"/><path d="m427.78125 221.066406c0 4.835938-2.9375 10.449219-6.5625 12.542969s-6.566406-.128906-6.566406-4.960937c0-4.835938 2.941406-10.449219 6.566406-12.542969s6.5625.128906 6.5625 4.960937zm0 0"/><path d="m464.585938 199.519531c0 4.835938-2.9375 10.449219-6.5625 12.542969s-6.5625-.128906-6.5625-4.960938c0-4.835937 2.9375-10.449218 6.5625-12.542968s6.5625.128906 6.5625 4.960937zm0 0"/></g><path d="m23.144531 245.769531 63.640625-36.742187 21.753906 12.558594-63.867187 36.875zm0 0" fill="#ff7e27"/></svg>