<svg height="511pt" viewBox="-70 0 511 511.99981" width="511pt" xmlns="http://www.w3.org/2000/svg"><path d="m74.148438 184.773438-64.597657-37.292969 32.4375 60.15625-41.488281 22.632812 45.960938 26.535157 57.621093-13.316407zm0 0" fill="#ffe14d"/><g fill="#ff8e1d"><path d="m200.953125 512c-5.535156 0-10.023437-4.488281-10.023437-10.023438v-274.273437c0-5.535156 4.488281-10.023437 10.023437-10.023437 5.539063 0 10.027344 4.488281 10.027344 10.023437v274.273437c0 5.535157-4.488281 10.023438-10.027344 10.023438zm0 0"/><path d="m323.46875 380.183594c-1.699219 0-3.421875-.433594-5-1.347656l-281.492188-162.519532c-4.796874-2.765625-6.4375-8.898437-3.671874-13.691406 2.769531-4.796875 8.898437-6.4375 13.695312-3.671875l281.488281 162.519531c4.796875 2.769532 6.4375 8.898438 3.671875 13.695313-1.855468 3.214843-5.226562 5.015625-8.691406 5.015625zm0 0"/><path d="m270.695312 133.015625 10.261719-5.832031-10.136719-11.796875c.015626-.347657.039063-.679688.039063-1.035157v-3.226562c0-5.164062-1.28125-10.660156-3.433594-15.746094l3-1.707031c1.949219-1.011719 3.195313-3.523437 3.195313-7.148437 0-6.445313-3.917969-13.933594-8.75-16.722657-1.015625-.585937-1.988282-.90625-2.894532-1.003906-.992187-7.910156-5.796874-16.257813-11.585937-19.597656-2.683594-1.550781-5.152344-1.777344-7.128906-.902344l-3.449219 1.960937c-1.941406-3.011718-4.328125-5.515624-6.917969-7.007812-3.035156-1.753906-5.796875-1.804688-7.886719-.492188l-22.125 12.574219c-2.707031 1.316407-4.445312 4.738281-4.445312 9.714844 0 1.101563.101562 2.222656.265625 3.351563l-5.445313 3.101562c-.378906.15625-.738281.351562-1.066406.609375h-.003906c-1.546875 1.210937-2.503906 3.539063-2.503906 6.71875 0 6.445313 3.917968 13.933594 8.753906 16.722656.539062.3125 1.070312.542969 1.585938.714844-.144532 1.222656-.222657 2.507813-.222657 3.863281v4.566406l-1.402343 20.910157c-.550782 8.195312-2.460938 15.035156-5.425782 20.355469-4.15625-.304688-8.601562-1.59375-13.234375-3.964844 12.820313-20.199219 10.261719-58.363282-7.699219-92.683594-20.898437-39.933594-54.746093-59.550781-75.722656-43.960938 0 0-20.917968 11.546876-22.867187 13.019532l13.898437 26.558594-11.480468 6.507812.019531.007812c-5.648438 3.164063-10.230469 8.832032-13.113281 17.039063l23.585937 25.859375c-4.574219 4.820312-7.496094 12.507812-7.949219 22.601562l43.765625 28.664063c3.976563 43.789063 30.539063 91.199219 62.738281 109.789063.625.359374 1.246094.707031 1.867188 1.039062 13.011719 7.011719 24.75 7.929688 34.296875 3.992188l.003906-.003907c2.191407-.902343 26.175781-14.609375 26.175781-14.609375 17.367188-9.953125 26.089844-37.496094 19.492188-73.710937l-2.585938-14.195313 7.535157-4.238281v-.003906c1.859375-.808594 2.832031-3.53125 1.953125-7.75-.824219-3.976563-1.882813-8.507813-2.957032-12.902344zm0 0"/></g><path d="m245.863281 137.316406 12.417969 2.757813-10.132812-11.800781c.011718-.34375.039062-.675782.039062-1.035157v-3.222656c0-5.648437-1.523438-11.695313-4.046875-17.164063 3.894531 1.070313 6.808594-1.886718 6.808594-7.441406 0-6.441406-3.917969-13.929687-8.753907-16.71875-1.011718-.585937-1.984374-.90625-2.890624-1.003906-.992188-7.914062-5.796876-16.257812-11.585938-19.597656-4.292969-2.480469-8.035156-1.570313-10.097656 1.808594-2.023438-3.347657-4.59375-6.140626-7.398438-7.757813-6.507812-3.761719-11.785156.230469-11.785156 8.90625 0 2.648437.496094 5.421875 1.363281 8.109375-.445312-.351562-.898437-.671875-1.363281-.941406-4.832031-2.792969-8.75.171875-8.75 6.617187 0 6.445313 3.917969 13.929688 8.75 16.722657.542969.3125 1.070312.542968 1.585938.714843-.144532 1.21875-.21875 2.503907-.21875 3.863281v4.5625l-1.402344 20.910157c-1.882813 28.050781-19.644532 40.386719-41.335938 29.28125 12.820313-20.199219 10.261719-58.363281-7.699218-92.683594-20.964844-40.054687-54.953126-59.675781-75.914063-43.828125l15.769531 30.128906c-11.703125-.679687-21.535156 5.984375-26.449218 19.980469l23.585937 25.859375c-4.574219 4.820312-7.492187 12.511719-7.945313 22.605469l43.761719 28.664062c3.980469 43.785157 30.542969 91.199219 62.738281 109.785157.625.363281 1.246094.707031 1.867188 1.042968 39.832031 21.457032 67.738281-14.144531 57.292969-71.449218l-4.710938-25.867188c5.894531 11.183594 13.628907 9.386719 11.617188-.316406-1.390625-6.699219-3.441407-14.976563-5.117188-21.492188zm-9.339843-15.820312c-2.492188-1.441406-4.511719-5.300782-4.511719-8.625 0-3.324219 2.019531-4.851563 4.511719-3.414063 2.496093 1.4375 4.515624 5.300781 4.515624 8.625s-2.019531 4.851563-4.515624 3.414063zm0 0" fill="#ffe14d"/><path d="m370.769531 391.558594-54.546875-78.425782-12.109375 6.992188 11.160157 51.917969-11.160157 39.027343 55.808594-13.25zm0 0" fill="#ff8e1d"/><path d="m304.113281 320.125 55.808594 77.695312-44.648437-25.777343zm0 0" fill="#f0c419"/><path d="m315.273438 372.042969-11.160157 39.027343 55.808594-13.25zm0 0" fill="#ffe14d"/></svg>