<svg height="512pt" viewBox="0 -40 512 512" width="512pt" xmlns="http://www.w3.org/2000/svg"><path d="m275.394531 88.609375-275.394531 159v44.828125l240.863281 139.0625 271.136719-156.539062v-44.832032zm0 0" fill="#b2260b"/><path d="m512 230.128906-236.605469-141.519531-275.394531 159 240.863281 139.0625zm0 0" fill="#ff7e27"/><path d="m240.863281 386.671875v44.828125l271.136719-156.539062v-44.832032zm0 0" fill="#ef5f26"/><path d="m194.269531 181.359375h-.011719c-.019531-6.835937-4.152343-13.359375-12.601562-18.238281-18.679688-10.785156-51.316406-9.433594-72.886719 3.019531-12.160156 7.023437-18.207031 16.070313-17.828125 24.5625h-.019531l.050781.363281c.054688.816406 10.40625 76.042969 10.40625 76.042969h.007813c.863281 4.566406 4.121093 8.839844 9.875 12.160156 14.988281 8.652344 41.167969 7.570313 58.472656-2.421875 8.707031-5.027344 13.503906-11.351562 14.21875-17.5l.097656-.007812zm0 0" fill="#ff491f"/><path d="m167.339844 190.792969c-15.78125 9.109375-39.648438 10.101562-53.3125 2.210937-13.664063-7.886718-11.949219-21.667968 3.828125-30.777344 15.777343-9.109374 39.644531-10.101562 53.308593-2.210937 13.664063 7.890625 11.953126 21.667969-3.824218 30.777344zm0 0" fill="#bf3717"/><path d="m159.917969 182.378906c-11.046875 6.378906-27.757813 7.070313-37.324219 1.546875-9.566406-5.523437-8.367188-15.171875 2.679688-21.550781 11.046874-6.375 27.757812-7.070312 37.324218-1.546875s8.367188 15.171875-2.679687 21.550781zm0 0" fill="#ff9279"/><path d="m132.996094 172.378906s-14.273438-25.027344-14.769532-53.515625c-.355468-20.679687 2.957032-38.398437 11.324219-39.386719 8.371094-.984374 13.046875 13.785157 13.046875 13.785157s10.828125-27.566407 26.460938-24.613281c15.628906 2.953124-6.523438 42.828124-6.523438 42.828124s9.945313-8.691406 12.105469 2.953126c2.355469 12.722656-13.210937 43.5-20.882813 57.644531-2.933593 5.410156-9.644531 7.492187-15.121093 4.6875-1.988281-1.019531-3.960938-2.429688-5.640625-4.382813zm0 0" fill="#249155"/><path d="m123.769531 223.355469c-21.832031-4.3125-29.457031-19.5-29.824219-20.257813-.414062-.882812-.984374-1.640625-1.660156-2.269531.925782 6.800781 2.238282 16.363281 3.574219 26.117187 6.117187 4.554688 14.308594 8.777344 25.050781 10.898438.484375.097656.964844.144531 1.4375.144531 3.457032 0 6.542969-2.4375 7.238282-5.957031.789062-4-1.8125-7.882812-5.816407-8.675781zm0 0" fill="#bf3717"/><path d="m187.886719 230.058594c-15.886719 17.445312-37.246094 21.339844-37.644531 21.410156-4.015626.667969-6.730469 4.460938-6.070313 8.480469.59375 3.621093 3.726563 6.1875 7.277344 6.1875.398437 0 .800781-.03125 1.207031-.097657.847656-.140624 16.339844-2.824218 32.347656-13.957031zm0 0" fill="#bf3717"/><path d="m312.417969 112.933594h-.015625c-.015625-6.835938-4.148438-13.359375-12.597656-18.238282-18.683594-10.789062-51.316407-9.433593-72.890626 3.019532-12.15625 7.019531-18.203124 16.070312-17.824218 24.5625h-.019532l.046876.359375c.058593.820312 10.410156 76.042969 10.410156 76.042969h.007812c.863282 4.570312 4.121094 8.84375 9.875 12.164062 14.988282 8.652344 41.164063 7.566406 58.472656-2.425781 8.707032-5.027344 13.503907-11.347657 14.21875-17.496094l.097657-.007813zm0 0" fill="#ff491f"/><path d="m285.484375 122.367188c-15.777344 9.109374-39.644531 10.097656-53.308594 2.210937-13.664062-7.890625-11.949219-21.667969 3.828125-30.78125 15.777344-9.109375 39.644532-10.097656 53.308594-2.207031 13.664062 7.886718 11.953125 21.667968-3.828125 30.777344zm0 0" fill="#bf3717"/><path d="m278.066406 113.953125c-11.046875 6.375-27.757812 7.070313-37.324218 1.546875-9.566407-5.523438-8.367188-15.171875 2.679687-21.550781 11.046875-6.378907 27.757813-7.070313 37.324219-1.546875 9.566406 5.523437 8.367187 15.171875-2.679688 21.550781zm0 0" fill="#ff9279"/><path d="m251.144531 103.949219s-14.277343-25.023438-14.769531-53.515625c-.355469-20.679688 2.953125-38.398438 11.324219-39.382813 8.367187-.984375 13.042969 13.785157 13.042969 13.785157s10.832031-27.570313 26.460937-24.613282c15.632813 2.953125-6.523437 42.828125-6.523437 42.828125s9.945312-8.691406 12.105468 2.953125c2.359375 12.71875-13.210937 43.496094-20.878906 57.644532-2.933594 5.40625-9.644531 7.492187-15.121094 4.6875-1.988281-1.019532-3.960937-2.433594-5.640625-4.386719zm0 0" fill="#249155"/><path d="m241.917969 154.929688c-21.832031-4.3125-29.457031-19.5-29.824219-20.257813-.414062-.882813-.984375-1.644531-1.660156-2.269531.925781 6.800781 2.234375 16.359375 3.574218 26.113281 6.113282 4.558594 14.308594 8.78125 25.050782 10.902344.480468.097656.964844.140625 1.4375.140625 3.457031 0 6.542968-2.4375 7.238281-5.953125.789063-4.003907-1.8125-7.886719-5.816406-8.675781zm0 0" fill="#bf3717"/><path d="m306.035156 161.632812c-15.886718 17.445313-37.246094 21.339844-37.644531 21.410157-4.015625.667969-6.730469 4.460937-6.070313 8.480469.59375 3.617187 3.726563 6.1875 7.277344 6.1875.394532 0 .800782-.03125 1.207032-.097657.847656-.140625 16.339843-2.824219 32.34375-13.960937zm0 0" fill="#bf3717"/><path d="m295.1875 239.632812h-.011719c-.019531-6.835937-4.152343-13.359374-12.601562-18.238281-18.679688-10.785156-51.316407-9.433593-72.886719 3.023438-12.160156 7.019531-18.207031 16.066406-17.828125 24.558593h-.019531l.050781.363282c.054687.820312 10.40625 76.042968 10.40625 76.042968h.007813c.863281 4.566407 4.121093 8.839844 9.875 12.160157 14.988281 8.65625 41.167968 7.570312 58.472656-2.421875 8.707031-5.027344 13.503906-11.351563 14.21875-17.496094l.097656-.011719zm0 0" fill="#ff491f"/><path d="m268.257812 249.070312c-15.78125 9.105469-39.648437 10.097657-53.3125 2.207032-13.664062-7.886719-11.949218-21.667969 3.828126-30.777344 15.777343-9.109375 39.644531-10.097656 53.308593-2.210938 13.664063 7.890626 11.953125 21.667969-3.824219 30.78125zm0 0" fill="#bf3717"/><path d="m260.835938 240.652344c-11.046876 6.378906-27.757813 7.070312-37.324219 1.546875-9.566407-5.523438-8.367188-15.171875 2.679687-21.550781 11.046875-6.375 27.757813-7.070313 37.324219-1.546876 9.566406 5.523438 8.367187 15.171876-2.679687 21.550782zm0 0" fill="#ff9279"/><path d="m233.914062 230.652344s-14.273437-25.027344-14.769531-53.519532c-.355469-20.675781 2.957031-38.394531 11.324219-39.382812 8.371094-.984375 13.046875 13.785156 13.046875 13.785156s10.828125-27.566406 26.460937-24.613281c15.628907 2.953125-6.523437 42.828125-6.523437 42.828125s9.945313-8.691406 12.105469 2.953125c2.355468 12.71875-13.210938 43.5-20.882813 57.644531-2.933593 5.410156-9.644531 7.492188-15.121093 4.6875-1.988282-1.019531-3.960938-2.429687-5.640626-4.382812zm0 0" fill="#249155"/><path d="m224.6875 281.628906c-21.832031-4.3125-29.457031-19.5-29.824219-20.257812-.414062-.882813-.984375-1.644532-1.660156-2.269532.925781 6.800782 2.238281 16.363282 3.574219 26.113282 6.117187 4.558594 14.308594 8.78125 25.050781 10.902344.484375.09375.964844.140624 1.4375.140624 3.457031 0 6.542969-2.433593 7.238281-5.953124.789063-4-1.8125-7.882813-5.816406-8.675782zm0 0" fill="#bf3717"/><path d="m288.804688 288.332031c-15.886719 17.445313-37.246094 21.339844-37.644532 21.410157-4.015625.667968-6.730468 4.460937-6.070312 8.480468.59375 3.617188 3.726562 6.1875 7.277344 6.1875.394531 0 .800781-.03125 1.203124-.097656.851563-.140625 16.34375-2.824219 32.347657-13.960938zm0 0" fill="#bf3717"/><path d="m413.335938 171.207031h-.015626c-.015624-6.835937-4.148437-13.363281-12.597656-18.238281-18.683594-10.789062-51.316406-9.433594-72.886718 3.019531-12.160157 7.019531-18.207032 16.066407-17.828126 24.558594l-.019531.003906.046875.359375c.058594.820313 10.410156 76.042969 10.410156 76.042969h.007813c.863281 4.570313 4.121094 8.84375 9.875 12.164063 14.988281 8.652343 41.164063 7.566406 58.472656-2.425782 8.707031-5.027344 13.503907-11.351562 14.21875-17.496094l.097657-.007812zm0 0" fill="#ff491f"/><path d="m386.402344 180.640625c-15.777344 9.109375-39.644532 10.097656-53.308594 2.210937-13.664062-7.890624-11.949219-21.671874 3.828125-30.78125 15.777344-9.109374 39.644531-10.097656 53.308594-2.207031 13.664062 7.886719 11.953125 21.667969-3.828125 30.777344zm0 0" fill="#bf3717"/><path d="m378.984375 172.222656c-11.046875 6.378906-27.757813 7.070313-37.324219 1.550782-9.566406-5.523438-8.367187-15.171876 2.679688-21.550782s27.757812-7.070312 37.324218-1.546875c9.566407 5.523438 8.367188 15.171875-2.679687 21.546875zm0 0" fill="#ff9279"/><path d="m352.0625 162.222656s-14.277344-25.023437-14.765625-53.515625c-.359375-20.679687 2.953125-38.398437 11.320313-39.382812 8.371093-.984375 13.046874 13.785156 13.046874 13.785156s10.828126-27.570313 26.460938-24.613281c15.628906 2.953125-6.523438 42.828125-6.523438 42.828125s9.945313-8.691407 12.105469 2.953125c2.359375 12.71875-13.210937 43.496094-20.882812 57.644531-2.929688 5.40625-9.644531 7.492187-15.121094 4.6875-1.988281-1.023437-3.960937-2.433594-5.640625-4.386719zm0 0" fill="#249155"/><g fill="#bf3717"><path d="m342.835938 213.203125c-21.832032-4.3125-29.457032-19.5-29.824219-20.257813-.414063-.882812-.984375-1.644531-1.660157-2.269531.925782 6.796875 2.238282 16.359375 3.574219 26.113281 6.113281 4.558594 14.308594 8.78125 25.050781 10.902344.484376.09375.964844.140625 1.4375.140625 3.457032 0 6.542969-2.4375 7.238282-5.957031.789062-4-1.8125-7.882812-5.816406-8.671875zm0 0"/><path d="m406.953125 219.90625c-15.886719 17.445312-37.246094 21.339844-37.644531 21.410156-4.015625.667969-6.730469 4.460938-6.070313 8.480469.59375 3.617187 3.726563 6.1875 7.277344 6.1875.394531 0 .800781-.03125 1.207031-.101563.847656-.136718 16.339844-2.824218 32.34375-13.957031zm0 0"/></g></svg>